<?xml version="1.0" standalone="no"?>
<!DOCTYPE svg PUBLIC "-//W3C//DTD SVG 1.1//EN" "http://www.w3.org/Graphics/SVG/1.1/DTD/svg11.dtd" >
<svg xmlns="http://www.w3.org/2000/svg" xmlns:xlink="http://www.w3.org/1999/xlink" version="1.1">
<metadata>
Created by FontForge 20191125 at Wed Jan 26 02:10:39 2022
 By convertio
Copyright (c) Ali Hamidi
</metadata>
<defs>
<font id="Rosmatika-Regular" horiz-adv-x="692" >
  <font-face 
    font-family="Rosmatika"
    font-weight="400"
    font-stretch="normal"
    units-per-em="1000"
    panose-1="0 0 0 0 0 0 0 0 0 0"
    ascent="800"
    descent="-200"
    x-height="500"
    cap-height="700"
    bbox="-200 -330 5160 903"
    underline-thickness="50"
    underline-position="-125"
    unicode-range="U+000D-FB06"
  />
<missing-glyph horiz-adv-x="606" 
d="M50 0v700h506v-700h-506zM120 70h366v561h-366v-561zM277 524q-13 0 -23.5 -2.5t-21.5 -5.5q11 -7 15 -22t4 -26q0 -12 -4 -19.5t-10 -11t-13 -5t-12 -1.5q-17 0 -28 10t-11 27q0 24 28.5 46t91.5 22q72 0 106 -30.5t34 -75.5q0 -42 -30 -71t-96 -39l-5 -41h-16l-5 49
q29 11 46.5 34.5t17.5 72.5q0 48 -17.5 68.5t-50.5 20.5zM330 205q0 -17 -11.5 -29t-27.5 -12q-15 0 -26.5 12t-11.5 29t11.5 29t26.5 12q16 0 27.5 -12t11.5 -29z" />
    <glyph glyph-name="f_f" unicode="ff" horiz-adv-x="813" 
d="M94 500v1q0 47 17.5 86t54 67.5t93 44.5t135.5 16q51 0 86.5 -6.5t58.5 -19.5q55 26 133 26q48 0 82.5 -9.5t56.5 -25t32.5 -35.5t10.5 -41q0 -32 -20.5 -52.5t-53.5 -20.5q-32 0 -54 21.5t-22 60.5q0 15 4.5 36t16.5 42q-15 5 -36 5q-26 0 -46.5 -8.5t-34.5 -30.5
t-21.5 -59.5t-7.5 -96.5v-1h185v-25h-185v-375q0 -22 1 -38.5t6.5 -26.5t18 -15t34.5 -5v-15h-280v15q23 0 35 5t17.5 15t6.5 26.5t1 38.5v375h-165v-375q0 -22 1 -38.5t6.5 -26.5t18 -15t34.5 -5v-15h-280v15q23 0 35 5t17.5 15t6.5 26.5t1 38.5v375h-60v25h60zM419 500v1
q0 54 21 96.5t63 71.5q-2 3 -13 7t-27 7t-34.5 5t-35.5 2q-29 0 -54.5 -7.5t-44 -28.5t-29.5 -57.5t-11 -95.5v-1h165z" />
    <glyph glyph-name="fi" unicode="fi" horiz-adv-x="666" 
d="M94 500v1q0 47 17.5 86t53.5 67.5t92 44.5t133 16q38 0 71 -4.5t58.5 -16.5t40 -32t14.5 -51q0 -38 -20.5 -59t-55.5 -21q-20 0 -34.5 7t-23.5 19t-13.5 27.5t-4.5 31.5t3.5 31.5t11.5 27.5q0 6 -7 9t-16.5 4.5t-19 1.5h-15.5q-36 0 -60 -16t-38.5 -42.5t-20.5 -60.5
t-6 -70v-1h185q25 0 50 -5.5t45 -17t32.5 -29.5t12.5 -43v-305q0 -22 1 -38.5t6.5 -26.5t18 -15t34.5 -5v-15h-280v15q23 0 35 5t17.5 15t6.5 26.5t1 38.5v305q0 26 -3.5 40.5t-13 21t-26 7.5t-42.5 1h-80v-375q0 -22 1 -38.5t6.5 -26.5t18 -15t34.5 -5v-15h-280v15
q23 0 35 5t17.5 15t6.5 26.5t1 38.5v375h-60v25h60z" />
    <glyph glyph-name="fl" unicode="fl" horiz-adv-x="673" 
d="M94 500v1q0 47 16.5 86t49 67.5t80 44.5t108.5 16q10 0 31 -0.5t46.5 -3.5t53 -9.5t49.5 -19t36.5 -31t14.5 -46.5v-505q0 -22 1 -38.5t6.5 -26.5t18 -15t34.5 -5v-15h-280v15q23 0 35 5t17.5 15t6.5 26.5t1 38.5v505q0 26 -2 42.5t-8.5 27t-18 15.5t-30.5 6
q-25 -1 -45 -10t-33.5 -31t-20.5 -59.5t-7 -94.5v-1h120v-25h-120v-375q0 -22 1 -38.5t6.5 -26.5t18 -15t34.5 -5v-15h-280v15q23 0 35 5t17.5 15t6.5 26.5t1 38.5v375h-60v25h60z" />
    <glyph glyph-name="f_f_i" unicode="ffi" horiz-adv-x="991" 
d="M34 15q23 0 35 5t17.5 15t6.5 26.5t1 38.5v375h-60v25h60v1q0 47 17.5 86t54 67.5t93 44.5t135.5 16q55 0 91.5 -7.5t58.5 -21.5q34 14 76 21.5t95 7.5q38 0 71 -4.5t58.5 -16.5t40 -32t14.5 -51q0 -38 -20.5 -59t-55.5 -21q-20 0 -34.5 7t-23.5 19t-13.5 27.5t-4.5 31.5
t3.5 31.5t11.5 27.5q0 6 -7 9t-16.5 4.5t-19 1.5h-15.5q-36 0 -60 -16t-38.5 -42.5t-20.5 -60.5t-6 -70v-1h185q25 0 50 -5.5t45 -17t32.5 -29.5t12.5 -43v-305q0 -22 1 -38.5t6.5 -26.5t18 -15t34.5 -5v-15h-280v15q23 0 35 5t17.5 15t6.5 26.5t1 38.5v305q0 26 -3.5 40.5
t-13 21t-26 7.5t-42.5 1h-80v-375q0 -22 1 -38.5t6.5 -26.5t18 -15t34.5 -5v-15h-280v15q23 0 35 5t17.5 15t6.5 26.5t1 38.5v375h-165v-375q0 -22 1 -38.5t6.5 -26.5t18 -15t34.5 -5v-15h-280v15zM254 501v-1h165v1q0 51 20.5 92.5t63.5 70.5v5q-2 3 -12.5 7t-26.5 7
t-34.5 5t-36.5 2q-29 0 -54.5 -7.5t-44 -28.5t-29.5 -57.5t-11 -95.5z" />
    <glyph glyph-name="f_f_l" unicode="ffl" horiz-adv-x="998" 
d="M34 0v15q23 0 35 5t17.5 15t6.5 26.5t1 38.5v375h-60v25h60v1q0 47 17.5 86t54 67.5t93 44.5t135.5 16q51 0 86.5 -6.5t58.5 -19.5q55 26 134 26q10 0 31 -0.5t46.5 -3.5t53 -9.5t49.5 -19t36.5 -31t14.5 -46.5v-505q0 -22 1 -38.5t6.5 -26.5t18 -15t34.5 -5v-15h-280v15
q23 0 35 5t17.5 15t6.5 26.5t1 38.5v505q0 26 -2 42.5t-8.5 27t-18 15.5t-30.5 6q-25 -1 -45 -10t-33.5 -31t-20.5 -59.5t-7 -94.5v-1h120v-25h-120v-375q0 -22 1 -38.5t6.5 -26.5t18 -15t34.5 -5v-15h-280v15q23 0 35 5t17.5 15t6.5 26.5t1 38.5v375h-165v-375
q0 -22 1 -38.5t6.5 -26.5t18 -15t34.5 -5v-15h-280zM254 500h165v1q0 54 21 96.5t63 71.5q-2 3 -13 7t-27 7t-34.5 5t-35.5 2q-29 0 -54.5 -7.5t-44 -28.5t-29.5 -57.5t-11 -95.5v-1z" />
    <glyph glyph-name="uniE027" unicode="Th" horiz-adv-x="1202" 
d="M38 540v160h582q29 0 57.5 -6t51 -18.5t37 -31t14.5 -43.5v-151q49 65 135 65q41 0 76 -14t60.5 -37t39.5 -52.5t14 -61.5v-250q0 -19 7.5 -29t18.5 -10t27 9.5t32 25.5q0 -19 -10.5 -37t-27.5 -32.5t-40 -23t-49 -8.5q-22 0 -43.5 7t-38 20.5t-26.5 33t-10 44.5v250
q0 34 -7 58.5t-18 40.5t-25 23.5t-28 7.5q-16 0 -29.5 -7.5t-24.5 -19.5t-19.5 -26t-13.5 -28v-300q0 -22 1 -38t6.5 -26t18 -15t34.5 -5v-15h-280v15q23 0 35 5t17.5 15t6.5 26.5t1 38.5v440q0 24 -1 48.5t-7 43.5t-19.5 31t-37.5 12h-142v-575q0 -22 1 -38.5t6.5 -26.5
t18 -15t34.5 -5v-15h-285v15q23 0 35 5t17.5 15t6.5 26.5t1 38.5v575h-115q-24 0 -37.5 -12t-19.5 -31t-7 -43.5t-1 -48.5h-30z" />
    <glyph glyph-name=".notdef" horiz-adv-x="606" 
d="M50 0v700h506v-700h-506zM120 70h366v561h-366v-561zM277 524q-13 0 -23.5 -2.5t-21.5 -5.5q11 -7 15 -22t4 -26q0 -12 -4 -19.5t-10 -11t-13 -5t-12 -1.5q-17 0 -28 10t-11 27q0 24 28.5 46t91.5 22q72 0 106 -30.5t34 -75.5q0 -42 -30 -71t-96 -39l-5 -41h-16l-5 49
q29 11 46.5 34.5t17.5 72.5q0 48 -17.5 68.5t-50.5 20.5zM330 205q0 -17 -11.5 -29t-27.5 -12q-15 0 -26.5 12t-11.5 29t11.5 29t26.5 12q16 0 27.5 -12t11.5 -29z" />
    <glyph glyph-name="uni0000" horiz-adv-x="0" 
 />
    <glyph glyph-name="uni0000" horiz-adv-x="0" 
 />
    <glyph glyph-name="uni000D" unicode="&#xd;" horiz-adv-x="250" 
 />
    <glyph glyph-name="space" unicode=" " horiz-adv-x="300" 
 />
    <glyph glyph-name="a" unicode="a" horiz-adv-x="613" 
d="M39 125q0 51 29 80.5t71.5 44t90.5 18t86 3.5h22.5t20.5 1v29q0 59 -7.5 96.5t-21.5 59.5t-34.5 30.5t-46.5 8.5q-21 0 -36 -5q12 -21 16.5 -42t4.5 -36q0 -39 -22 -60.5t-54 -21.5q-33 0 -53.5 20.5t-20.5 52.5q0 21 10.5 41t32.5 35.5t56.5 25t82.5 9.5q61 0 108 -16
t79.5 -44.5t49 -67.5t16.5 -86v-200q0 -19 7 -30t19 -11q11 0 26.5 9.5t31.5 25.5q0 -19 -10 -37t-27 -32t-38.5 -22.5t-44.5 -8.5q-39 0 -68 23t-41 58q-22 -42 -59.5 -66.5t-85.5 -24.5q-94 0 -142 38.5t-48 101.5zM267 22q17 0 31.5 8t26 20t20 25.5t14.5 25.5v145
q-23 0 -44 -1t-28 -2q-36 -5 -57 -41t-21 -90q0 -53 18 -71.5t40 -18.5z" />
    <glyph glyph-name="h" unicode="h" horiz-adv-x="674" 
d="M7 604q0 19 10.5 37t28 32.5t41 23t49.5 8.5q21 0 42 -6t37.5 -18.5t26.5 -31.5t10 -44v-155q49 65 135 65q41 0 76 -14t60.5 -37t39.5 -52.5t14 -61.5v-250q0 -19 7.5 -29t18.5 -10t27 9.5t32 25.5q0 -19 -10.5 -37t-27.5 -32.5t-40 -23t-49 -8.5q-22 0 -43.5 7
t-38 20.5t-26.5 33t-10 44.5v250q0 34 -7 58.5t-18 40.5t-25 23.5t-28 7.5q-16 0 -29.5 -7.5t-24.5 -19.5t-19.5 -26t-13.5 -28v-299q0 -22 1 -38.5t6.5 -26.5t18 -15t34.5 -5v-15h-280v15q23 0 35 5t17.5 15t6.5 26.5t1 38.5v505q0 19 -7 26.5t-17 7.5q-13 0 -29 -9.5
t-32 -25.5z" />
    <glyph glyph-name="i" unicode="i" horiz-adv-x="356" 
d="M104 620q0 17 7 32.5t18.5 27t27 18.5t32.5 7t32.5 -7t27 -18.5t18.5 -27t7 -32.5t-7 -32.5t-18.5 -27t-27 -18.5t-32.5 -7t-32.5 7t-27 18.5t-18.5 27t-7 32.5zM85 439q-13 0 -29 -9.5t-32 -25.5q0 19 10.5 37t28 32.5t41 23t49.5 8.5q21 0 42 -6t37.5 -18.5t26.5 -31.5
t10 -44v-305q0 -22 1 -38.5t6.5 -26.5t18 -15t34.5 -5v-15h-280v15q23 0 35 5t17.5 15t6.5 26.5t1 38.5v305q0 19 -7 26.5t-17 7.5z" />
    <glyph glyph-name="o" unicode="o" horiz-adv-x="620" 
d="M307 515q62 0 111.5 -18t84 -52.5t53 -83.5t18.5 -111t-18.5 -111t-53 -83.5t-84 -52.5t-111.5 -18t-111.5 18t-84 52.5t-53 83.5t-18.5 111t18.5 111t53 83.5t84 52.5t111.5 18zM307 10q17 0 34 10t31 37t23 73.5t9 119.5t-9 119.5t-23 73.5t-31 37t-34 10t-34 -10
t-31 -37t-23 -73.5t-9 -119.5t9 -119.5t23 -73.5t31 -37t34 -10z" />
    <glyph glyph-name="l" unicode="l" horiz-adv-x="346" 
d="M68 639q-13 0 -29 -9.5t-32 -25.5q0 19 10.5 37t28 32.5t41 23t49.5 8.5q21 0 42 -6t37.5 -18.5t26.5 -31.5t10 -44v-505q0 -22 1 -38.5t6.5 -26.5t18 -15t34.5 -5v-15h-280v15q23 0 35 5t17.5 15t6.5 26.5t1 38.5v505q0 19 -7 26.5t-17 7.5z" />
    <glyph glyph-name="n" unicode="n" horiz-adv-x="693" 
d="M87 439q-13 0 -29 -9.5t-32 -25.5q0 19 10.5 37t28 32.5t41 23t49.5 8.5q35 0 66 -16t43 -48q25 38 61 56t81 18q41 0 76 -14t60.5 -37t39.5 -52.5t14 -61.5v-250q0 -19 7.5 -29t18.5 -10t27 9.5t32 25.5q0 -19 -10.5 -37t-27.5 -32.5t-40 -23t-49 -8.5q-22 0 -43.5 7
t-38 20.5t-26.5 33t-10 44.5v250q0 34 -7 58.5t-18 40.5t-25 23.5t-28 7.5q-16 0 -29.5 -7.5t-24.5 -19.5t-19.5 -26t-13.5 -28v-299q0 -22 1 -38.5t6.5 -26.5t18 -15t34.5 -5v-15h-280v15q23 0 35 5t17.5 15t6.5 26.5t1 38.5v305q0 19 -7 26.5t-17 7.5z" />
    <glyph glyph-name="m" unicode="m" horiz-adv-x="1017" 
d="M26 404q0 19 10.5 37t28 32.5t41 23t49.5 8.5q35 0 66 -16t43 -48q49 74 147 74q28 0 55.5 -5.5t51 -16t41 -25t26.5 -31.5q26 40 63 59t82 19q41 0 76 -14t60.5 -37t40 -52.5t14.5 -61.5v-250q0 -19 7.5 -29t18.5 -10t27 9.5t32 25.5q0 -19 -10.5 -37t-27.5 -32.5
t-40 -23t-49 -8.5q-22 0 -43.5 7t-38 20.5t-26.5 33t-10 44.5v250q0 34 -7 58.5t-18 40.5t-25.5 23.5t-28.5 7.5q-16 0 -29.5 -7.5t-24 -19.5t-19 -26t-13.5 -27v-300q0 -22 1 -38.5t6.5 -26.5t18 -15t34.5 -5v-15h-280v15q23 0 35 5t17.5 15t6.5 26.5t1 38.5v250
q0 34 -7 58.5t-18 40.5t-25 23.5t-28 7.5q-16 0 -29.5 -7.5t-24.5 -19.5t-19.5 -26t-13.5 -28v-299q0 -22 1 -38.5t6.5 -26.5t18 -15t34.5 -5v-15h-280v15q23 0 35 5t17.5 15t6.5 26.5t1 38.5v305q0 19 -7 26.5t-17 7.5q-13 0 -29 -9.5t-32 -25.5z" />
    <glyph glyph-name="j" unicode="j" horiz-adv-x="419" 
d="M164 620q0 17 7 32.5t18.5 27t27 18.5t32.5 7t32.5 -7t27 -18.5t18.5 -27t7 -32.5t-7 -32.5t-18.5 -27t-27 -18.5t-32.5 -7t-32.5 7t-27 18.5t-18.5 27t-7 32.5zM76 -215q-48 0 -82.5 9.5t-56.5 25t-32.5 35.5t-10.5 41q0 32 20.5 52.5t53.5 20.5q32 0 54 -21.5t22 -60.5
q0 -15 -4.5 -36t-16.5 -42q15 -5 36 -5q26 0 46.5 8.5t34.5 30.5t21.5 59.5t7.5 96.5v406q0 19 -7 26.5t-17 7.5q-13 0 -29 -9.5t-32 -25.5q0 19 10.5 37t28 32.5t41 23t49.5 8.5q21 0 42 -6t37.5 -18.5t26.5 -31.5t10 -44v-406q0 -47 -16.5 -86t-49 -67.5t-79.5 -44.5
t-108 -16z" />
    <glyph glyph-name="c" unicode="c" horiz-adv-x="543" 
d="M314 515q49 0 83.5 -9.5t56.5 -25t32 -35.5t10 -41q0 -32 -20.5 -52.5t-53.5 -20.5q-32 0 -54 21.5t-22 60.5q0 15 4.5 35t16.5 41q-12 5 -27 5q-19 0 -41.5 -11t-41.5 -38t-32 -73.5t-13 -118.5t13 -118t33 -72.5t43 -37t44 -10.5q35 0 77 22.5t77 57.5
q0 -19 -10.5 -38.5t-33.5 -35.5t-58.5 -26t-85.5 -10q-129 0 -199 68.5t-70 196.5q0 125 69 195t203 70z" />
    <glyph glyph-name="e" unicode="e" horiz-adv-x="571" 
d="M319 -15q-67 0 -119.5 20t-88.5 56t-54.5 86t-18.5 110t18 107.5t53.5 81t87 51.5t117.5 18q29 0 66 -7.5t70 -24.5t55.5 -45t22.5 -69q0 -34 -16.5 -58.5t-43.5 -40.5t-61 -25t-69.5 -13.5t-69.5 -5.5t-60 -1q1 -66 6.5 -107.5t17.5 -64t32 -30.5t48 -8q52 0 107.5 20
t95.5 60q0 -19 -12.5 -38.5t-37 -35.5t-61 -26t-85.5 -10zM208 250q30 2 58 6.5t49.5 17.5t34.5 37t13 64q0 21 -4 42t-12.5 37t-21.5 26t-31 10t-33.5 -11.5t-27 -39.5t-18.5 -74t-7 -115z" />
    <glyph glyph-name="f" unicode="f" horiz-adv-x="488" 
d="M34 15q23 0 35 5t17.5 15t6.5 26.5t1 38.5v375h-60v25h60v1q0 47 16.5 86t49 67.5t79.5 44.5t108 16q48 0 82.5 -9.5t56.5 -25t32.5 -35.5t10.5 -41q0 -32 -20.5 -52.5t-53.5 -20.5q-32 0 -54 21.5t-22 60.5q0 15 4.5 36t16.5 42q-15 5 -36 5q-26 0 -46.5 -8.5
t-34.5 -30.5t-21.5 -59.5t-7.5 -96.5v-1h185v-25h-185v-375q0 -22 1 -38.5t6.5 -26.5t18 -15t34.5 -5v-15h-280v15z" />
    <glyph glyph-name="s" unicode="s" horiz-adv-x="560" 
d="M198 143q0 -29 -17 -60q-2 -4 -4 -8.5t-2 -10.5q0 -13 9 -22t23 -14.5t30 -8t30 -2.5q35 0 60 15t25 53q0 17 -5.5 30t-18.5 25t-33 24t-49 27q-53 27 -88.5 50t-56.5 44t-30 41.5t-9 43.5q0 32 15 58.5t43 46t67.5 30t88.5 10.5q44 0 84.5 -9t71 -27t48.5 -44.5
t18 -60.5q0 -36 -20 -58.5t-53 -22.5q-32 0 -54 20t-22 55q0 21 6.5 37t11.5 24q8 16 8 20q0 10 -20 25t-51 15q-32 0 -54.5 -19.5t-22.5 -49.5q0 -20 10 -36.5t24 -29t29.5 -21.5t26.5 -15q60 -31 98 -56.5t60 -46.5t30.5 -40t8.5 -39q0 -33 -19 -61t-52 -48t-77 -31
t-94 -11q-39 0 -79.5 8t-74 25.5t-54.5 46t-21 69.5q0 40 21 64.5t59 24.5t56.5 -23t18.5 -57z" />
    <glyph glyph-name="uniE000" unicode="&#xe000;" horiz-adv-x="548" 
d="M292 -15q-46 0 -83.5 9.5t-78.5 37.5q-13 8 -20 11.5t-12 3.5q-7 0 -12.5 -5.5t-9.5 -13.5t-6 -17t-2 -16h-25v170h30q10 -27 28.5 -54t44 -48.5t56.5 -34.5t65 -13q39 0 55 17t16 46q0 18 -6 32.5t-19.5 28.5t-36.5 28t-57 32q-48 24 -80.5 45.5t-52.5 42.5t-29 42.5
t-9 46.5q0 30 11.5 55t35 44t60 29.5t86.5 10.5q45 0 77 -10t64 -35q14 -11 20 -14t11 -3q14 0 25 14.5t11 37.5h25v-170h-30q-8 15 -23 41t-36 51t-47 43t-56 18q-29 0 -49 -19t-20 -48q0 -21 10 -37.5t24.5 -29t30 -22t26.5 -15.5q59 -31 97.5 -56t61 -47.5t31.5 -44
t9 -45.5q0 -30 -12 -55t-37.5 -44t-65.5 -29.5t-96 -10.5z" />
    <glyph glyph-name="uniE003" unicode="&#xe003;" horiz-adv-x="926" 
d="M107 -28q32 0 52.5 -22t20.5 -57q0 -18 -7 -32.5t-24 -33.5q23 -9 48.5 -12.5t60.5 -3.5q72 0 122.5 11.5t82.5 29t47 38t15 38.5q0 25 -29.5 41t-98.5 16h-192q-39 0 -68.5 9.5t-48.5 25.5t-28.5 36.5t-9.5 42.5t8 39.5t21.5 31t30.5 23.5t35 17q-38 23 -54 55t-16 70
q0 75 55.5 122.5t168.5 47.5q32 0 65 -5t62 -17q5 10 8.5 17.5t5.5 10.5q24 42 55.5 78t69.5 62.5t82 41t95 14.5q13 0 25 -3q25 -3 44 -20q18 -14 23 -30q8 -18 8 -34q0 -17 -7 -32.5t-18.5 -27t-27 -18.5t-32.5 -7t-32.5 7t-27 18.5t-18.5 27t-7 32.5t7 32t18 27
q-44 -6 -81 -24.5t-68 -45.5t-55.5 -62t-43.5 -75q31 -18 50.5 -48.5t19.5 -78.5q0 -75 -56 -122.5t-172 -47.5q-34 0 -63.5 5t-55.5 16q-14 -5 -30.5 -14t-16.5 -23q0 -5 3.5 -11t12.5 -11t24.5 -8.5t39.5 -3.5h192q75 0 121.5 -39t46.5 -110q0 -42 -18 -77t-54 -60.5
t-89.5 -39.5t-125.5 -14q-32 0 -73.5 4t-78.5 16.5t-62.5 35t-25.5 59.5q0 30 18.5 51t50.5 21zM469 -187q6 3 15 8t14 9q16 -13 32 -17.5t36 -4.5q27 0 47.5 8t34.5 29t21.5 58t7.5 96v406q0 19 -7 26.5t-17 7.5q-13 0 -29 -9.5t-32 -25.5q0 19 10.5 37t28 32.5t41 23
t49.5 8.5q21 0 42 -6t37.5 -18.5t26.5 -31.5t10 -44v-406q0 -57 -20 -98t-54 -66.5t-79.5 -37.5t-96.5 -12q-35 0 -66.5 6t-51.5 22zM225 340q0 -43 5.5 -70.5t15.5 -43t23 -21t28 -5.5t28 5.5t23 21t15.5 43t5.5 70.5t-5.5 70.5t-15.5 43t-23 21t-28 5.5t-28 -5.5t-23 -21
t-15.5 -43t-5.5 -70.5z" />
    <glyph glyph-name="uniE002" unicode="&#xe002;" horiz-adv-x="978" 
d="M808 705q17 0 32.5 -7t27 -18.5t18.5 -27t7 -32.5t-7 -32.5t-18.5 -27t-27 -18.5t-32.5 -7t-32.5 7t-27 18.5t-18.5 27t-7 32.5t7 32.5t18.5 27t27 18.5t32.5 7zM48 251q0 66 16 115.5t43 82.5t63.5 50t78.5 17q52 0 90.5 -24.5t61.5 -69.5q0 1 0.5 1.5t0.5 1.5
q5 12 14.5 26t23.5 26t32 20t39 8q15 0 32 -5v-600q0 -23 1 -39t6.5 -26t18 -15t34.5 -5v-15h-280v15q23 0 35 5t17.5 15t6.5 26t1 39v126q-8 -6 -15.5 -11t-15.5 -9q-15 -8 -37 -14t-52 -6q-47 0 -86.5 17t-68 50t-44.5 82.5t-16 115.5zM600 -141q0 25 15.5 40t38.5 15
t39.5 -14t16.5 -40q0 -3 -0.5 -11.5t-3 -16.5t-6.5 -14.5t-12 -6.5q13 0 21 7.5t12 28.5t5.5 57.5t1.5 94.5v406q0 19 -7 26.5t-17 7.5q-13 0 -29 -9.5t-32 -25.5q0 19 10.5 37t28 32.5t41 23t49.5 8.5q21 0 42 -6t37.5 -18.5t26.5 -31.5t10 -44v-406q0 -47 -3.5 -86
t-19 -67.5t-48 -44.5t-90.5 -16q-37 0 -61.5 6t-39 16.5t-20.5 24t-6 27.5zM218 247q0 -72 7 -116.5t18.5 -69.5t27 -34t32.5 -9q26 0 45 13t35 28v341q-6 14 -14.5 28t-19 25.5t-23.5 19t-29 7.5q-15 0 -29 -9t-25 -34.5t-18 -71t-7 -118.5z" />
    <glyph glyph-name="uniE01F" unicode="&#xe01f;" horiz-adv-x="926" 
d="M107 -28q32 0 52.5 -22t20.5 -57q0 -18 -7 -32.5t-24 -33.5q23 -9 48.5 -12.5t60.5 -3.5q72 0 122.5 11.5t82.5 29t47 38t15 38.5q0 25 -29.5 41t-98.5 16h-192q-39 0 -68.5 9.5t-48.5 25.5t-28.5 36.5t-9.5 42.5t8 39.5t21.5 31t30.5 23.5t35 17q-38 23 -54 55t-16 70
q0 75 55.5 122.5t168.5 47.5q32 0 65 -5t62 -17q5 10 8.5 17.5t5.5 10.5q24 42 55.5 78t69.5 62.5t82 41t95 14.5q13 0 25 -3q25 -3 44 -20q18 -14 23 -30q8 -18 8 -34q0 -17 -7 -32.5t-18.5 -27t-27 -18.5t-32.5 -7t-32.5 7t-27 18.5t-18.5 27t-7 32.5t7 32t18 27
q-44 -6 -81 -24.5t-68 -45.5t-55.5 -62t-43.5 -75q31 -18 50.5 -48.5t19.5 -78.5q0 -75 -56 -122.5t-172 -47.5q-34 0 -63.5 5t-55.5 16q-14 -5 -30.5 -14t-16.5 -23q0 -5 3.5 -11t12.5 -11t24.5 -8.5t39.5 -3.5h192q75 0 121.5 -39t46.5 -110q0 -42 -18 -77t-54 -60.5
t-89.5 -39.5t-125.5 -14q-32 0 -73.5 4t-78.5 16.5t-62.5 35t-25.5 59.5q0 30 18.5 51t50.5 21zM546 -141q0 25 15.5 40t38.5 15t39.5 -14t16.5 -40q0 -3 -0.5 -11.5t-3 -16.5t-6.5 -14.5t-12 -6.5q13 0 21 7.5t12 28.5t5.5 57.5t1.5 94.5v406q0 19 -7 26.5t-17 7.5
q-13 0 -29 -9.5t-32 -25.5q0 19 10.5 37t28 32.5t41 23t49.5 8.5q21 0 42 -6t37.5 -18.5t26.5 -31.5t10 -44v-406q0 -47 -3.5 -86t-19 -67.5t-48 -44.5t-90.5 -16q-37 0 -61.5 6t-39 16.5t-20.5 24t-6 27.5zM297 200q15 0 28 5.5t23 21t15.5 43t5.5 70.5t-5.5 70.5t-15.5 43
t-23 21t-28 5.5t-28 -5.5t-23 -21t-15.5 -43t-5.5 -70.5t5.5 -70.5t15.5 -43t23 -21t28 -5.5z" />
    <glyph glyph-name="uniE004" unicode="&#xe004;" horiz-adv-x="925" 
d="M107 -28q32 0 52.5 -22t20.5 -57q0 -18 -7 -32.5t-24 -33.5q23 -9 48.5 -12.5t60.5 -3.5q72 0 122.5 11.5t82.5 29t47 38t15 38.5q0 25 -29.5 41t-98.5 16h-192q-39 0 -68.5 9.5t-48.5 25.5t-28.5 36.5t-9.5 42.5t8 39.5t21.5 31t30.5 23.5t35 17q-38 23 -54 55t-16 70
q0 75 55.5 122.5t168.5 47.5q32 0 65 -5t62 -17q5 10 8.5 17.5t5.5 10.5q24 42 55.5 78t69.5 62.5t82 41t95 14.5q13 0 25 -3q25 -3 44 -20q18 -14 23 -30q8 -18 8 -34q0 -17 -7 -32.5t-18.5 -27t-27 -18.5t-32.5 -7t-32.5 7t-27 18.5t-18.5 27t-7 32.5t7 32t18 27
q-44 -6 -81 -24.5t-68 -45.5t-55.5 -62t-43.5 -75q31 -18 50.5 -48.5t19.5 -78.5q0 -75 -56 -122.5t-172 -47.5q-34 0 -63.5 5t-55.5 16q-14 -5 -30.5 -14t-16.5 -23q0 -5 3.5 -11t12.5 -11t24.5 -8.5t39.5 -3.5h192q75 0 121.5 -39t46.5 -110q0 -42 -18 -77t-54 -60.5
t-89.5 -39.5t-125.5 -14q-32 0 -73.5 4t-78.5 16.5t-62.5 35t-25.5 59.5q0 30 18.5 51t50.5 21zM593 404q0 19 10.5 37t28 32.5t41 23t49.5 8.5q21 0 42 -6t37.5 -18.5t26.5 -31.5t10 -44v-305q0 -22 1 -38.5t6.5 -26.5t18 -15t34.5 -5v-15h-280v15q23 0 35 5t17.5 15
t6.5 26.5t1 38.5v305q0 19 -7 26.5t-17 7.5q-13 0 -29 -9.5t-32 -25.5zM225 340q0 -43 5.5 -70.5t15.5 -43t23 -21t28 -5.5t28 5.5t23 21t15.5 43t5.5 70.5t-5.5 70.5t-15.5 43t-23 21t-28 5.5t-28 -5.5t-23 -21t-15.5 -43t-5.5 -70.5z" />
    <glyph glyph-name="uniE005" unicode="&#xe005;" horiz-adv-x="867" 
d="M13 604q0 19 10.5 37t28 32.5t41 23t49.5 8.5q21 0 42 -6t37.5 -18.5t26.5 -31.5t10 -44v-105h228v105q0 19 -7 26.5t-17 7.5q-13 0 -29 -9.5t-32 -25.5q0 19 10.5 37t28 32.5t41 23t49.5 8.5q21 0 42 -6t37.5 -18.5t26.5 -31.5t10 -44v-105h150v-25h-150v-345
q0 -13 1 -32.5t8 -37.5t22.5 -31t43.5 -13q36 0 72.5 22t71.5 57q0 -19 -9 -38.5t-30 -35.5t-55 -26t-84 -10q-90 0 -145.5 36t-55.5 109v345h-228v-345q0 -13 1 -32.5t8 -37.5t22.5 -31t43.5 -13q36 0 72.5 22t71.5 57q0 -19 -9 -38.5t-30 -35.5t-55 -26t-84 -10
q-90 0 -145.5 36t-55.5 109v345h-60v25h60v105q0 19 -7 26.5t-17 7.5q-13 0 -29 -9.5t-32 -25.5z" />
    <glyph glyph-name="g" unicode="g" horiz-adv-x="636" 
d="M40 -100q0 30 18.5 51t50.5 21t52.5 -22t20.5 -57q0 -18 -7 -32.5t-24 -33.5q23 -9 48.5 -12.5t60.5 -3.5q72 0 122.5 11.5t82.5 29t47 38t15 38.5q0 25 -29.5 41t-98.5 16h-192q-39 0 -68.5 9.5t-48.5 25.5t-28.5 36.5t-9.5 42.5t8 39.5t21.5 31t30.5 23.5t35 17
q-38 23 -54 55t-16 70q0 75 54.5 122.5t164.5 47.5q51 0 91.5 -10t63.5 -25q5 18 14.5 37t23.5 34t32.5 24.5t40.5 9.5q23 0 43.5 -13t20.5 -45q0 -17 -8 -29.5t-26 -12.5q-17 0 -27.5 11.5t-10.5 31.5q0 12 3 19.5t6 12.5q-12 -1 -24.5 -5t-24 -14.5t-22.5 -28.5t-20 -47
q26 -23 37.5 -52t11.5 -61q0 -73 -56 -120t-172 -47q-34 0 -63.5 5t-55.5 16q-14 -5 -30.5 -14t-16.5 -23q0 -5 3.5 -11t12.5 -11t24.5 -8.5t39.5 -3.5h192q75 0 121.5 -39t46.5 -110q0 -42 -18 -77t-54 -60.5t-89.5 -39.5t-125.5 -14q-32 0 -73.5 4t-78.5 16.5t-62.5 35
t-25.5 59.5zM227 340q0 -43 5.5 -70.5t15.5 -43t23 -21t28 -5.5t28 5.5t23 21t15.5 43t5.5 70.5t-5.5 70.5t-15.5 43t-23 21t-28 5.5t-28 -5.5t-23 -21t-15.5 -43t-5.5 -70.5z" />
    <glyph glyph-name="t" unicode="t" horiz-adv-x="479" 
d="M142 705q21 0 42 -6t37.5 -18.5t26.5 -31.5t10 -44v-105h150v-25h-150v-345q0 -13 1 -32.5t8 -37.5t22.5 -31t43.5 -13q36 0 72.5 22t71.5 57q0 -19 -9 -38.5t-30 -35.5t-55 -26t-84 -10q-90 0 -145.5 36t-55.5 109v345h-60v25h60v105q0 19 -7 26.5t-17 7.5
q-13 0 -29 -9.5t-32 -25.5q0 19 10.5 37t28 32.5t41 23t49.5 8.5z" />
    <glyph glyph-name="r" unicode="r" horiz-adv-x="555" 
d="M87 439q-13 0 -29 -9.5t-32 -25.5q0 19 10.5 37t28 32.5t41 23t49.5 8.5q36 0 68.5 -18t43.5 -53q26 33 62 51.5t76 18.5q25 0 46.5 -7.5t37.5 -20.5t25 -30.5t9 -37.5q0 -33 -23 -55t-58 -22q-20 0 -33.5 7.5t-22 19t-12 26.5t-3.5 30q0 20 5 38.5t11 26.5
q-14 0 -30.5 -8t-33 -21t-30.5 -28.5t-22 -30.5v-291q0 -22 1 -38.5t6.5 -26.5t18 -15t34.5 -5v-15h-280v15q23 0 35 5t17.5 15t6.5 26.5t1 38.5v305q0 19 -7 26.5t-17 7.5z" />
    <glyph glyph-name="k" unicode="k" horiz-adv-x="607" 
d="M7 604q0 19 10.5 37t28 32.5t41 23t49.5 8.5q21 0 42 -6t37.5 -18.5t26.5 -31.5t10 -44v-347l177 188q11 12 11 22q0 12 -17.5 14.5t-34.5 2.5v15h160v-15q-29 0 -47.5 -11t-34.5 -28l-102 -110l152 -239q22 -33 42 -33q12 0 24.5 9t25.5 22q0 -21 -11 -39.5t-29.5 -32
t-43 -21t-51.5 -7.5q-44 0 -74 22t-59 68l-88 139v-124q0 -22 1 -38.5t6.5 -26.5t18 -15t34.5 -5v-15h-280v15q23 0 35 5t17.5 15t6.5 26.5t1 38.5v505q0 19 -7 26.5t-17 7.5q-13 0 -29 -9.5t-32 -25.5z" />
    <glyph glyph-name="y" unicode="y" horiz-adv-x="561" 
d="M95 398q-10 20 -20.5 29t-22.5 9t-25.5 -8.5t-27.5 -22.5q0 21 11 39.5t30 32t43.5 21t52.5 7.5q43 0 72 -21t51 -69l105 -228l103 264q4 9 4 16q0 6 -6 10t-14.5 5.5t-18.5 2t-18 0.5h-8v15h160v-15q-34 0 -47.5 -6.5t-21.5 -27.5l-199 -511q-17 -45 -34 -74.5
t-35.5 -47.5t-38.5 -25.5t-43 -7.5q-48 0 -76 25t-28 65q0 41 25 60.5t55 19.5q34 0 52.5 -21t18.5 -51q0 -17 -6 -34t-20 -34q28 5 51.5 34t48.5 91l18 45z" />
    <glyph glyph-name="z" unicode="z" horiz-adv-x="575" 
d="M159 475q-27 0 -41 -12t-21 -31t-8 -43.5t-1 -48.5h-25v160h459v-25l-285 -450h185q26 0 41.5 12t23 31t9.5 43.5t2 48.5h25v-160h-470v25l285 450h-179z" />
    <glyph glyph-name="u" unicode="u" 
d="M81 439q-11 0 -27 -9.5t-32 -25.5q0 19 10.5 37t27.5 32.5t40.5 23t48.5 8.5q22 0 43.5 -7t38 -20.5t26.5 -33t10 -44.5v-250q0 -34 7 -58.5t18 -40.5t25 -23.5t28 -7.5q16 0 29.5 7.5t24.5 19.5t19.5 26.5t13.5 27.5v299q0 19 -7.5 29t-18.5 10t-27 -9.5t-32 -25.5
q0 19 10.5 37t27.5 32.5t40.5 23t48.5 8.5q22 0 43.5 -7t38 -20.5t26.5 -33t10 -44.5v-305q0 -19 7 -26.5t17 -7.5q13 0 29 9.5t32 25.5q0 -19 -10.5 -37t-28 -32.5t-41 -23t-49.5 -8.5q-35 0 -66 16t-43 48q-25 -38 -61 -56t-81 -18q-41 0 -76 14t-60.5 37t-39.5 53t-14 61
v250q0 19 -7.5 29t-18.5 10z" />
    <glyph glyph-name="d" unicode="d" horiz-adv-x="650" 
d="M47 250q0 66 16 115.5t44.5 82.5t68 50t86.5 17q30 0 52 -6t37 -14q8 -4 15.5 -9t15.5 -11v130q0 19 -7 26.5t-17 7.5q-13 0 -29 -9.5t-32 -25.5q0 19 10.5 37t28 32.5t41 23t49.5 8.5q21 0 42 -6t37.5 -18.5t26.5 -31.5t10 -44v-505q0 -19 7.5 -29t18.5 -10t27 9.5
t32 25.5q0 -19 -10 -37t-26.5 -32.5t-37.5 -23t-43 -8.5q-21 0 -39 8t-32 20t-23.5 26t-14.5 26q-1 1 -1 2t-1 2q-22 -45 -60.5 -69.5t-90.5 -24.5q-42 0 -78.5 17t-63.5 50t-43 82.5t-16 115.5zM217 254q0 -73 7 -118.5t18 -71t25 -34.5t29 -9q16 0 29 7.5t23.5 19t19 26
t14.5 27.5v341q-16 15 -35 28t-45 13q-17 0 -32.5 -9t-27 -34t-18.5 -69.5t-7 -116.5z" />
    <glyph glyph-name="b" unicode="b" horiz-adv-x="640" 
d="M134 706q21 0 42 -6t37.5 -18.5t26.5 -31.5t10 -44v-131q8 6 15.5 11t15.5 9q15 8 37 14t52 6q47 0 86.5 -17t68 -50t44.5 -82.5t16 -115.5t-16 -115.5t-43 -82.5t-63.5 -50t-78.5 -17q-52 0 -90.5 24.5t-60.5 69.5q-1 -1 -1 -2t-1 -2q-4 -12 -14 -26t-24 -26t-32 -20
t-39 -8q-15 0 -32 5v606q0 19 -7 26.5t-17 7.5q-13 0 -29 -9.5t-32 -25.5q0 19 10.5 37t28 32.5t41 23t49.5 8.5zM250 442v-341q6 -13 14.5 -27.5t19 -26t23.5 -19t29 -7.5q15 0 29 9t25 34.5t18 71t7 118.5q0 72 -7 116.5t-18.5 69.5t-27 34t-32.5 9q-26 0 -45 -13t-35 -28
z" />
    <glyph glyph-name="p" unicode="p" horiz-adv-x="662" 
d="M30 404q0 19 10 37t26.5 32.5t37.5 23t43 8.5q21 0 39 -8t32 -20t24 -26t14 -26q1 -1 1 -2t1 -2q22 45 60.5 69.5t89.5 24.5q41 0 78 -17t64.5 -51t43.5 -83.5t16 -115.5q0 -65 -16 -114t-44.5 -82t-68 -50t-86.5 -17q-30 0 -52 6t-37 14q-8 4 -15.5 9t-15.5 11v-125
q0 -23 1 -39t6.5 -26t18 -15t34.5 -5v-15h-280v15q23 0 35 5t17.5 15t6.5 26t1 39v500q0 19 -7.5 29t-18.5 10t-27 -9.5t-32 -25.5zM275 58q16 -15 35 -28t45 -13q17 0 32.5 9t27 34t18.5 69.5t7 116.5q0 73 -7 118.5t-18 71t-25 34.5t-29 9q-16 0 -29 -7.5t-23.5 -19
t-19 -25.5t-14.5 -28v-341z" />
    <glyph glyph-name="q" unicode="q" horiz-adv-x="633" 
d="M249 516q52 0 90.5 -24.5t61.5 -69.5q0 1 0.5 1.5t0.5 1.5q5 12 14.5 26t23.5 26t32 20t39 8q15 0 32 -5v-600q0 -23 1 -39t6.5 -26t18 -15t34.5 -5v-15h-280v15q23 0 35 5t17.5 15t6.5 26t1 39v126q-8 -6 -15.5 -11t-15.5 -9q-15 -8 -37 -14t-52 -6q-47 0 -86.5 17
t-68 50t-44.5 82.5t-16 115.5t16 115.5t43 82.5t63.5 50t78.5 17zM218 247q0 -72 7 -116.5t18.5 -69.5t27 -34t32.5 -9q26 0 45 13t35 28v341q-6 14 -14.5 28t-19 25.5t-23.5 19t-29 7.5q-15 0 -29 -9t-25 -34.5t-18 -71t-7 -118.5z" />
    <glyph glyph-name="v" unicode="v" horiz-adv-x="560" 
d="M95 398q-17 38 -43 38q-12 0 -25.5 -8.5t-27.5 -22.5q0 21 11 39.5t30 32t43.5 21t52.5 7.5q43 0 73 -21t50 -69l93 -228l115 264q4 9 4 16q0 6 -6 10t-14.5 5.5t-18.5 2t-18 0.5h-8v15h160v-15q-34 0 -47 -6.5t-22 -27.5l-198 -456h-25z" />
    <glyph glyph-name="w" unicode="w" horiz-adv-x="855" 
d="M136 505q43 0 74 -21t49 -69l85 -230l69 149l-25 64q-8 20 -19.5 29t-23.5 9t-25.5 -8.5t-27.5 -22.5q0 21 11 39.5t30 32t43.5 21t52.5 7.5q43 0 74 -21t49 -69l87 -230l125 266q4 9 4 16q0 6 -6 10t-14.5 5.5t-18 2t-17.5 0.5h-8v15h160v-15q-34 0 -46.5 -6.5
t-22.5 -27.5l-214 -456h-25l-128 305l-140 -305h-25l-168 403q-8 20 -19.5 29t-23.5 9t-25.5 -8.5t-27.5 -22.5q0 21 11 39.5t30 32t43.5 21t52.5 7.5z" />
    <glyph glyph-name="x" unicode="x" horiz-adv-x="592" 
d="M11 405q0 18 10 36t28 32.5t44 23t59 8.5q40 0 69.5 -15t49.5 -48l74 -119l108 139q3 4 3.5 6.5t0.5 4.5q0 5 -6 7t-14.5 3.5t-17.5 1.5h-26v15h160v-15q-34 0 -46.5 -7t-20.5 -18l-126 -162l136 -219q5 -7 13.5 -11t16.5 -4q15 0 30 12t22 19q0 -17 -8.5 -34.5t-26 -32
t-43 -24t-59.5 -9.5q-32 0 -60 12t-49 46l-81 131l-114 -146q-3 -4 -3 -7q0 -6 6.5 -9t15.5 -4.5t18 -2t14 -0.5h8v-15h-160v15q34 0 47 7t21 18l131 169l-128 206q-9 14 -21 17.5t-17 3.5q-14 0 -30 -9.5t-28 -21.5z" />
    <glyph glyph-name="comma" unicode="," horiz-adv-x="236" 
d="M65 -105q38 13 62.5 42.5t32.5 67.5q-11 -7 -20.5 -11t-22.5 -4q-32 0 -54.5 22t-22.5 52q0 15 6 29t16.5 24.5t25 16.5t30.5 6q32 0 54.5 -25t22.5 -75q0 -27 -8 -53t-23 -48.5t-37.5 -40.5t-51.5 -28z" />
    <glyph glyph-name="period" unicode="." horiz-adv-x="232" 
d="M191 65q0 -30 -22.5 -52.5t-52.5 -22.5t-52.5 22.5t-22.5 52.5t22.5 52.5t52.5 22.5t52.5 -22.5t22.5 -52.5z" />
    <glyph glyph-name="A" unicode="A" horiz-adv-x="667" 
d="M122 15v-15h-160v15q24 0 42.5 10t22.5 20l272 660h30l260 -620q5 -12 12.5 -16.5t15.5 -4.5q15 0 31.5 10.5t26.5 20.5q0 -22 -11 -40.5t-29.5 -31.5t-42.5 -20.5t-51 -7.5q-28 0 -49 7.5t-36 20.5t-25.5 29t-17.5 33l-51 120h-239l-66 -160q-2 -6 -2 -9q0 -14 21 -17.5
t46 -3.5zM133 230h219l-110 263z" />
    <glyph glyph-name="B" unicode="B" horiz-adv-x="678" 
d="M42 0v15q23 0 35 5t17.5 15t6.5 26.5t1 38.5v500q0 23 -1 39t-6.5 26t-17.5 15t-35 5v15h270q81 0 137 -14t91 -38t51 -55.5t16 -67.5q0 -43 -19.5 -73t-50.5 -48t-69 -26t-76 -8q38 0 81.5 -9.5t81 -32t62.5 -58t25 -88.5q0 -38 -16 -71.5t-52.5 -58t-96 -38.5
t-145.5 -14h-290zM312 380q24 0 47 11t40 30.5t27.5 46.5t10.5 60t-10.5 60t-27.5 46.5t-40 30t-47 10.5h-45v-295h45zM332 25q60 0 100 43t40 122t-40 122t-100 43h-65v-330h65z" />
    <glyph glyph-name="C" unicode="C" horiz-adv-x="630" 
d="M365 715q38 0 78 -7.5t73 -26.5t54 -50t21 -79q0 -37 -27.5 -64t-71.5 -27t-69 31.5t-25 96.5q0 11 2.5 24.5t5.5 25.5t6.5 21.5t5.5 13.5q2 2 2 5q0 6 -12.5 8.5t-25.5 2.5q-32 0 -61.5 -16.5t-52.5 -56t-36.5 -104.5t-13.5 -163q0 -97 14 -162.5t38 -105t56.5 -56
t68.5 -16.5q39 0 73 15t60.5 35.5t44 42t23.5 33.5q0 -28 -15 -55t-42.5 -48.5t-67 -34.5t-88.5 -13q-79 0 -142 24t-107 70.5t-67.5 114.5t-23.5 156t23 156t65.5 114.5t102 70.5t131.5 24z" />
    <glyph glyph-name="E" unicode="E" horiz-adv-x="650" 
d="M42 15q23 0 35 5t17.5 15t6.5 26.5t1 38.5v500q0 23 -1 39t-6.5 26t-17.5 15t-35 5v15h535v-160h-30q0 24 -1 48.5t-7 43.5t-19.5 31t-37.5 12h-215v-315h115q17 0 26 9.5t13.5 24t5 32t0.5 34.5h30v-225h-30q0 17 -0.5 34.5t-5 32t-13.5 24t-26 9.5h-115v-310h235
q24 0 37.5 12t19.5 31t7 43.5t1 48.5h30v-160h-555v15z" />
    <glyph glyph-name="D" unicode="D" horiz-adv-x="716" 
d="M42 0v15q23 0 35 5t17.5 15t6.5 26.5t1 38.5v500q0 23 -1 39t-6.5 26t-17.5 15t-35 5v15h255q180 0 275 -92.5t95 -257.5t-95 -257.5t-275 -92.5h-255zM297 25q43 0 79 16.5t61.5 54.5t40 100.5t14.5 153.5q0 92 -14.5 154t-40 100t-61.5 54.5t-79 16.5h-30v-650h30z" />
    <glyph glyph-name="F" unicode="F" horiz-adv-x="592" 
d="M42 0v15q23 0 35 5t17.5 15t6.5 26.5t1 38.5v500q0 23 -1 39t-6.5 26t-17.5 15t-35 5v15h535v-160h-30q0 24 -1 48.5t-7 43.5t-19.5 31t-37.5 12h-215v-315h115q17 0 26 9.5t13.5 24t5 32t0.5 34.5h30v-225h-30q0 17 -0.5 34.5t-5 32t-13.5 24t-26 9.5h-115v-235
q0 -22 1 -38.5t6.5 -26.5t18 -15t34.5 -5v-15h-285z" />
    <glyph glyph-name="G" unicode="G" horiz-adv-x="735" 
d="M355 20q20 0 35.5 7.5t27 19t20.5 25.5t15 28v220q0 6 -7.5 9t-17 4.5t-19.5 1.5h-16v25h285v-25h-16t-19.5 -1.5t-17 -4.5t-7.5 -9v-220q0 -21 10.5 -30t25.5 -9q17 0 37.5 9.5t35.5 24.5q0 -21 -11 -39.5t-30 -32t-42.5 -21t-49.5 -7.5q-18 0 -37.5 4.5t-36.5 14
t-31 24.5t-21 37q-22 -42 -60.5 -66t-93.5 -24q-53 0 -102 24t-86.5 70.5t-60 114.5t-22.5 156t23 156t65 114.5t100 70.5t128 24q42 0 83.5 -7.5t73.5 -26.5t52 -51t20 -82q0 -13 -6 -28t-18 -28t-30.5 -22t-43.5 -9q-47 0 -70.5 31.5t-23.5 81.5q0 35 8.5 65t13.5 42v1
t-3 2.5t-8 3t-10.5 2.5t-9.5 1q-40 0 -68 -18t-47 -47.5t-29.5 -67t-16 -76t-7 -75.5t-1.5 -65q0 -94 12 -156.5t31.5 -99t44 -51.5t49.5 -15z" />
    <glyph glyph-name="H" unicode="H" horiz-adv-x="747" 
d="M42 15q23 0 35 5t17.5 15t6.5 26.5t1 38.5v500q0 23 -1 39t-6.5 26t-17.5 15t-35 5v15h285v-15q-22 0 -34.5 -5t-18 -15t-6.5 -26t-1 -39v-240h215v240q0 23 -1 39t-6.5 26t-17.5 15t-35 5v15h285v-15q-22 0 -34.5 -5t-18 -15t-6.5 -26t-1 -39v-500q0 -22 1 -38.5
t6.5 -26.5t18 -15t34.5 -5v-15h-285v15q23 0 35 5t17.5 15t6.5 26.5t1 38.5v235h-215v-235q0 -22 1 -38.5t6.5 -26.5t18 -15t34.5 -5v-15h-285v15z" />
    <glyph glyph-name="I" unicode="I" horiz-adv-x="367" 
d="M42 15q23 0 35 5t17.5 15t6.5 26.5t1 38.5v500q0 23 -1 39t-6.5 26t-17.5 15t-35 5v15h285v-15q-22 0 -34.5 -5t-18 -15t-6.5 -26t-1 -39v-500q0 -22 1 -38.5t6.5 -26.5t18 -15t34.5 -5v-15h-285v15z" />
    <glyph glyph-name="J" unicode="J" horiz-adv-x="548" 
d="M81 200q21 0 36.5 -8.5t26 -22t16 -31t5.5 -34.5q0 -11 -2 -23.5t-5 -24.5t-6.5 -21.5t-5.5 -15.5v-1q0 -3 12 -5.5t24 -2.5q27 0 49 14.5t37 40t23 60.5t8 77v398q0 23 -1 39t-6.5 26t-17.5 15t-35 5v15h285v-15q-22 0 -34.5 -5t-18 -15t-6.5 -26t-1 -39v-400
q0 -56 -26.5 -96.5t-68 -67t-92 -39t-98.5 -12.5q-29 0 -60.5 5.5t-58 19t-43.5 36.5t-17 58q0 18 5 35t15 30.5t25 22t36 8.5z" />
    <glyph glyph-name="K" unicode="K" horiz-adv-x="691" 
d="M42 685v15h285v-15q-22 0 -34.5 -5t-18 -15t-6.5 -26t-1 -39v-244l245 299q11 11 11 17q0 9 -22 11t-64 2v15h190v-15q-15 0 -25.5 -1t-19.5 -4t-17 -9t-18 -16l-175 -215l191 -290q27 -42 48.5 -59t39.5 -17q20 0 41 21q0 -22 -12 -40.5t-31.5 -32t-43.5 -20.5t-49 -7
q-26 0 -46.5 7.5t-37.5 20t-30.5 29t-24.5 33.5l-150 230v-215q0 -22 1 -38.5t6.5 -26.5t18 -15t34.5 -5v-15h-285v15q23 0 35 5t17.5 15t6.5 26.5t1 38.5v500q0 23 -1 39t-6.5 26t-17.5 15t-35 5z" />
    <glyph glyph-name="L" unicode="L" horiz-adv-x="609" 
d="M42 15q23 0 35 4.5t17.5 15t6.5 26.5t1 39v500q0 23 -1 39t-6.5 26t-17.5 15t-35 5v15h285v-15q-22 0 -34.5 -5t-18 -15t-6.5 -26t-1 -39v-575h215q24 0 37.5 12t19.5 31t7 43.5t1 48.5h30v-160h-535v15z" />
    <glyph glyph-name="O" unicode="O" horiz-adv-x="753" 
d="M703 350q0 -88 -24 -156t-67.5 -114.5t-104.5 -70.5t-134 -24t-134 24t-104.5 70.5t-67.5 114.5t-24 156t24 156t67.5 114.5t104.5 70.5t134 24t134 -24t104.5 -70.5t67.5 -114.5t24 -156zM528 350q0 99 -14.5 164.5t-37 104.5t-50 55t-53.5 16t-53.5 -16t-50 -55
t-37 -104.5t-14.5 -164.5t14.5 -164.5t37 -104.5t50 -55t53.5 -16t53.5 16t50 55t37 104.5t14.5 164.5z" />
    <glyph glyph-name="M" unicode="M" horiz-adv-x="977" 
d="M32 0v15q30 0 46.5 4.5t24 15.5t8.5 30.5t1 49.5v489q0 11 -7.5 17t-18.5 6t-22.5 -6t-21.5 -16q0 26 13 44.5t32.5 31t43 18.5t44.5 6q27 0 48 -9t37.5 -23.5t28.5 -32.5t21 -37l201 -414l188 426q9 21 19 36.5t25 26.5t36.5 16.5t52.5 5.5h105v-15q-22 0 -34.5 -5
t-18 -15t-6.5 -26t-1 -39v-500q0 -22 1 -38.5t6.5 -26.5t18 -15t34.5 -5v-15h-285v15q23 0 35 5t17.5 15t6.5 26.5t1 38.5v475l-256 -580h-30l-284 580v-460q0 -30 1.5 -49.5t9 -30.5t23.5 -15.5t46 -4.5v-15h-190z" />
    <glyph glyph-name="N" unicode="N" horiz-adv-x="697" 
d="M34 15q30 0 46.5 2t24 10.5t8.5 25.5t1 47v474q-15 17 -29.5 28t-27.5 11q-3 0 -7 -1t-8 -5q0 44 26 71t74 27q27 0 50 -9t41 -22t31.5 -28t21.5 -26l277 -365v345q0 30 -1 47t-8.5 25.5t-24 10.5t-46.5 2v15h190v-15q-30 0 -46 -2t-23.5 -10.5t-9 -25.5t-1.5 -47v-615
h-30l-413 545l-2 2l-2 4l-2 2v-438q0 -30 1.5 -47t9 -25.5t23.5 -10.5t46 -2v-15h-190v15z" />
    <glyph glyph-name="Q" unicode="Q" horiz-adv-x="751" 
d="M702 350q0 -75 -18 -135.5t-50.5 -105.5t-78.5 -73.5t-103 -40.5q0 -41 6.5 -71.5t16.5 -50t22.5 -29t23.5 -9.5q12 0 26 10q-10 -18 -27.5 -29t-47.5 -11q-36 0 -69 16.5t-57.5 43t-39 60.5t-14.5 70q-57 12 -103 40.5t-78.5 73.5t-50.5 105.5t-18 135.5q0 88 24 156
t67.5 114.5t104.5 70.5t134 24t134 -24t104.5 -70.5t67.5 -114.5t24 -156zM527 350q0 99 -14.5 164t-37 103t-50 53t-53.5 15t-53.5 -15t-50 -53t-37 -103t-14.5 -164t14.5 -164.5t37 -104.5t50 -55t53.5 -16t53.5 16t50 55t37 104.5t14.5 164.5z" />
    <glyph glyph-name="P" unicode="P" horiz-adv-x="672" 
d="M42 0v15q23 0 35 5t17.5 15t6.5 26.5t1 38.5v500q0 23 -1 39t-6.5 26t-17.5 15t-35 5v15h280q86 0 145.5 -14.5t96 -42.5t52.5 -67.5t16 -90.5t-16 -90.5t-52.5 -67.5t-96 -42.5t-145.5 -14.5h-55v-170q0 -22 1 -38.5t6.5 -26.5t18 -15t34.5 -5v-15h-285zM322 295
q60 0 100 46.5t40 143.5t-40 143.5t-100 46.5h-55v-380h55z" />
    <glyph glyph-name="R" unicode="R" horiz-adv-x="693" 
d="M42 700h280q65 0 117.5 -12t89.5 -34t56.5 -54t19.5 -73q0 -66 -50 -108.5t-140 -56.5q26 -12 42 -34.5t39 -60.5q25 -43 47 -78.5t41.5 -61t36 -39.5t31.5 -14q16 0 37 21q0 -31 -13.5 -52t-34 -34t-43.5 -18.5t-43 -5.5q-35 0 -63 16.5t-53 49t-49 81t-51 111.5
q-17 40 -30 66.5t-26 45.5h-16v-255q0 -22 1 -38.5t6.5 -26.5t18 -15t34.5 -5v-15h-285v15q23 0 35 5t17.5 15t6.5 26.5t1 38.5v500q0 23 -1 39t-6.5 26t-17.5 15t-35 5v15zM322 380q12 0 31.5 8.5t37.5 26t31 45.5t13 67t-13 67t-31 46t-37.5 26.5t-31.5 8.5h-55v-295h55z
" />
    <glyph glyph-name="S" unicode="S" horiz-adv-x="615" 
d="M294 10q62 0 97.5 33t35.5 85q0 22 -8 41t-29 39.5t-58 45t-95 57.5q-22 13 -51 31.5t-54 45t-42.5 62t-17.5 81.5q0 39 14 72.5t43.5 58.5t75.5 39t110 14q44 0 84 -7.5t71.5 -23.5t50 -41.5t18.5 -62.5q0 -24 -8 -42t-20.5 -30.5t-28 -18.5t-31.5 -6q-13 0 -28.5 5
t-28.5 16.5t-21.5 30.5t-8.5 47q0 51 34 92q0 3 -5.5 5t-14.5 4t-19.5 3t-19.5 1q-50 0 -82 -28.5t-32 -75.5q0 -30 13.5 -54t32.5 -43t41 -32.5t38 -22.5q52 -29 94 -55t71 -54t45 -60t16 -73q0 -50 -23 -88t-60.5 -64t-85.5 -39t-98 -13q-43 0 -88.5 9.5t-83 29t-62 48.5
t-24.5 68q0 17 5 34t15 30.5t25 22t35 8.5q15 0 31.5 -5.5t31 -17t23.5 -29.5t9 -44q0 -20 -7.5 -45t-25.5 -43q-4 -4 -4 -7q0 -7 10 -13t25 -10.5t33.5 -7.5t36.5 -3z" />
    <glyph glyph-name="U" unicode="U" horiz-adv-x="710" 
d="M315 700v-15q-22 0 -34.5 -2.5t-18 -10t-6.5 -21t-1 -36.5v-365q0 -67 10.5 -113t29.5 -74.5t45.5 -40.5t57.5 -12q38 0 73 16.5t61.5 47.5t42 75.5t15.5 100.5v350q0 30 -1 47t-8.5 25.5t-24 10.5t-46.5 2v15h190v-15q-30 0 -46 -2t-23.5 -10.5t-9 -25.5t-1.5 -47v-350
q0 -125 -69.5 -195t-194.5 -70q-62 0 -111.5 18t-84 52.5t-52.5 83.5t-18 111v365q0 23 -1 36.5t-6.5 21t-17.5 10t-35 2.5v15h285z" />
    <glyph glyph-name="T" unicode="T" horiz-adv-x="619" 
d="M38 700h585v-160h-30q0 24 -1 48.5t-7 43.5t-19.5 31t-37.5 12h-115v-575q0 -22 1 -38.5t6.5 -26.5t18 -15t34.5 -5v-15h-285v15q23 0 35 5t17.5 15t6.5 26.5t1 38.5v575h-115q-24 0 -37.5 -12t-19.5 -31t-7 -43.5t-1 -48.5h-30v160z" />
    <glyph glyph-name="V" unicode="V" horiz-adv-x="686" 
d="M611 655q3 8 3 13q0 13 -18 15t-60 2v15h185v-15q-34 0 -53.5 -6t-26.5 -24l-245 -660h-30l-275 620q-9 19 -31 19q-26 0 -55 -29q0 26 12.5 45t32 31t43.5 18t48 6q28 0 49 -7.5t36.5 -20.5t26.5 -29t18 -33l177 -403z" />
    <glyph glyph-name="W" unicode="W" horiz-adv-x="1008" 
d="M5 605q0 27 12.5 46t32 31t43.5 17.5t46 5.5q29 0 50 -8t37 -20.5t26.5 -28.5t16.5 -33l151 -385l88 258l-50 127q-7 19 -30 19q-13 0 -28.5 -7.5t-29.5 -21.5q0 27 12.5 46t32 31t43.5 17.5t46 5.5q29 0 50 -8t37 -20.5t26.5 -28.5t16.5 -33l151 -385l144 425q3 9 3 14
q0 11 -16.5 13.5t-61.5 2.5v15h185v-15q-38 0 -55.5 -5.5t-24.5 -24.5l-225 -660h-30l-180 452l-155 -452h-30l-246 620q-7 19 -30 19q-13 0 -28.5 -7.5t-29.5 -21.5z" />
    <glyph glyph-name="X" unicode="X" horiz-adv-x="694" 
d="M12 605q0 30 14 49.5t35 30.5t45 15.5t44 4.5q56 0 87.5 -25.5t54.5 -64.5l96 -164l139 204q3 6 3 10q0 11 -20 15.5t-58 4.5v15h190v-15q-19 0 -31.5 -1t-21 -4t-15 -9t-12.5 -16l-157 -231l200 -339q9 -14 29 -14q13 0 27.5 6.5t25.5 17.5q0 -30 -14 -49.5t-35 -30.5
t-45 -15.5t-44 -4.5q-56 0 -87.5 25.5t-54.5 64.5l-108 183l-152 -223q-3 -6 -3 -10q0 -11 20 -15.5t58 -4.5v-15h-190v15q19 0 31.5 1t21 4t15 9t12.5 16l170 251l-188 319q-9 14 -29 14q-13 0 -27.5 -6.5t-25.5 -17.5z" />
    <glyph glyph-name="Y" unicode="Y" horiz-adv-x="639" 
d="M9 607q0 32 13 51t30 29.5t35.5 14t28.5 3.5q61 0 97.5 -26t55.5 -64l148 -295l152 335q3 6 3 11q0 14 -21.5 16.5t-56.5 2.5v15h190v-15q-21 0 -34 -0.5t-21.5 -3.5t-14 -9t-10.5 -17l-175 -385v-170q0 -22 1 -38.5t6.5 -26.5t18 -15t34.5 -5v-15h-285v15q23 0 35 5
t17.5 15t6.5 26.5t1 38.5v160l-177 355q-9 18 -28 18q-24 0 -50 -26z" />
    <glyph glyph-name="Z" unicode="Z" horiz-adv-x="658" 
d="M516 25q24 0 37.5 15t19.5 38t7 50t1 52h30v-180h-560v25l369 650h-259q-24 0 -37.5 -15t-19.5 -38t-7 -50.5t-1 -51.5h-30v180h540v-25l-372 -650h282z" />
    <glyph glyph-name="uniE020" unicode="&#xe020;" horiz-adv-x="718" 
d="M151 505q17 0 34 -4t31 -12t24.5 -19.5t14.5 -26.5q0 -1 0.5 -1t0.5 -1q13 40 39 87t62 87.5t79.5 67.5t89.5 27q19 0 38.5 -5.5t35.5 -16t26 -27t10 -38.5q0 -18 -7 -34t-18.5 -28t-27 -19t-32.5 -7t-32.5 7t-27 18.5t-18.5 27t-7 32.5q0 36 27 60q-39 -11 -75.5 -44.5
t-66.5 -75t-50.5 -85t-26.5 -74.5q-2 -8 -3 -11v-290q0 -22 1 -38.5t6.5 -26.5t18 -15t34.5 -5v-15h-280v15q23 0 35 5t17.5 15t6.5 26.5t1 38.5v305q0 19 -7 26.5t-17 7.5q-13 0 -29 -9.5t-32 -25.5q0 19 10.5 37t27.5 32.5t39.5 23t47.5 8.5zM515 505q21 0 42 -6
t37.5 -18.5t26.5 -31.5t10 -44v-305q0 -22 1 -38.5t6.5 -26.5t18 -15t34.5 -5v-15h-280v15q23 0 35 5t17.5 15t6.5 26.5t1 38.5v305q0 19 -7 26.5t-17 7.5q-13 0 -29 -9.5t-32 -25.5q0 19 10.5 37t28 32.5t41 23t49.5 8.5z" />
    <glyph glyph-name="uniE007" unicode="&#xe007;" horiz-adv-x="597" 
d="M38 -100q0 30 18.5 51t50.5 21t52.5 -22t20.5 -57q0 -17 -6.5 -31.5t-23.5 -33.5q24 -8 45.5 -11t38.5 -3q42 0 66 12t36 29t15 36t3 33q0 32 -11 53t-46 41q-23 13 -34 28t-13 44q-38 2 -74.5 13.5t-65 35.5t-45.5 61.5t-17 92.5q0 47 14 85.5t41.5 67t69.5 44t99 15.5
q45 0 83 -10.5t67 -32.5q6 22 15.5 42.5t23 36t32 25t40.5 9.5q23 0 43.5 -13t20.5 -45q0 -17 -8 -29.5t-26 -12.5q-17 0 -27.5 11.5t-10.5 31.5q0 12 3 19.5t6 12.5q-12 -1 -24.5 -5t-24 -15.5t-22.5 -32.5t-20 -54q23 -25 36 -60t13 -81q0 -43 -12 -80t-35.5 -64.5
t-59 -45t-83.5 -22.5q2 -16 17 -21t25 -7q28 -4 56.5 -13t51.5 -24t37.5 -36t14.5 -49q0 -32 -19.5 -60t-52.5 -49t-77.5 -33.5t-94.5 -12.5q-24 0 -61.5 4t-73.5 16.5t-61.5 35t-25.5 59.5zM270 114q15 0 28 7.5t23 27.5t15.5 55.5t5.5 91.5q0 57 -5.5 92.5t-15.5 56
t-23 28t-28 7.5t-28 -7.5t-23 -28t-15.5 -56t-5.5 -92.5q0 -56 5.5 -91.5t15.5 -55.5t23 -27.5t28 -7.5z" />
    <glyph glyph-name="uniE008" unicode="&#xe008;" horiz-adv-x="885" 
d="M38 -100q0 30 18.5 51t50.5 21t52.5 -22t20.5 -57q0 -17 -6.5 -31.5t-23.5 -33.5q24 -8 45.5 -11t38.5 -3q42 0 66 12t36 29t15 36t3 33q0 32 -11 53t-46 41q-23 13 -34 28t-13 44q-38 2 -74.5 13.5t-65 35.5t-45.5 61.5t-17 92.5q0 47 14 85.5t41.5 67t69.5 44t99 15.5
q82 0 137 -34q18 49 45.5 92t64 75t82.5 50.5t101 18.5q19 0 37 -5.5t32.5 -17t23 -27.5t8.5 -37q0 -17 -7 -32.5t-18.5 -27t-27 -18.5t-32.5 -7t-32.5 7t-27 18.5t-18.5 27t-7 32.5t7 32t18 27q-45 -6 -80.5 -25t-63 -47.5t-48.5 -65.5t-38 -79l-1 -4q31 -25 48 -63.5
t17 -92.5q0 -43 -12 -80t-35.5 -64.5t-59 -45t-83.5 -22.5q2 -16 17 -21t25 -7q28 -4 56.5 -13t51.5 -24t37.5 -36t14.5 -49q0 -32 -19.5 -60t-52.5 -49t-77.5 -33.5t-94.5 -12.5q-24 0 -61.5 4t-73.5 16.5t-61.5 35t-25.5 59.5zM682 505q21 0 42 -6t37.5 -18.5t26.5 -31.5
t10 -44v-305q0 -22 1 -38.5t6.5 -26.5t18 -15t34.5 -5v-15h-280v15q23 0 35 5t17.5 15t6.5 26.5t1 38.5v305q0 19 -7 26.5t-17 7.5q-13 0 -29 -9.5t-32 -25.5q0 19 10.5 37t28 32.5t41 23t49.5 8.5zM198 296q0 -56 5.5 -91.5t15.5 -55.5t23 -27.5t28 -7.5t28 7.5t23 27.5
t15.5 55.5t5.5 91.5q0 57 -5.5 92.5t-15.5 56t-23 28t-28 7.5t-28 -7.5t-23 -28t-15.5 -56t-5.5 -92.5z" />
    <glyph glyph-name="uniE009" unicode="&#xe009;" horiz-adv-x="589" 
d="M52 25l285 450h-125q3 -13 3 -28q0 -19 -5 -38t-15.5 -34.5t-26 -25t-37.5 -9.5q-35 0 -54.5 23t-19.5 53q0 33 25.5 58.5t84.5 25.5h354v-25l-285 -450h148q-3 14 -3 28q0 19 5 38t15.5 34.5t26.5 25t38 9.5q35 0 54 -23t19 -53q0 -33 -25.5 -58.5t-84.5 -25.5h-377v25z
" />
    <glyph glyph-name="uniE00A" unicode="&#xe00a;" horiz-adv-x="1016" 
d="M43 250q0 125 69 195t203 70h15t15 -1q-29 20 -49.5 45.5t-20.5 57.5t21 57.5t55 43.5t77.5 27.5t88.5 9.5q36 0 84 -7t91 -24.5t73 -46t30 -71.5v-106h150v-25h-150v-345q0 -13 1 -32.5t8 -37.5t22.5 -31t43.5 -13q36 0 72.5 22t71.5 57q0 -19 -9 -38.5t-30 -35.5
t-55 -26t-84 -10q-90 0 -145.5 36t-55.5 108v346h-60v25h60v103q0 44 -7.5 69.5t-23 38t-39.5 16t-58 3.5q-38 0 -75 -8t-66.5 -22.5t-47.5 -35.5t-18 -48q0 -10 4.5 -22t18 -26t38 -31.5t64.5 -39.5q38 -16 55 -40.5t17 -52.5q0 -32 -20.5 -52.5t-53.5 -20.5
q-32 0 -54 21.5t-22 60.5q0 15 4.5 35t16.5 41q-12 5 -27 5q-19 0 -41.5 -11t-41.5 -38t-32 -73.5t-13 -118.5t13 -118t33 -72.5t43 -37t44 -10.5q35 0 77 22.5t77 57.5q0 -19 -10.5 -38.5t-33.5 -35.5t-58.5 -26t-85.5 -10q-129 0 -199 68.5t-70 196.5z" />
    <glyph glyph-name="uniE00B" unicode="&#xe00b;" horiz-adv-x="1005" 
d="M26 404q0 19 10.5 37t28 32.5t41 23t49.5 8.5q37 0 70 -18t43 -56q17 17 43.5 30.5t55.5 23t57 14.5t48 5q31 0 56 -11q55 22 129 22q62 0 109 -16t79.5 -44.5t49 -67.5t16.5 -86v-200q0 -19 7 -30t19 -11q11 0 26.5 9.5t31.5 25.5q0 -19 -10 -37t-27 -32t-38.5 -22.5
t-44.5 -8.5q-39 0 -68 23t-41 58q-22 -42 -59.5 -66.5t-85.5 -24.5q-94 0 -142 38.5t-48 101.5q0 51 29 80.5t71.5 44t90.5 18t86 3.5h22.5t20.5 1v29q0 59 -7.5 96.5t-21 59.5t-33.5 30.5t-44 8.5q-10 0 -23 -1t-26 -3.5t-24.5 -5.5t-19.5 -7q17 -11 27.5 -31t10.5 -40
q0 -35 -21 -56t-55 -21q-22 0 -37.5 6.5t-26.5 26.5q-7 11 -9 24q-3 12 -3 26q0 20 5 38.5t11 26.5q-14 0 -40.5 -8.5t-55 -21t-53 -28.5t-34.5 -31v-290q0 -22 1 -38.5t6.5 -26.5t18 -15t34.5 -5v-15h-280v15q23 0 35 5t17.5 15t6.5 26.5t1 38.5v305q0 19 -7 26.5t-17 7.5
q-13 0 -29 -9.5t-32 -25.5zM601 112q0 -53 18 -71.5t40 -18.5q17 0 31.5 8t26 20t20 25.5t14.5 25.5v145q-23 0 -44 -1t-28 -2q-36 -5 -57 -41t-21 -90z" />
    <glyph glyph-name="uniE00C" unicode="&#xe00c;" horiz-adv-x="934" 
d="M34 15q23 0 35 5t17.5 15t6.5 26.5t1 38.5v375h-60v25h60v1q0 47 16.5 86t49 67.5t80 44.5t108.5 16q10 0 31 -0.5t46.5 -3.5t53 -9.5t49.5 -19t36.5 -31t14.5 -46.5v-347l177 188q11 12 11 22q0 12 -17.5 14.5t-34.5 2.5v15h160v-15q-29 0 -47.5 -11t-34.5 -28
l-102 -110l152 -239q22 -33 42 -33q12 0 24.5 9t25.5 22q0 -21 -11 -39.5t-29.5 -32t-43 -21t-51.5 -7.5q-44 0 -74 22t-59 68l-88 139v-124q0 -22 1 -38.5t6.5 -26.5t18 -15t34.5 -5v-15h-280v15q23 0 35 5t17.5 15t6.5 26.5t1 38.5v505q0 26 -2 42.5t-8.5 27t-18 15.5
t-30.5 6q-25 -1 -45 -10t-33.5 -31t-20.5 -59.5t-7 -94.5v-1h120v-25h-120v-375q0 -22 1 -38.5t6.5 -26.5t18 -15t34.5 -5v-15h-280v15z" />
    <glyph glyph-name="uniE00D" unicode="&#xe00d;" horiz-adv-x="1001" 
d="M94 500v1q0 47 16.5 86t49 67.5t80 44.5t108.5 16q10 0 31 -0.5t46.5 -3.5t53 -9.5t49.5 -19t36.5 -31t14.5 -46.5v-155q49 65 135 65q41 0 76 -14t60.5 -37t39.5 -52.5t14 -61.5v-250q0 -19 7.5 -29t18.5 -10t27 9.5t32 25.5q0 -19 -10.5 -37t-27.5 -32.5t-40 -23
t-49 -8.5q-22 0 -43.5 7t-38 20.5t-26.5 33t-10 44.5v250q0 34 -7 58.5t-18 40.5t-25 23.5t-28 7.5q-16 0 -29.5 -7.5t-24.5 -19.5t-19.5 -26t-13.5 -28v-299q0 -22 1 -38.5t6.5 -26.5t18 -15t34.5 -5v-15h-280v15q23 0 35 5t17.5 15t6.5 26.5t1 38.5v505q0 26 -2 42.5
t-8.5 27t-18 15.5t-30.5 6q-25 -1 -45 -10t-33.5 -31t-20.5 -59.5t-7 -94.5v-1h120v-25h-120v-375q0 -22 1 -38.5t6.5 -26.5t18 -15t34.5 -5v-15h-280v15q23 0 35 5t17.5 15t6.5 26.5t1 38.5v375h-60v25h60z" />
    <glyph glyph-name="uniE00E" unicode="&#xe00e;" horiz-adv-x="969" 
d="M34 15q23 0 35 5t17.5 15t6.5 26.5t1 38.5v375h-60v25h60v1q0 47 16.5 86t49 67.5t80 44.5t108.5 16q10 0 31 -0.5t46.5 -3.5t53 -9.5t49.5 -19t36.5 -31t14.5 -46.5v-130q8 6 15.5 11t15.5 9q15 8 37 14t52 6q47 0 86.5 -17t68 -50t44.5 -82.5t16 -115.5t-16 -115.5
t-43 -82.5t-63.5 -50t-78.5 -17q-52 0 -90.5 24.5t-60.5 69.5q-1 -1 -1 -2t-1 -2q-4 -12 -14 -26t-24 -26t-32 -20t-39 -8q-15 0 -32 5v605q0 26 -2 42.5t-8.5 27t-18 15.5t-30.5 6q-25 -1 -45 -10t-33.5 -31t-20.5 -59.5t-7 -94.5v-1h120v-25h-120v-375q0 -22 1 -38.5
t6.5 -26.5t18 -15t34.5 -5v-15h-280v15zM579 101q6 -13 14.5 -27.5t19 -26t23.5 -19t29 -7.5q15 0 29 9t25 34.5t18 71t7 118.5q0 72 -7 116.5t-18.5 69.5t-27 34t-32.5 9q-26 0 -45 -13t-35 -28v-341z" />
    <glyph glyph-name="uniE028" unicode="&#xe028;" horiz-adv-x="800" 
d="M34 15q23 0 35 5t17.5 15t6.5 26.5t1 38.5v375h-60v25h60v1q0 47 16.5 86t49 67.5t80 44.5t108.5 16q10 0 31 -0.5t46.5 -3.5t53 -9.5t49.5 -19t36.5 -31t14.5 -46.5v-105h150v-25h-150v-345q0 -13 1 -32.5t8 -37.5t22.5 -31t43.5 -13q36 0 72.5 22t71.5 57
q0 -19 -9 -38.5t-30 -35.5t-55 -26t-84 -10q-90 0 -145.5 36t-55.5 109v345h-165v-375q0 -22 1 -38.5t6.5 -26.5t18 -15t34.5 -5v-15h-280v15zM254 501v-1h165v105q0 26 -2 42.5t-8.5 27t-18 15.5t-30.5 6q-25 -1 -45 -10t-33.5 -31t-20.5 -59.5t-7 -94.5z" />
    <glyph glyph-name="uniE010" unicode="&#xe010;" horiz-adv-x="1294" 
d="M34 500h60v1q0 47 17.5 86t54 67.5t93 44.5t135.5 16q51 0 86.5 -6.5t58.5 -19.5q55 26 134 26q10 0 31 -0.5t46.5 -3.5t53 -9.5t49.5 -19t36.5 -31t14.5 -46.5v-130q8 6 15.5 11t15.5 9q15 8 37 14t52 6q47 0 86.5 -17t68 -50t44.5 -82.5t16 -115.5t-16 -115.5
t-43 -82.5t-63.5 -50t-78.5 -17q-52 0 -90.5 24.5t-60.5 69.5q-1 -1 -1 -2t-1 -2q-4 -12 -14 -26t-24 -26t-32 -20t-39 -8q-15 0 -32 5v605q0 26 -2 42.5t-8.5 27t-18 15.5t-30.5 6q-25 -1 -45 -10t-33.5 -31t-20.5 -59.5t-7 -94.5v-1h120v-25h-120v-375q0 -22 1 -38.5
t6.5 -26.5t18 -15t34.5 -5v-15h-280v15q23 0 35 5t17.5 15t6.5 26.5t1 38.5v375h-165v-375q0 -22 1 -38.5t6.5 -26.5t18 -15t34.5 -5v-15h-280v15q23 0 35 5t17.5 15t6.5 26.5t1 38.5v375h-60v25zM254 500h165v1q0 54 21 96.5t63 71.5q-2 3 -13 7t-27 7t-34.5 5t-35.5 2
q-29 0 -54.5 -7.5t-44 -28.5t-29.5 -57.5t-11 -95.5v-1zM990 21q15 0 29 9t25 34.5t18 71t7 118.5q0 72 -7 116.5t-18.5 69.5t-27 34t-32.5 9q-26 0 -45 -13t-35 -28v-341q6 -13 14.5 -27.5t19 -26t23.5 -19t29 -7.5z" />
    <glyph glyph-name="uniE011" unicode="&#xe011;" horiz-adv-x="1326" 
d="M34 15q23 0 35 5t17.5 15t6.5 26.5t1 38.5v375h-60v25h60v1q0 47 17.5 86t54 67.5t93 44.5t135.5 16q51 0 86.5 -6.5t58.5 -19.5q55 26 134 26q10 0 31 -0.5t46.5 -3.5t53 -9.5t49.5 -19t36.5 -31t14.5 -46.5v-155q49 65 135 65q41 0 76 -14t60.5 -37t39.5 -52.5
t14 -61.5v-250q0 -19 7.5 -29t18.5 -10t27 9.5t32 25.5q0 -19 -10.5 -37t-27.5 -32.5t-40 -23t-49 -8.5q-22 0 -43.5 7t-38 20.5t-26.5 33t-10 44.5v250q0 34 -7 58.5t-18 40.5t-25 23.5t-28 7.5q-16 0 -29.5 -7.5t-24.5 -19.5t-19.5 -26t-13.5 -28v-299q0 -22 1 -38.5
t6.5 -26.5t18 -15t34.5 -5v-15h-280v15q23 0 35 5t17.5 15t6.5 26.5t1 38.5v505q0 26 -2 42.5t-8.5 27t-18 15.5t-30.5 6q-25 -1 -45 -10t-33.5 -31t-20.5 -59.5t-7 -94.5v-1h120v-25h-120v-375q0 -22 1 -38.5t6.5 -26.5t18 -15t34.5 -5v-15h-280v15q23 0 35 5t17.5 15
t6.5 26.5t1 38.5v375h-165v-375q0 -22 1 -38.5t6.5 -26.5t18 -15t34.5 -5v-15h-280v15zM254 501v-1h165v1q0 54 21 96.5t63 71.5q-2 3 -13 7t-27 7t-34.5 5t-35.5 2q-29 0 -54.5 -7.5t-44 -28.5t-29.5 -57.5t-11 -95.5z" />
    <glyph glyph-name="uniE012" unicode="&#xe012;" horiz-adv-x="1259" 
d="M94 500v1q0 47 17.5 86t54 67.5t93 44.5t135.5 16q51 0 86.5 -6.5t58.5 -19.5q55 26 134 26q10 0 31 -0.5t46.5 -3.5t53 -9.5t49.5 -19t36.5 -31t14.5 -46.5v-347l177 188q11 12 11 22q0 12 -17.5 14.5t-34.5 2.5v15h160v-15q-29 0 -47.5 -11t-34.5 -28l-102 -110
l152 -239q22 -33 42 -33q12 0 24.5 9t25.5 22q0 -21 -11 -39.5t-29.5 -32t-43 -21t-51.5 -7.5q-44 0 -74 22t-59 68l-88 139v-124q0 -22 1 -38.5t6.5 -26.5t18 -15t34.5 -5v-15h-280v15q23 0 35 5t17.5 15t6.5 26.5t1 38.5v505q0 26 -2 42.5t-8.5 27t-18 15.5t-30.5 6
q-25 -1 -45 -10t-33.5 -31t-20.5 -59.5t-7 -94.5v-1h120v-25h-120v-375q0 -22 1 -38.5t6.5 -26.5t18 -15t34.5 -5v-15h-280v15q23 0 35 5t17.5 15t6.5 26.5t1 38.5v375h-165v-375q0 -22 1 -38.5t6.5 -26.5t18 -15t34.5 -5v-15h-280v15q23 0 35 5t17.5 15t6.5 26.5t1 38.5
v375h-60v25h60zM254 500h165v1q0 54 21 96.5t63 71.5q-2 3 -13 7t-27 7t-34.5 5t-35.5 2q-29 0 -54.5 -7.5t-44 -28.5t-29.5 -57.5t-11 -95.5v-1z" />
    <glyph glyph-name="uniE013" unicode="&#xe013;" horiz-adv-x="1125" 
d="M94 500v1q0 47 17.5 86t54 67.5t93 44.5t135.5 16q51 0 86.5 -6.5t58.5 -19.5q55 26 134 26q10 0 31 -0.5t46.5 -3.5t53 -9.5t49.5 -19t36.5 -31t14.5 -46.5v-105h150v-25h-150v-345q0 -13 1 -32.5t8 -37.5t22.5 -31t43.5 -13q36 0 72.5 22t71.5 57q0 -19 -9 -38.5
t-30 -35.5t-55 -26t-84 -10q-90 0 -145.5 36t-55.5 109v345h-165v-375q0 -22 1 -38.5t6.5 -26.5t18 -15t34.5 -5v-15h-280v15q23 0 35 5t17.5 15t6.5 26.5t1 38.5v375h-165v-375q0 -22 1 -38.5t6.5 -26.5t18 -15t34.5 -5v-15h-280v15q23 0 35 5t17.5 15t6.5 26.5t1 38.5v375
h-60v25h60zM579 500h165v105q0 26 -2 42.5t-8.5 27t-18 15.5t-30.5 6q-25 -1 -45 -10t-33.5 -31t-20.5 -59.5t-7 -94.5v-1zM419 500v1q0 54 21 96.5t63 71.5q-2 3 -13 7t-27 7t-34.5 5t-35.5 2q-29 0 -54.5 -7.5t-44 -28.5t-29.5 -57.5t-11 -95.5v-1h165z" />
    <glyph glyph-name="uniE014" unicode="&#xe014;" horiz-adv-x="788" 
d="M373 243l190 462h25l182 -434q7 -15 20 -15q11 0 22 7.5t18 14.5q0 -15 -10.5 -28t-27 -22.5t-36.5 -14.5t-39 -5t-33.5 5.5t-25 14.5t-17.5 20t-12 23l-35 84h-150l-46 -112q-2 -4 -2 -6q0 -11 13 -13t30 -2v-11h-112v11q17 0 30 7t16 14zM327 700v-15q-22 0 -34.5 -5
t-18 -15t-6.5 -26t-1 -39v-575h215q24 0 37.5 12t19.5 31t7 43.5t1 48.5h30v-160h-535v15q23 0 35 4.5t17.5 15t6.5 26.5t1 39v500q0 23 -1 39t-6.5 26t-17.5 15t-35 5v15h285zM585 375l-67 161l-66 -161h133z" />
    <glyph glyph-name="uniE015" unicode="&#xe015;" horiz-adv-x="964" 
d="M312 59v15q24 0 42.5 10t22.5 20l248 601h30l260 -620q5 -12 12.5 -16.5t15.5 -4.5q15 0 31.5 10.5t26.5 20.5q0 -22 -11 -40.5t-29.5 -31.5t-42.5 -20.5t-51 -7.5q-28 0 -49 7.5t-36 20.5t-25.5 29t-17.5 33l-51 120h-239l-42 -101q-2 -6 -2 -9q0 -14 21 -17.5t46 -3.5
v-15h-160zM42 0v15q23 0 35 4.5t17.5 15t6.5 26.5t1 39v500q0 23 -1 39t-6.5 26t-17.5 15t-35 5v15h285v-15q-22 0 -34.5 -5t-18 -15t-6.5 -26t-1 -39v-575h215q24 0 37.5 12t19.5 31t7 43.5t1 48.5h30v-160h-535zM678 230l-110 263l-109 -263h219z" />
    <glyph glyph-name="uniE016" unicode="&#xe016;" horiz-adv-x="928" 
d="M104 620q0 21 8.5 37t23 27.5t32.5 17t37 5.5q51 0 95 -14.5t82 -41t69.5 -62.5t55.5 -78q2 -3 5.5 -10.5t8.5 -17.5q50 22 121 22q40 0 80 -7.5t72.5 -26t52.5 -50t20 -79.5q0 -73 -56 -120t-172 -47q-34 0 -63.5 5t-55.5 16q-14 -5 -30.5 -14t-16.5 -23q0 -5 3.5 -11
t12.5 -11t24.5 -8.5t39.5 -3.5h192q75 0 121.5 -39t46.5 -110q0 -42 -18 -77t-54 -60.5t-89.5 -39.5t-125.5 -14q-32 0 -73.5 4t-78.5 16.5t-62.5 35t-25.5 59.5q0 30 18.5 51t50.5 21t52.5 -22t20.5 -57q0 -18 -7 -32.5t-24 -33.5q23 -9 48.5 -12.5t60.5 -3.5
q72 0 122.5 11.5t82.5 29t47 38t15 38.5q0 25 -29.5 41t-98.5 16h-192q-39 0 -68.5 9.5t-48.5 25.5t-28.5 36.5t-9.5 42.5t8 39.5t21.5 31t30.5 23.5t35 17q-38 23 -54 55t-16 70q0 45 18.5 79.5t56.5 57.5q-19 40 -43.5 75t-55.5 62.5t-68 45.5t-82 24q11 -12 18 -27t7 -32
t-7 -32.5t-18.5 -27t-27 -18.5t-32.5 -7t-32.5 7t-27 18.5t-18.5 27t-7 32.5zM153 505q21 0 42 -6t37.5 -18.5t26.5 -31.5t10 -44v-305q0 -22 1 -38.5t6.5 -26.5t18 -15t34.5 -5v-15h-280v15q23 0 35 5t17.5 15t6.5 26.5t1 38.5v305q0 19 -7 26.5t-17 7.5q-13 0 -29 -9.5
t-32 -25.5q0 19 10.5 37t28 32.5t41 23t49.5 8.5zM645 200q15 0 28 5.5t23 21t15.5 43t5.5 70.5t-5.5 70.5t-15.5 43t-23 21t-28 5.5t-28 -5.5t-23 -21t-15.5 -43t-5.5 -70.5t5.5 -70.5t15.5 -43t23 -21t28 -5.5z" />
    <glyph glyph-name="uniE017" unicode="&#xe017;" horiz-adv-x="987" 
d="M172 654q5 16 23 30q19 17 44 20q12 3 25 3q51 0 95 -14.5t82 -41t69.5 -62.5t55.5 -78q2 -3 5.5 -10.5t8.5 -17.5q50 22 121 22q40 0 80 -7.5t72.5 -26t52.5 -50t20 -79.5q0 -73 -56 -120t-172 -47q-34 0 -63.5 5t-55.5 16q-14 -5 -30.5 -14t-16.5 -23q0 -5 3.5 -11
t12.5 -11t24.5 -8.5t39.5 -3.5h192q75 0 121.5 -39t46.5 -110q0 -42 -18 -77t-54 -60.5t-89.5 -39.5t-125.5 -14q-32 0 -73.5 4t-78.5 16.5t-62.5 35t-25.5 59.5q0 30 18.5 51t50.5 21t52.5 -22t20.5 -57q0 -18 -7 -32.5t-24 -33.5q23 -9 48.5 -12.5t60.5 -3.5
q72 0 122.5 11.5t82.5 29t47 38t15 38.5q0 25 -29.5 41t-98.5 16h-192q-39 0 -68.5 9.5t-48.5 25.5t-28.5 36.5t-9.5 42.5t8 39.5t21.5 31t30.5 23.5t35 17q-38 23 -54 55t-16 70q0 45 18.5 79.5t56.5 57.5q-19 40 -43.5 75t-55.5 62t-68 45.5t-81 24.5q11 -12 18 -27t7 -32
t-7 -32.5t-18.5 -27t-27 -18.5t-32.5 -7t-32.5 7t-27 18.5t-18.5 27t-7 32.5q0 16 8 34zM-106 -104q0 32 20.5 52.5t53.5 20.5q32 0 54 -21.5t22 -60.5q0 -15 -4.5 -36t-16.5 -42q15 -5 36 -5q26 0 46.5 8.5t34.5 30.5t21.5 59.5t7.5 96.5v406q0 19 -7 26.5t-17 7.5
q-13 0 -29 -9.5t-32 -25.5q0 19 10.5 37t28 32.5t41 23t49.5 8.5q21 0 42 -6t37.5 -18.5t26.5 -31.5t10 -44v-406q0 -47 -16.5 -86t-49 -67.5t-79.5 -44.5t-108 -16q-48 0 -82.5 9.5t-56.5 25t-32.5 35.5t-10.5 41zM704 200q15 0 28 5.5t23 21t15.5 43t5.5 70.5t-5.5 70.5
t-15.5 43t-23 21t-28 5.5t-28 -5.5t-23 -21t-15.5 -43t-5.5 -70.5t5.5 -70.5t15.5 -43t23 -21t28 -5.5z" />
    <glyph glyph-name="uniE018" unicode="&#xe018;" horiz-adv-x="786" 
d="M42 15q23 0 35 4.5t17.5 15t6.5 26.5t1 39v500q0 23 -1 39t-6.5 26t-17.5 15t-35 5v15h285v-15q-22 0 -34.5 -5t-18 -15t-6.5 -26t-1 -39v-575h215q24 0 37.5 12t19.5 31t7 43.5t1 48.5h30v-160h-535v15zM383 221q16 0 24.5 3.5t12.5 10.5t4.5 18t0.5 27v350
q0 16 -0.5 27t-4.5 18t-12.5 10.5t-24.5 3.5v11h392v-112h-25q0 17 -0.5 33.5t-5 29.5t-14 21t-26.5 8h-144v-217h74q12 0 18.5 6.5t9.5 16.5t3.5 22t0.5 24h25v-157h-25q0 12 -0.5 24t-3.5 21.5t-9.5 16t-18.5 6.5h-74v-213h158q17 0 26.5 8t14 21t5 29.5t0.5 33.5h21v-112
h-402v11z" />
    <glyph glyph-name="uniE019" unicode="&#xe019;" horiz-adv-x="763" 
d="M42 700h285v-15q-22 0 -34.5 -5t-18 -15t-6.5 -26t-1 -39v-575h215q24 0 37.5 12t19.5 31t7 43.5t1 48.5h30v-160h-535v15q23 0 35 4.5t17.5 15t6.5 26.5t1 39v500q0 23 -1 39t-6.5 26t-17.5 15t-35 5v15zM397 221q16 0 24.5 3t12.5 10t4.5 18.5t0.5 27.5v346
q0 16 -0.5 27t-4.5 18t-12.5 10.5t-24.5 3.5v15h214v-15q-16 0 -24.5 -3.5t-12.5 -10.5t-4.5 -18t-0.5 -27v-395h143q17 0 26.5 8t14 20.5t5 29t0.5 33.5h25v-112h-386v11z" />
    <glyph glyph-name="uniE01A" unicode="&#xe01a;" horiz-adv-x="820" 
d="M338 456q0 62 18.5 109.5t51 80t76.5 49.5t95 17t95 -17t76.5 -49.5t51 -80t18.5 -109.5q0 -61 -18.5 -109t-51 -80t-76.5 -49t-95 -17t-95 17t-76.5 49t-51 80t-18.5 109zM42 0v15q23 0 35 4.5t17.5 15t6.5 26.5t1 39v500q0 23 -1 39t-6.5 26t-17.5 15t-35 5v15h285v-15
q-22 0 -34.5 -5t-18 -15t-6.5 -26t-1 -39v-575h215q24 0 37.5 12t19.5 31t7 43.5t1 48.5h30v-160h-535zM579 221q18 0 36.5 10.5t32.5 37.5t23 72.5t9 114.5q0 70 -9 115.5t-23 72.5t-32.5 37.5t-36.5 10.5t-36.5 -10.5t-32.5 -37.5t-23 -72.5t-9 -115.5q0 -69 9 -114.5
t23 -72.5t32.5 -37.5t36.5 -10.5z" />
    <glyph glyph-name="uniE01B" unicode="&#xe01b;" horiz-adv-x="833" 
d="M42 15q23 0 35 4.5t17.5 15t6.5 26.5t1 39v500q0 23 -1 39t-6.5 26t-17.5 15t-35 5v15h285v-15q-22 0 -34.5 -5t-18 -15t-6.5 -26t-1 -39v-575h215q24 0 37.5 12t19.5 31t7 43.5t1 48.5h30v-160h-535v15zM579 700v-10q-16 0 -24.5 -1.5t-12.5 -7t-4.5 -15t-0.5 -25.5
v-255q0 -47 6.5 -78.5t18.5 -50.5t28.5 -27t36.5 -8q25 0 50 11t45 32t32.5 51.5t12.5 69.5v245q0 21 -1 32.5t-6 17.5t-16.5 7.5t-32.5 1.5v10h137v-10q-21 0 -32.5 -1.5t-16.5 -7.5t-6 -17.5t-1 -32.5v-245q0 -88 -50.5 -137t-138.5 -49q-43 0 -80 13t-64 37t-42 58.5
t-15 77.5v255q0 16 -0.5 25.5t-4.5 15t-12.5 7t-24.5 1.5v10h219z" />
    <glyph glyph-name="uniE01C" unicode="&#xe01c;" horiz-adv-x="822" 
d="M13 571q0 32 10.5 57t28 42t41 26t49.5 9q21 0 42 -6t37.5 -18.5t26.5 -31.5t10 -44v-149q21 15 35 27t30.5 30.5t39 48t59.5 78.5q45 59 89.5 81t90.5 22q67 0 102 -33t35 -79q0 -42 -25.5 -69t-59.5 -27q-17 0 -32.5 7t-27 18.5t-18.5 27t-7 32.5q0 16 6.5 31t17 26.5
t24.5 19t30 8.5q-14 8 -29 10.5t-24 2.5q-28 0 -54.5 -13t-50 -34.5t-45 -48t-41.5 -53.5q-13 -18 -29.5 -39t-35 -41t-39 -37t-41.5 -28v-294q0 -13 1 -32.5t8 -37.5t22.5 -31t43.5 -13q36 0 72.5 22t71.5 57q0 -19 -9 -38.5t-30 -35.5t-55 -26t-84 -10q-90 0 -145.5 36
t-55.5 109v292q-28 11 -45 31t-26 41.5t-11.5 42.5t-2.5 34zM98 450v155q0 19 -6.5 26.5t-14.5 7.5q-5 0 -11.5 -3.5t-12.5 -11.5t-10 -20.5t-4 -31.5q0 -11 2 -27t8.5 -32.5t18 -33t30.5 -29.5zM490 404q0 19 10.5 37t28 32.5t41 23t49.5 8.5q21 0 42 -6t37.5 -18.5
t26.5 -31.5t10 -44v-305q0 -22 1 -38.5t6.5 -26.5t18 -15t34.5 -5v-15h-280v15q23 0 35 5t17.5 15t6.5 26.5t1 38.5v305q0 19 -7 26.5t-17 7.5q-13 0 -29 -9.5t-32 -25.5z" />
    <glyph glyph-name="uniE01D" unicode="&#xe01d;" horiz-adv-x="847" 
d="M13 571q0 32 10.5 57t28 42t41 26t49.5 9q21 0 42 -6t37.5 -18.5t26.5 -31.5t10 -44v-149q39 26 71 61.5t65 76.5q23 27 46.5 54t51 48t60 34t73.5 13q67 0 102 -33t35 -79q0 -42 -25.5 -69t-59.5 -27q-17 0 -32.5 7t-27 18.5t-18.5 27t-7 32.5q0 16 6.5 31t17 26.5
t24.5 19t30 8.5q-14 8 -29 10.5t-26 2.5q-23 0 -45.5 -8t-47.5 -26.5t-55.5 -50t-69.5 -79.5q-24 -29 -43 -50.5t-35 -36.5t-31 -25t-30 -18v-294q0 -13 1 -32.5t8 -37.5t22.5 -31t43.5 -13q36 0 72.5 22t71.5 57q0 -19 -9 -38.5t-30 -35.5t-55 -26t-84 -10q-90 0 -145.5 36
t-55.5 109v292q-28 11 -45 31t-26 41.5t-11.5 42.5t-2.5 34zM39 572q0 -11 2 -27t8.5 -32.5t18 -33t30.5 -29.5v155q0 19 -6.5 26.5t-14.5 7.5q-5 0 -11.5 -3.5t-12.5 -11.5t-10 -20.5t-4 -31.5zM320 -104q0 32 20.5 52.5t53.5 20.5q32 0 54 -21.5t22 -60.5q0 -15 -4.5 -36
t-16.5 -42q15 -5 36 -5q26 0 46.5 8.5t34.5 30.5t21.5 59.5t7.5 96.5v406q0 19 -7 26.5t-17 7.5q-13 0 -29 -9.5t-32 -25.5q0 19 10.5 37t28 32.5t41 23t49.5 8.5q21 0 42 -6t37.5 -18.5t26.5 -31.5t10 -44v-406q0 -47 -16.5 -86t-49 -67.5t-79.5 -44.5t-108 -16
q-48 0 -82.5 9.5t-56.5 25t-32.5 35.5t-10.5 41z" />
    <glyph glyph-name="uniE01E" unicode="&#xe01e;" horiz-adv-x="721" 
d="M87 439q-13 0 -29 -9.5t-32 -25.5q0 19 10.5 37t27.5 32.5t39.5 23t47.5 8.5q17 0 34 -4t31 -12t24.5 -19.5t14.5 -26.5q0 -1 0.5 -1t0.5 -1q13 40 39 87t62 87.5t79.5 67.5t89.5 27q19 0 38.5 -5.5t35.5 -16t26 -27t10 -38.5q0 -18 -7 -34t-18.5 -28t-27 -19t-32.5 -7
t-32.5 7t-27 18.5t-18.5 27t-7 32.5q0 36 27 60q-39 -11 -75.5 -44.5t-66.5 -75t-50.5 -85t-26.5 -74.5q-2 -8 -3 -11v-290q0 -22 1 -38.5t6.5 -26.5t18 -15t34.5 -5v-15h-280v15q23 0 35 5t17.5 15t6.5 26.5t1 38.5v305q0 19 -7 26.5t-17 7.5zM201 -104q0 32 20.5 52.5
t53.5 20.5q32 0 54 -21.5t22 -60.5q0 -15 -4.5 -36t-16.5 -42q15 -5 36 -5q26 0 46.5 8.5t34.5 30.5t21.5 59.5t7.5 96.5v406q0 19 -7 26.5t-17 7.5q-13 0 -29 -9.5t-32 -25.5q0 19 10.5 37t28 32.5t41 23t49.5 8.5q21 0 42 -6t37.5 -18.5t26.5 -31.5t10 -44v-406
q0 -47 -16.5 -86t-49 -67.5t-79.5 -44.5t-108 -16q-48 0 -82.5 9.5t-56.5 25t-32.5 35.5t-10.5 41z" />
    <glyph glyph-name="longs_t" unicode="&#xfb05;" horiz-adv-x="800" 
d="M34 475v25h60v1q0 47 16.5 86t49 67.5t80 44.5t108.5 16q10 0 31 -0.5t46.5 -3.5t53 -9.5t49.5 -19t36.5 -31t14.5 -46.5v-105h150v-25h-150v-345q0 -13 1 -32.5t8 -37.5t22.5 -31t43.5 -13q36 0 72.5 22t71.5 57q0 -19 -9 -38.5t-30 -35.5t-55 -26t-84 -10
q-90 0 -145.5 36t-55.5 109v345h-60v25h60v105q0 26 -2 42.5t-8.5 27t-18 15.5t-30.5 6q-25 -1 -45 -10t-33.5 -31t-20.5 -59.5t-7 -94.5v-401q0 -22 1 -38.5t6.5 -26.5t18 -15t34.5 -5v-15h-280v15q23 0 35 5t17.5 15t6.5 26.5t1 38.5v375h-60z" />
    <glyph glyph-name="s_t" unicode="&#xfb06;" horiz-adv-x="1025" 
d="M43 134q0 40 21 64.5t59 24.5t56.5 -23t18.5 -57q0 -29 -17 -60q-2 -4 -4 -8.5t-2 -10.5q0 -13 9 -22t23 -14.5t30 -8t30 -2.5q35 0 60 15t25 53q0 17 -5.5 30t-18.5 25t-33 24t-49 27q-53 27 -88.5 50t-56.5 44t-30 41.5t-9 43.5q0 32 15 58.5t43 46t67.5 30t88.5 10.5
q25 0 49 -3q-25 19 -42 44t-17 54q0 33 21.5 60t57 45.5t81 29t92.5 10.5q37 0 86 -7t93.5 -24.5t75.5 -46t31 -71.5v-106h150v-25h-150v-345q0 -13 1 -32.5t8 -37.5t22.5 -31t43.5 -13q36 0 72.5 22t71.5 57q0 -19 -9 -38.5t-30 -35.5t-55 -26t-84 -10q-90 0 -145.5 36
t-55.5 108v346h-60v25h60v103q0 44 -7.5 69.5t-24 38t-42 16t-61.5 3.5q-40 0 -79 -8.5t-70 -24t-50 -38t-19 -50.5q0 -11 4.5 -24t18.5 -28t40 -33t68 -40q32 -16 54 -44t22 -66q0 -36 -20 -58.5t-53 -22.5q-32 0 -54 20t-22 55q0 21 6.5 37t11.5 24q8 16 8 20q0 10 -20 25
t-51 15q-32 0 -54.5 -19.5t-22.5 -49.5q0 -20 10 -36.5t24 -29t29.5 -21.5t26.5 -15q60 -31 98 -56.5t60 -46.5t30.5 -40t8.5 -39q0 -33 -19 -61t-52 -48t-77 -31t-94 -11q-39 0 -79.5 8t-74 25.5t-54.5 46t-21 69.5z" />
    <glyph glyph-name="longs" unicode="&#x17f;" horiz-adv-x="461" 
d="M34 15q23 0 35 5t17.5 15t6.5 26.5t1 38.5v375h-60v25h60v1q0 47 16.5 86t49 67.5t79.5 44.5t108 16q48 0 82.5 -9.5t56.5 -25t32.5 -35.5t10.5 -41q0 -32 -20.5 -52.5t-53.5 -20.5q-32 0 -54 21.5t-22 60.5q0 15 4.5 36t16.5 42q-15 5 -36 5q-26 0 -46.5 -8.5
t-34.5 -30.5t-21.5 -59.5t-7.5 -96.5v-401q0 -22 1 -38.5t6.5 -26.5t18 -15t34.5 -5v-15h-280v15z" />
    <glyph glyph-name="uniE001" unicode="&#xe001;" horiz-adv-x="2036" 
d="M1317 505q43 0 74 -21t49 -69l85 -230l69 149l-25 64q-8 20 -19.5 29t-23.5 9t-25.5 -8.5t-27.5 -22.5q0 21 11 39.5t30 32t43.5 21t52.5 7.5q43 0 74 -21t49 -69l87 -230l125 266q4 9 4 16q0 6 -6 10t-14.5 5.5t-18 2t-17.5 0.5h-8v15h160v-15q-34 0 -46.5 -6.5
t-22.5 -27.5l-214 -456h-25l-128 305l-140 -305h-25l-168 403q-8 20 -19.5 29t-23.5 9t-25.5 -8.5t-27.5 -22.5q0 21 11 39.5t30 32t43.5 21t52.5 7.5zM589 405q0 21 11 39.5t30 32t43.5 21t52.5 7.5q43 0 74 -21t49 -69l85 -230l69 149l-25 64q-8 20 -19.5 29t-23.5 9
t-25.5 -8.5t-27.5 -22.5q0 21 11 39.5t30 32t43.5 21t52.5 7.5q43 0 74 -21t49 -69l87 -230l68 145l15 -35l-141 -300h-25l-128 305l-140 -305h-25l-168 403q-8 20 -19.5 29t-23.5 9t-25.5 -8.5t-27.5 -22.5zM136 505q43 0 74 -21t49 -69l85 -230l69 149l-25 64
q-8 20 -19.5 29t-23.5 9t-25.5 -8.5t-27.5 -22.5q0 21 11 39.5t30 32t43.5 21t52.5 7.5q43 0 74 -21t49 -69l87 -230l68 145l15 -35l-141 -300h-25l-128 305l-140 -305h-25l-168 403q-8 20 -19.5 29t-23.5 9t-25.5 -8.5t-27.5 -22.5q0 21 11 39.5t30 32t43.5 21t52.5 7.5z
" />
    <glyph glyph-name="uniE021" unicode="&#xe021;" horiz-adv-x="892" 
d="M52 436q-12 0 -25.5 -8.5t-27.5 -22.5q0 21 11 39.5t30 32t43.5 21t52.5 7.5q43 0 73 -21t50 -69l93 -228l115 264q18 42 43.5 87t57 82t68 61t76.5 24q44 0 71 -25.5t27 -59.5q0 -17 -7 -32.5t-18.5 -27t-27 -18.5t-32.5 -7t-32.5 7t-27 18.5t-18.5 27t-7 32.5
q0 16 6 29q-52 -35 -88 -88t-62 -113l-197 -453h-25l-179 403q-17 38 -43 38zM621 439q-13 0 -29 -9.5t-32 -25.5q0 19 10.5 37t28 32.5t41 23t49.5 8.5q21 0 42 -6t37.5 -18.5t26.5 -31.5t10 -44v-305q0 -22 1 -38.5t6.5 -26.5t18 -15t34.5 -5v-15h-280v15q23 0 35 5
t17.5 15t6.5 26.5t1 38.5v305q0 19 -7 26.5t-17 7.5z" />
    <glyph glyph-name="uniE022" unicode="&#xe022;" horiz-adv-x="1190" 
d="M136 505q43 0 74 -21t49 -69l85 -230l69 149l-25 64q-8 20 -19.5 29t-23.5 9t-25.5 -8.5t-27.5 -22.5q0 21 11 39.5t30 32t43.5 21t52.5 7.5q43 0 74 -21t49 -69l87 -230l125 266q17 37 42.5 81t57 82.5t69 64.5t79.5 26t69 -25.5t27 -59.5q0 -17 -7 -32.5t-18.5 -27
t-27 -18.5t-32.5 -7t-32.5 7t-27 18.5t-18.5 27t-7 32.5q0 16 6 29q-24 -17 -46 -41t-41.5 -51.5t-35.5 -55.5t-28 -53l-212 -453h-25l-128 305l-140 -305h-25l-168 403q-8 20 -19.5 29t-23.5 9t-25.5 -8.5t-27.5 -22.5q0 21 11 39.5t30 32t43.5 21t52.5 7.5zM987 505
q21 0 42 -6t37.5 -18.5t26.5 -31.5t10 -44v-305q0 -22 1 -38.5t6.5 -26.5t18 -15t34.5 -5v-15h-280v15q23 0 35 5t17.5 15t6.5 26.5t1 38.5v305q0 19 -7 26.5t-17 7.5q-13 0 -29 -9.5t-32 -25.5q0 19 10.5 37t28 32.5t41 23t49.5 8.5z" />
    <glyph glyph-name="uniE023" unicode="&#xe023;" horiz-adv-x="1095" 
d="M365 715q38 0 78 -7.5t73 -26.5t54 -50t21 -79q0 -37 -27.5 -64t-71.5 -27t-69 31.5t-25 96.5q0 11 2.5 24.5t5.5 25.5t6.5 21.5t5.5 13.5q2 2 2 5q0 6 -12.5 8.5t-25.5 2.5q-32 0 -61.5 -16.5t-52.5 -56t-36.5 -104.5t-13.5 -163q0 -97 14 -162.5t38 -105t56.5 -56
t68.5 -16.5q39 0 73 15t60.5 35.5t44 42t23.5 33.5q0 -28 -15 -55t-42.5 -48.5t-67 -34.5t-88.5 -13q-79 0 -142 24t-107 70.5t-67.5 114.5t-23.5 156t23 156t65.5 114.5t102 70.5t131.5 24zM1060 350q0 -61 -18.5 -109t-51 -80t-76.5 -49t-95 -17t-95 17t-76.5 49t-51 80
t-18.5 109q0 62 18.5 109.5t51 80t76.5 49.5t95 17t95 -17t76.5 -49.5t51 -80t18.5 -109.5zM920 350q0 70 -9 115.5t-23 72.5t-32.5 37.5t-36.5 10.5t-36.5 -10.5t-32.5 -37.5t-23 -72.5t-9 -115.5q0 -69 9 -114.5t23 -72.5t32.5 -37.5t36.5 -10.5t36.5 10.5t32.5 37.5
t23 72.5t9 114.5z" />
    <glyph glyph-name="uniE024" unicode="&#xe024;" horiz-adv-x="902" 
d="M272 -15q-39 0 -79.5 8t-74 25.5t-54.5 46t-21 69.5q0 40 21 64.5t59 24.5t56.5 -23t18.5 -57q0 -29 -17 -60q-2 -4 -4 -8.5t-2 -10.5q0 -13 9 -22t23 -14.5t30 -8t30 -2.5q35 0 60 15t25 53q0 17 -5.5 30t-18.5 25t-33 24t-49 27q-53 27 -88.5 50t-56.5 44t-30 41.5
t-9 43.5q0 32 15 58.5t43 46t67.5 30t88.5 10.5q24 0 46 -3q-24 19 -40 42t-16 49q0 34 28.5 61.5t74 46.5t101.5 29t110 10q80 0 134.5 -20.5t81.5 -52.5q24 -24 24 -57q0 -17 -7 -32.5t-18.5 -27t-27 -18.5t-32.5 -7t-32.5 7t-27 18.5t-18.5 27t-7 32.5q0 29 19.5 53
t48.5 30q-23 11 -53 16.5t-72 5.5q-48 0 -101.5 -8.5t-98 -24t-73.5 -38.5t-29 -53q0 -9 4 -20t16.5 -24.5t35.5 -30t61 -36.5q41 -17 65.5 -46t24.5 -70q0 -36 -20 -58.5t-53 -22.5q-32 0 -54 20t-22 55q0 21 6.5 37t11.5 24q8 16 8 20q0 10 -20 25t-51 15
q-32 0 -54.5 -19.5t-22.5 -49.5q0 -20 10 -36.5t24 -29t29.5 -21.5t26.5 -15q60 -31 98 -56.5t60 -46.5t30.5 -40t8.5 -39q0 -33 -19 -61t-52 -48t-77 -31t-94 -11zM631 439q-13 0 -29 -9.5t-32 -25.5q0 19 10.5 37t28 32.5t41 23t49.5 8.5q21 0 42 -6t37.5 -18.5
t26.5 -31.5t10 -44v-305q0 -22 1 -38.5t6.5 -26.5t18 -15t34.5 -5v-15h-280v15q23 0 35 5t17.5 15t6.5 26.5t1 38.5v305q0 19 -7 26.5t-17 7.5z" />
    <glyph glyph-name="uniE025" unicode="&#xe025;" horiz-adv-x="833" 
d="M372 757q30 0 64 -5t65.5 -16.5t58 -31t41.5 -49.5q2 -2 2.5 -3.5t1.5 -3.5q10 -25 10 -48v-100h150v-25h-150v-346q0 -13 1 -32t8 -37t22.5 -31t43.5 -13q36 0 72.5 22t71.5 57q0 -19 -9 -38.5t-30 -35.5t-55 -26t-84 -10q-90 0 -145.5 36t-55.5 109v345h-60v25h60v105
q0 23 -3.5 45t-12 39.5t-23.5 29t-38 13.5q-45 0 -87.5 -6t-84.5 -23q29 -6 48.5 -30t19.5 -53q0 -17 -7 -32.5t-18.5 -27t-27 -18.5t-32.5 -7t-32.5 7t-27 18.5t-18.5 27t-7 32.5q0 27 14.5 47.5t37.5 35.5t52.5 25.5t59.5 17t57.5 9t46.5 2.5zM153 505q21 0 42 -6
t37.5 -18.5t26.5 -31.5t10 -44v-305q0 -22 1 -38.5t6.5 -26.5t18 -15t34.5 -5v-15h-280v15q23 0 35 5t17.5 15t6.5 26.5t1 38.5v305q0 19 -7 26.5t-17 7.5q-13 0 -29 -9.5t-32 -25.5q0 19 10.5 37t28 32.5t41 23t49.5 8.5z" />
    <glyph glyph-name="uniE026" unicode="&#xe026;" horiz-adv-x="664" 
d="M34 475v25h60v1q0 47 17.5 86t53.5 67.5t92 44.5t133 16q38 0 71 -4.5t58.5 -16.5t40 -32t14.5 -51q0 -38 -20.5 -59t-55.5 -21q-20 0 -34.5 7t-23.5 19t-13.5 27.5t-4.5 31.5t3.5 31.5t11.5 27.5q0 6 -7 9t-16.5 4.5t-19 1.5h-15.5q-36 0 -60 -16t-38.5 -42.5
t-20.5 -60.5t-6 -70v-1h185q25 0 50 -5.5t45 -17t32.5 -29.5t12.5 -43v-406q0 -47 -16.5 -86t-49 -67.5t-79.5 -44.5t-108 -16q-48 0 -82.5 9.5t-56.5 25t-32.5 35.5t-10.5 41q0 32 20.5 52.5t53.5 20.5q32 0 54 -21.5t22 -60.5q0 -15 -4.5 -36t-16.5 -42q15 -5 36 -5
q26 0 46.5 8.5t34.5 30.5t21.5 59.5t7.5 96.5v406q0 26 -3.5 40.5t-13 21t-26 7.5t-42.5 1h-80v-375q0 -22 1 -38.5t6.5 -26.5t18 -15t34.5 -5v-15h-280v15q23 0 35 5t17.5 15t6.5 26.5t1 38.5v375h-60z" />
    <glyph glyph-name="uniE029" unicode="&#xe029;" horiz-adv-x="693" 
d="M87 439q-13 0 -29 -9.5t-32 -25.5q0 19 10.5 37t28 32.5t41 23t49.5 8.5q35 0 66 -16t43 -48q25 38 61 56t81 18q41 0 76 -14t60.5 -37t39.5 -52.5t14 -61.5v-400q0 -19 7.5 -29t18.5 -10t27 9.5t32 25.5q0 -19 -10.5 -37t-27.5 -32.5t-40 -23t-49 -8.5q-22 0 -43.5 7
t-38 20.5t-26.5 33t-10 44.5v400q0 34 -7 58.5t-18 40.5t-25 23.5t-28 7.5q-16 0 -29.5 -7.5t-24.5 -19.5t-19.5 -26t-13.5 -28v-299q0 -22 1 -38.5t6.5 -26.5t18 -15t34.5 -5v-15h-280v15q23 0 35 5t17.5 15t6.5 26.5t1 38.5v305q0 19 -7 26.5t-17 7.5z" />
    <glyph glyph-name="uniE02A" unicode="&#xe02a;" horiz-adv-x="1017" 
d="M26 404q0 19 10.5 37t28 32.5t41 23t49.5 8.5q35 0 66 -16t43 -48q49 74 147 74q28 0 55.5 -5.5t51 -16t41 -25t26.5 -31.5q26 40 63 59t82 19q41 0 76 -14t60.5 -37t40 -52.5t14.5 -61.5v-400q0 -19 7.5 -29t18.5 -10t27 9.5t32 25.5q0 -19 -10.5 -37t-27.5 -32.5
t-40 -23t-49 -8.5q-22 0 -43.5 7t-38 20.5t-26.5 33t-10 44.5v400q0 34 -7 58.5t-18 40.5t-25.5 23.5t-28.5 7.5q-16 0 -29.5 -7.5t-24 -19.5t-19 -26t-13.5 -27v-300q0 -22 1 -38.5t6.5 -26.5t18 -15t34.5 -5v-15h-280v15q23 0 35 5t17.5 15t6.5 26.5t1 38.5v250
q0 34 -7 58.5t-18 40.5t-25 23.5t-28 7.5q-16 0 -29.5 -7.5t-24.5 -19.5t-19.5 -26t-13.5 -28v-299q0 -22 1 -38.5t6.5 -26.5t18 -15t34.5 -5v-15h-280v15q23 0 35 5t17.5 15t6.5 26.5t1 38.5v305q0 19 -7 26.5t-17 7.5q-13 0 -29 -9.5t-32 -25.5z" />
    <glyph glyph-name="uniE02B" unicode="&#xe02b;" horiz-adv-x="674" 
d="M7 604q0 19 10.5 37t28 32.5t41 23t49.5 8.5q21 0 42 -6t37.5 -18.5t26.5 -31.5t10 -44v-155q49 65 135 65q41 0 76 -14t60.5 -37t39.5 -52.5t14 -61.5v-400q0 -19 7.5 -29t18.5 -10t27 9.5t32 25.5q0 -19 -10.5 -37t-27.5 -32.5t-40 -23t-49 -8.5q-22 0 -43.5 7
t-38 20.5t-26.5 33t-10 44.5v400q0 34 -7 58.5t-18 40.5t-25 23.5t-28 7.5q-16 0 -29.5 -7.5t-24.5 -19.5t-19.5 -26t-13.5 -28v-299q0 -22 1 -38.5t6.5 -26.5t18 -15t34.5 -5v-15h-280v15q23 0 35 5t17.5 15t6.5 26.5t1 38.5v505q0 19 -7 26.5t-17 7.5q-13 0 -29 -9.5
t-32 -25.5z" />
    <glyph glyph-name="uniE02C" unicode="&#xe02c;" horiz-adv-x="874" 
d="M620 700q29 0 57.5 -6t51 -18.5t37 -31t14.5 -43.5v-502q0 -22 1 -38t6.5 -26t18 -15t34.5 -5v-15h-280v15q23 0 35 5t17.5 15t6.5 26.5t1 38.5v440q0 24 -1 48.5t-7 43.5t-19.5 31t-37.5 12h-142v-575q0 -22 1 -38.5t6.5 -26.5t18 -15t34.5 -5v-15h-285v15q23 0 35 5
t17.5 15t6.5 26.5t1 38.5v575h-115q-24 0 -37.5 -12t-19.5 -31t-7 -43.5t-1 -48.5h-30v160h582z" />
    <glyph glyph-name="uniE02D" unicode="&#xe02d;" horiz-adv-x="1584" 
d="M39 257q0 60 18 107.5t53.5 81t87 51.5t117.5 18q29 0 66 -7.5t70 -24.5t55.5 -45t22.5 -69q0 -34 -16.5 -58.5t-43.5 -40.5t-61 -25t-69.5 -13.5t-69.5 -5.5t-60 -1q0 -66 5.5 -107.5t19 -64t35 -30.5t52.5 -8q61 0 114.5 26t111.5 93q26 29 49.5 49.5t46.5 30.5
q17 9 39 9q38 0 56.5 -23t18.5 -57q0 -29 -17 -60q-2 -4 -4 -8.5t-2 -10.5q0 -13 9 -22t23 -14.5t30 -8t30 -2.5q35 0 60 15t25 53q0 17 -5.5 30t-18.5 25t-33 24t-49 27q-53 27 -88.5 50t-56.5 44t-30 41.5t-9 43.5q0 32 15 58.5t43 46t67.5 30t88.5 10.5q25 0 49 -3
q-25 19 -42 44t-17 54q0 33 21.5 60t57 45.5t81 29t92.5 10.5q37 0 86 -7t93.5 -24.5t75.5 -46t31 -71.5v-106h150v-25h-150v-345q0 -13 1 -32.5t8 -37.5t22.5 -31t43.5 -13q36 0 72.5 22t71.5 57q0 -19 -9 -38.5t-30 -35.5t-55 -26t-84 -10q-90 0 -145.5 36t-55.5 108v346
h-60v25h60v103q0 44 -7.5 69.5t-24 38t-42 16t-61.5 3.5q-40 0 -79 -8.5t-70 -24t-50 -38t-19 -50.5q0 -11 4.5 -24t18.5 -28t40 -33t68 -40q32 -16 54 -44t22 -66q0 -36 -20 -58.5t-53 -22.5q-32 0 -54 20t-22 55q0 21 6.5 37t11.5 24q8 16 8 20q0 10 -20 25t-51 15
q-32 0 -54.5 -19.5t-22.5 -49.5q0 -20 10 -36.5t24 -29t29.5 -21.5t26.5 -15q60 -31 98 -56.5t60 -46.5t30.5 -40t8.5 -39q0 -33 -19 -61t-52 -48t-77 -31t-94 -11q-39 0 -79.5 8t-74 25.5t-54.5 46t-21 69.5v9t1 8q-11 -11 -25 -26t-31 -35q-21 -25 -41 -44.5t-44.5 -33
t-55.5 -20.5t-74 -7q-72 0 -126.5 20t-91.5 56t-56 86t-19 110zM364 375q0 21 -4 42t-12.5 37t-21.5 26t-31 10t-33.5 -11.5t-27.5 -39.5t-18.5 -74t-6.5 -115q30 2 58 6.5t49.5 17.5t34.5 37t13 64z" />
    <glyph glyph-name="uniE02E" unicode="&#xe02e;" horiz-adv-x="1018" 
d="M13 604q0 19 10.5 37t28 32.5t41 23t49.5 8.5q21 0 42 -6t37.5 -18.5t26.5 -31.5t10 -44v-105h312q49 0 86.5 -18.5t59.5 -66.5l105 -228l103 264q4 9 4 16q0 6 -6 10t-14.5 5.5t-18.5 2t-18 0.5h-8v15h160v-15q-34 0 -47.5 -6.5t-21.5 -27.5l-199 -511
q-17 -45 -34 -74.5t-35.5 -47.5t-38.5 -25.5t-43 -7.5q-48 0 -76 25t-28 65q0 41 25 60.5t55 19.5q34 0 52.5 -21t18.5 -51q0 -17 -6 -34t-20 -34q28 5 51.5 34t48.5 91l18 45l-191 413q-5 10 -13.5 23.5t-18.5 25.5t-20.5 20t-20.5 8h-221v-345q0 -13 1 -32.5t8 -37.5
t22.5 -31t43.5 -13q36 0 72.5 22t71.5 57q0 -19 -9 -38.5t-30 -35.5t-55 -26t-84 -10q-90 0 -145.5 36t-55.5 109v345h-60v25h60v105q0 19 -7 26.5t-17 7.5q-13 0 -29 -9.5t-32 -25.5z" />
    <glyph glyph-name="uniE02F" unicode="&#xe02f;" horiz-adv-x="1020" 
d="M94 500v1q0 47 16.5 86t49 67.5t79.5 44.5t108 16q48 0 82.5 -9.5t56.5 -25t32.5 -35.5t10.5 -41q0 -32 -20.5 -52.5t-53.5 -20.5q-32 0 -54 21.5t-22 60.5q0 15 4.5 36t16.5 42q-15 5 -36 5q-26 0 -46.5 -8.5t-34.5 -30.5t-21.5 -59.5t-7.5 -96.5v-1h318q50 0 87 -18.5
t59 -66.5l105 -228l103 264q4 9 4 16q0 6 -6 10t-14.5 5.5t-18.5 2t-18 0.5h-8v15h160v-15q-34 0 -47.5 -6.5t-21.5 -27.5l-199 -511q-17 -45 -34 -74.5t-35.5 -47.5t-38.5 -25.5t-43 -7.5q-48 0 -76 25t-28 65q0 41 25 60.5t55 19.5q34 0 52.5 -21t18.5 -51q0 -17 -6 -34
t-20 -34q28 5 51.5 34t48.5 91l18 45l-191 413q-5 10 -13.5 23.5t-18.5 25.5t-20.5 20t-20.5 8h-227v-375q0 -22 1 -38.5t6.5 -26.5t18 -15t34.5 -5v-15h-280v15q23 0 35 5t17.5 15t6.5 26.5t1 38.5v375h-60v25h60z" />
    <glyph glyph-name="uniE030" unicode="&#xe030;" horiz-adv-x="844" 
d="M42 685v15h548q29 0 57.5 -6t51 -18.5t37 -31t14.5 -43.5v-502q0 -22 1 -38t6.5 -26t18 -15t34.5 -5v-15h-280v15q23 0 35 5t17.5 15t6.5 26.5t1 38.5v440q0 24 -1 48.5t-7 43.5t-19.5 31t-37.5 12h-258v-315h115q17 0 26 9.5t13.5 24t5 32t0.5 34.5h30v-225h-30
q0 17 -0.5 34.5t-5 32t-13.5 24t-26 9.5h-115v-235q0 -22 1 -38.5t6.5 -26.5t18 -15t34.5 -5v-15h-285v15q23 0 35 5t17.5 15t6.5 26.5t1 38.5v500q0 23 -1 39t-6.5 26t-17.5 15t-35 5z" />
    <glyph glyph-name="uniE031" unicode="&#xe031;" horiz-adv-x="863" 
d="M38 700h658q35 -1 60 -23.5t25 -56.5q0 -17 -7 -32.5t-18.5 -27t-27 -18.5t-32.5 -7t-32.5 7t-27 18.5t-18.5 27t-7 32.5q0 21 -7.5 32t-21 16t-31.5 6t-39 1h-99v-575q0 -22 1 -38.5t6.5 -26.5t18 -15t34.5 -5v-15h-285v15q23 0 35 5t17.5 15t6.5 26.5t1 38.5v575h-115
q-24 0 -37.5 -12t-19.5 -31t-7 -43.5t-1 -48.5h-30v160zM531 404q0 19 10.5 37t28 32.5t41 23t49.5 8.5q21 0 42 -6t37.5 -18.5t26.5 -31.5t10 -44v-305q0 -22 1 -38.5t6.5 -26.5t18 -15t34.5 -5v-15h-280v15q23 0 35 5t17.5 15t6.5 26.5t1 38.5v305q0 19 -7 26.5t-17 7.5
q-13 0 -29 -9.5t-32 -25.5z" />
    <glyph glyph-name="uniE032" unicode="&#xe032;" horiz-adv-x="862" 
d="M42 685v15h653q35 -1 60 -23.5t25 -56.5q0 -17 -7 -32.5t-18.5 -27t-27 -18.5t-32.5 -7t-32.5 7t-27 18.5t-18.5 27t-7 32.5q0 21 -7.5 32t-21 16t-31.5 6t-39 1h-244v-315h115q17 0 26 9.5t13.5 24t5 32t0.5 34.5h30v-225h-30q0 17 -0.5 34.5t-5 32t-13.5 24t-26 9.5
h-115v-235q0 -22 1 -38.5t6.5 -26.5t18 -15t34.5 -5v-15h-285v15q23 0 35 5t17.5 15t6.5 26.5t1 38.5v500q0 23 -1 39t-6.5 26t-17.5 15t-35 5zM530 404q0 19 10.5 37t28 32.5t41 23t49.5 8.5q21 0 42 -6t37.5 -18.5t26.5 -31.5t10 -44v-305q0 -22 1 -38.5t6.5 -26.5t18 -15
t34.5 -5v-15h-280v15q23 0 35 5t17.5 15t6.5 26.5t1 38.5v305q0 19 -7 26.5t-17 7.5q-13 0 -29 -9.5t-32 -25.5z" />
    <glyph glyph-name="uniE033" unicode="&#xe033;" horiz-adv-x="898" 
d="M272 -15q-39 0 -79.5 8t-74 25.5t-54.5 46t-21 69.5q0 40 21 64.5t59 24.5t56.5 -23t18.5 -57q0 -29 -17 -60q-2 -4 -4 -8.5t-2 -10.5q0 -13 9 -22t23 -14.5t30 -8t30 -2.5q35 0 60 15t25 53q0 17 -5.5 30t-18.5 25t-33 24t-49 27q-53 27 -88.5 50t-56.5 44t-30 41.5
t-9 43.5q0 32 15 58.5t43 46t67.5 30t88.5 10.5q25 0 49 -3q-25 19 -42 44t-17 54q0 33 21.5 60t57 45.5t81 29t92.5 10.5q37 0 86 -7t93.5 -24.5t75.5 -46t31 -71.5v-505q0 -22 1 -38.5t6.5 -26.5t18 -15t34.5 -5v-15h-280v15q23 0 35 5t17.5 15t6.5 26.5t1 38.5v502
q0 44 -7.5 69.5t-24 38t-42 16t-61.5 3.5q-40 0 -79 -8.5t-70 -24t-50 -38t-19 -50.5q0 -11 4.5 -24t18.5 -28t40 -33t68 -40q32 -16 54 -44t22 -66q0 -36 -20 -58.5t-53 -22.5q-32 0 -54 20t-22 55q0 21 6.5 37t11.5 24q8 16 8 20q0 10 -20 25t-51 15q-32 0 -54.5 -19.5
t-22.5 -49.5q0 -20 10 -36.5t24 -29t29.5 -21.5t26.5 -15q60 -31 98 -56.5t60 -46.5t30.5 -40t8.5 -39q0 -33 -19 -61t-52 -48t-77 -31t-94 -11z" />
    <glyph glyph-name="uniE034" unicode="&#xe034;" horiz-adv-x="889" 
d="M43 250q0 125 69 195t203 70h15t15 -1q-29 20 -49.5 45t-20.5 57t21.5 57.5t57 43.5t80.5 28t91 10q38 0 84.5 -7t88 -24.5t69.5 -46t28 -71.5v-506q0 -22 1 -38.5t6.5 -26.5t18 -15t34.5 -5v-15h-280v15q23 0 35 5t17.5 15t6.5 26.5t1 38.5v503q0 44 -5 69.5t-18 38
t-35.5 16t-58.5 3.5q-40 0 -79 -8t-70 -22.5t-50 -35.5t-19 -48q0 -10 4.5 -22t18 -26t38 -31.5t64.5 -39.5q38 -16 55 -40.5t17 -52.5q0 -32 -20.5 -52.5t-53.5 -20.5q-32 0 -54 21.5t-22 60.5q0 15 4.5 35t16.5 41q-12 5 -27 5q-19 0 -41.5 -11t-41.5 -38t-32 -73.5
t-13 -118.5t13 -118t33 -72.5t43 -37t44 -10.5q35 0 77 22.5t77 57.5q0 -19 -10.5 -38.5t-33.5 -35.5t-58.5 -26t-85.5 -10q-129 0 -199 68.5t-70 196.5z" />
    <glyph glyph-name="uniE035" unicode="&#xe035;" horiz-adv-x="1361" 
d="M104 620q0 17 7 32.5t18.5 27t27 18.5t32.5 7t32.5 -7t27 -18.5t18.5 -27t7 -32.5q0 -19 -10 -39q21 10 49.5 15.5t63.5 5.5q44 0 86 -9t74 -27.5t51.5 -46t19.5 -64.5v-10q49 74 147 74q28 0 55.5 -5.5t51 -16t41 -25t26.5 -31.5q26 40 63 59t82 19q41 0 76 -14
t60.5 -37t40 -52.5t14.5 -61.5v-250q0 -19 7.5 -29t18.5 -10t27 9.5t32 25.5q0 -19 -10.5 -37t-27.5 -32.5t-40 -23t-49 -8.5q-22 0 -43.5 7t-38 20.5t-26.5 33t-10 44.5v250q0 34 -7 58.5t-18 40.5t-25.5 23.5t-28.5 7.5q-16 0 -29.5 -7.5t-24 -19.5t-19 -26t-13.5 -27
v-300q0 -22 1 -38.5t6.5 -26.5t18 -15t34.5 -5v-15h-280v15q23 0 35 5t17.5 15t6.5 26.5t1 38.5v250q0 34 -7 58.5t-18 40.5t-25 23.5t-28 7.5q-16 0 -29.5 -7.5t-24.5 -19.5t-19.5 -26t-13.5 -28v-299q0 -22 1 -38.5t6.5 -26.5t18 -15t34.5 -5v-15h-280v15q23 0 35 4.5
t17.5 13.5t6.5 24t1 36v352q0 22 -3.5 45t-13.5 41.5t-27.5 30t-46.5 11.5q-17 0 -39.5 -5.5t-60.5 -19.5q-19 -7 -36.5 -12t-31.5 -5q-18 0 -35 6t-29.5 17.5t-20 27t-7.5 34.5zM24 404q0 19 10.5 37t28 32.5t41 23t49.5 8.5q21 0 42 -6t37.5 -18.5t26.5 -31.5t10 -44v-305
q0 -22 1 -38.5t6.5 -26.5t18 -15t34.5 -5v-15h-280v15q23 0 35 5t17.5 15t6.5 26.5t1 38.5v305q0 19 -7 26.5t-17 7.5q-13 0 -29 -9.5t-32 -25.5z" />
    <glyph glyph-name="uniE036" unicode="&#xe036;" horiz-adv-x="1037" 
d="M104 620q0 17 7 32.5t18.5 27t27 18.5t32.5 7t32.5 -7t27 -18.5t18.5 -27t7 -32.5q0 -19 -10 -39q21 10 49.5 15.5t61.5 5.5q45 0 87 -10.5t75 -30.5t52.5 -49t19.5 -66q25 37 60.5 55t80.5 18q41 0 76 -14t60.5 -37t39.5 -52.5t14 -61.5v-250q0 -19 7.5 -29t18.5 -10
t27 9.5t32 25.5q0 -19 -10.5 -37t-27.5 -32.5t-40 -23t-49 -8.5q-22 0 -43.5 7t-38 20.5t-26.5 33t-10 44.5v250q0 34 -7 58.5t-18 40.5t-25 23.5t-28 7.5q-16 0 -29.5 -7.5t-24.5 -19.5t-19.5 -26t-13.5 -28v-299q0 -22 1 -38.5t6.5 -26.5t18 -15t34.5 -5v-15h-280v15
q23 0 35 5t17.5 15t6.5 26.5t1 38.5v345q0 22 -3.5 45t-13.5 41.5t-27.5 30t-46.5 11.5q-17 0 -39.5 -5.5t-60.5 -19.5q-19 -7 -36.5 -12t-31.5 -5q-18 0 -35 6t-29.5 17.5t-20 27t-7.5 34.5zM24 404q0 19 10.5 37t28 32.5t41 23t49.5 8.5q21 0 42 -6t37.5 -18.5t26.5 -31.5
t10 -44v-305q0 -22 1 -38.5t6.5 -26.5t18 -15t34.5 -5v-15h-280v15q23 0 35 5t17.5 15t6.5 26.5t1 38.5v305q0 19 -7 26.5t-17 7.5q-13 0 -29 -9.5t-32 -25.5z" />
    <glyph glyph-name="uniE037" unicode="&#xe037;" horiz-adv-x="1002" 
d="M104 620q0 17 7 32.5t18.5 27t27 18.5t32.5 7t32.5 -7t27 -18.5t18.5 -27t7 -32.5q0 -19 -10 -39q21 10 49.5 15.5t61.5 5.5q45 0 87 -10.5t75 -30.5t52.5 -49t19.5 -66v-2q23 35 58.5 54.5t80.5 19.5q41 0 78 -17t64.5 -51t43.5 -83.5t16 -115.5q0 -65 -16 -114
t-44.5 -82t-68 -50t-86.5 -17q-30 0 -52 6t-37 14q-8 4 -15.5 9t-15.5 11v-125q0 -23 1 -39t6.5 -26t18 -15t34.5 -5v-15h-280v15q23 0 35 5t17.5 15t6.5 26t1 39v546q0 22 -3.5 45t-13.5 41.5t-27.5 30t-46.5 11.5q-17 0 -39.5 -5.5t-60.5 -19.5q-19 -7 -36.5 -12t-31.5 -5
h-3q-18 0 -34 6.5t-28 17.5t-19.5 27t-7.5 34zM24 404q0 19 10.5 37t28 32.5t41 23t49.5 8.5q21 0 42 -6t37.5 -18.5t26.5 -31.5t10 -44v-305q0 -22 1 -38.5t6.5 -26.5t18 -15t34.5 -5v-15h-280v15q23 0 35 5t17.5 15t6.5 26.5t1 38.5v305q0 19 -7 26.5t-17 7.5
q-13 0 -29 -9.5t-32 -25.5zM695 20q17 0 32.5 9t27 34t18.5 69.5t7 116.5q0 73 -7 118.5t-18 71t-25 34.5t-29 9q-16 0 -29 -7.5t-23.5 -19t-19 -25.5t-14.5 -28v-341q16 -15 35 -28t45 -13z" />
    <glyph glyph-name="uniE038" unicode="&#xe038;" horiz-adv-x="900" 
d="M106 620q0 17 7 32.5t18.5 27t27 18.5t32.5 7t32.5 -7t27 -18.5t18.5 -27t7 -32.5q0 -20 -9 -37q43 19 105 19q46 0 89 -12t76.5 -34t53.5 -52.5t20 -67.5v-1q26 33 62 51t75 18q25 0 46.5 -7.5t37.5 -20.5t25 -30.5t9 -37.5q0 -33 -23 -55t-58 -22q-20 0 -33.5 7.5
t-22 19t-12 26.5t-3.5 30q0 20 5 38.5t11 26.5q-14 0 -30.5 -8t-32.5 -20.5t-30 -27.5t-22 -30v-289q0 -22 1 -38.5t6.5 -26.5t18 -15t34.5 -5v-15h-280v15q23 0 35 5t17.5 15t6.5 26.5t1 38.5v345q0 22 -3.5 45t-13.5 41.5t-27.5 30t-46.5 11.5q-17 0 -39.5 -5.5
t-60.5 -19.5q-19 -7 -36.5 -12t-31.5 -5h-2q-18 0 -34 6.5t-28 18t-19 27t-7 33.5zM85 439q-13 0 -29 -9.5t-32 -25.5q0 19 10.5 37t28 32.5t41 23t49.5 8.5q21 0 42 -6t37.5 -18.5t26.5 -31.5t10 -44v-305q0 -22 1 -38.5t6.5 -26.5t18 -15t34.5 -5v-15h-280v15q23 0 35 5
t17.5 15t6.5 26.5t1 38.5v305q0 19 -7 26.5t-17 7.5z" />
    <glyph glyph-name="uniE039" unicode="&#xe039;" horiz-adv-x="615" 
d="M477 -5q-36 0 -58 17.5t-36 67.5q-6 -19 -17 -36.5t-27 -30.5t-37.5 -20.5t-50.5 -7.5q-32 0 -69 12t-68.5 40.5t-52.5 77.5t-21 122q0 85 28.5 136.5t74.5 79.5t104 37.5t116 9.5h160v-400q0 -22 7 -31t18 -9q14 0 30.5 12t28.5 23q0 -8 -6 -25t-21 -33.5t-40 -29
t-63 -12.5zM210 250q0 -22 1.5 -59t9 -73t24.5 -62.5t48 -26.5q17 0 29 7.5t20 18.5t13 23t8 22v372q-23 0 -49.5 -3.5t-49.5 -24.5t-38.5 -66t-15.5 -128z" />
    <glyph glyph-name="uniE03A" unicode="&#xe03a;" horiz-adv-x="877" 
d="M38 700h585v-160h-30q0 24 -1 48.5t-7 43.5t-19.5 31t-37.5 12h-115v-575q0 -22 1 -38.5t6.5 -26.5t18 -15t34.5 -5v-15h-285v15q23 0 35 5t17.5 15t6.5 26.5t1 38.5v575h-115q-24 0 -37.5 -12t-19.5 -31t-7 -43.5t-1 -48.5h-30v160zM438 500h424v-114h-25
q0 18 -0.5 34.5t-5 30t-14 21.5t-27.5 8h-78v-409q0 -16 0.5 -27t4.5 -18.5t13 -11t25 -3.5v-11h-210v11q16 0 25 3.5t13 11t4.5 18.5t0.5 27v409h-78q-18 0 -27.5 -8t-14 -21.5t-5 -30t-0.5 -34.5h-25v114z" />
    <glyph glyph-name="uniE03B" unicode="&#xe03b;" horiz-adv-x="999" 
d="M1003 700v-160h-30q0 24 -1 48.5t-7 43.5t-19.5 31t-37.5 12h-115v-575q0 -22 1 -38.5t6.5 -26.5t18 -15t34.5 -5v-15h-285v15q23 0 35 5t17.5 15t6.5 26.5t1 38.5v575h-215v-575q0 -22 1 -38.5t6.5 -26.5t18 -15t34.5 -5v-15h-285v15q23 0 35 5t17.5 15t6.5 26.5t1 38.5
v575h-115q-24 0 -37.5 -12t-19.5 -31t-7 -43.5t-1 -48.5h-30v160h965z" />
    <glyph glyph-name="uniE03C" unicode="&#xe03c;" horiz-adv-x="1175" 
d="M668 459q0 62 18.5 109.5t51 80t76.5 49.5t95 17t95 -17t76.5 -49.5t51 -80t18.5 -109.5q0 -61 -18.5 -109t-51 -80t-76.5 -49t-95 -17t-95 17t-76.5 49t-51 80t-18.5 109zM42 700h280q65 0 117.5 -12t89.5 -34t56.5 -54t19.5 -73q0 -75 -63.5 -119t-175.5 -52
q29 -11 56 -24.5t50.5 -27.5t42.5 -27t32 -22q42 -30 86.5 -57.5t91 -48t93.5 -33t92 -12.5q57 0 110 21.5t104 69.5q0 -28 -18.5 -64.5t-58.5 -68.5t-102.5 -54.5t-151.5 -22.5q-87 0 -154 24t-126 71t-116 116t-124 159h-6v-255q0 -22 1 -38.5t6.5 -26.5t18 -15t34.5 -5
v-15h-285v15q23 0 35 5t17.5 15t6.5 26.5t1 38.5v500q0 23 -1 39t-6.5 26t-17.5 15t-35 5v15zM808 459q0 -69 9 -114.5t23 -72.5t32.5 -37.5t36.5 -10.5t36.5 10.5t32.5 37.5t23 72.5t9 114.5q0 70 -9 115.5t-23 72.5t-32.5 37.5t-36.5 10.5t-36.5 -10.5t-32.5 -37.5
t-23 -72.5t-9 -115.5zM322 380q12 0 31.5 8.5t37.5 26t31 45.5t13 67t-13 67t-31 46t-37.5 26.5t-31.5 8.5h-55v-295h55z" />
    <glyph glyph-name="uniE03D" unicode="&#xe03d;" horiz-adv-x="1146" 
d="M42 700h280q65 0 117.5 -12t89.5 -34t56.5 -54t19.5 -73q0 -75 -63.5 -119t-175.5 -52q29 -11 56 -24.5t50.5 -27.5t42.5 -27t32 -22q42 -30 86.5 -57.5t91 -48t93.5 -33t92 -12.5q57 0 110 21.5t104 69.5q0 -28 -18.5 -64.5t-58.5 -68.5t-102.5 -54.5t-151.5 -22.5
q-87 0 -154 24t-126 71t-116 116t-124 159h-6v-255q0 -22 1 -38.5t6.5 -26.5t18 -15t34.5 -5v-15h-285v15q23 0 35 5t17.5 15t6.5 26.5t1 38.5v500q0 23 -1 39t-6.5 26t-17.5 15t-35 5v15zM927 463q12 0 18.5 6.5t9.5 16.5t3.5 22t0.5 24h25v-157h-25q0 12 -0.5 24
t-3.5 21.5t-9.5 16t-18.5 6.5h-74v-213h158q17 0 26.5 8t14 21t5 29.5t0.5 33.5h21v-112h-402v11q16 0 24.5 3.5t12.5 10.5t4.5 18t0.5 27v350q0 16 -0.5 27t-4.5 18t-12.5 10.5t-24.5 3.5v11h392v-112h-25q0 17 -0.5 33.5t-5 29.5t-14 21t-26.5 8h-144v-217h74zM267 380h55
q12 0 31.5 8.5t37.5 26t31 45.5t13 67t-13 67t-31 46t-37.5 26.5t-31.5 8.5h-55v-295z" />
    <glyph glyph-name="uniE03E" unicode="&#xe03e;" horiz-adv-x="1114" 
d="M737 216h-112v11q17 0 30 7t16 14l190 462h25l182 -434q7 -15 20 -15q11 0 22 7.5t18 14.5q0 -15 -10.5 -28t-27 -22.5t-36.5 -14.5t-39 -5t-33.5 5.5t-25 14.5t-17.5 20t-12 23l-35 84h-150l-46 -112q-2 -4 -2 -6q0 -11 13 -13t30 -2v-11zM1124 195q0 -28 -18.5 -64.5
t-58.5 -68.5t-102.5 -54.5t-151.5 -22.5q-87 0 -154 24t-126 71t-116 116t-124 159h-6v-255q0 -22 1 -38.5t6.5 -26.5t18 -15t34.5 -5v-15h-285v15q23 0 35 5t17.5 15t6.5 26.5t1 38.5v500q0 23 -1 39t-6.5 26t-17.5 15t-35 5v15h280q65 0 117.5 -12t89.5 -34t56.5 -54
t19.5 -73q0 -75 -63.5 -119t-175.5 -52q29 -11 56 -24.5t50.5 -27.5t42.5 -27t32 -22q42 -30 86.5 -57.5t91 -48t93.5 -33t92 -12.5q57 0 110 21.5t104 69.5zM267 380h55q12 0 31.5 8.5t37.5 26t31 45.5t13 67t-13 67t-31 46t-37.5 26.5t-31.5 8.5h-55v-295zM750 380h133
l-67 161z" />
    <glyph glyph-name="uniE03F" unicode="&#xe03f;" horiz-adv-x="1115" 
d="M1124 195q0 -28 -18.5 -64.5t-58.5 -68.5t-102.5 -54.5t-151.5 -22.5q-87 0 -154 24t-126 71t-116 116t-124 159h-6v-255q0 -22 1 -38.5t6.5 -26.5t18 -15t34.5 -5v-15h-285v15q23 0 35 5t17.5 15t6.5 26.5t1 38.5v500q0 23 -1 39t-6.5 26t-17.5 15t-35 5v15h280
q65 0 117.5 -12t89.5 -34t56.5 -54t19.5 -73q0 -75 -63.5 -119t-175.5 -52q29 -11 56 -24.5t50.5 -27.5t42.5 -27t32 -22q42 -30 86.5 -57.5t91 -48t93.5 -33t92 -12.5q57 0 110 21.5t104 69.5zM1043 631q0 21 -1 32.5t-6 17.5t-16.5 7.5t-32.5 1.5v10h137v-10
q-21 0 -32.5 -1.5t-16.5 -7.5t-6 -17.5t-1 -32.5v-245q0 -88 -50.5 -137t-138.5 -49q-43 0 -80 13t-64 37t-42 58.5t-15 77.5v255q0 16 -0.5 25.5t-4.5 15t-12.5 7t-24.5 1.5v10h219v-10q-16 0 -24.5 -1.5t-12.5 -7t-4.5 -15t-0.5 -25.5v-255q0 -47 6.5 -78.5t18.5 -50.5
t28.5 -27t36.5 -8q25 0 50 11t45 32t32.5 51.5t12.5 69.5v245zM267 380h55q12 0 31.5 8.5t37.5 26t31 45.5t13 67t-13 67t-31 46t-37.5 26.5t-31.5 8.5h-55v-295z" />
    <glyph glyph-name="acute" unicode="&#xb4;" horiz-adv-x="281" 
d="M233 700l-115 -100h-30l25 100h120z" />
    <glyph glyph-name="tilde" unicode="&#x2dc;" horiz-adv-x="447" 
d="M309 700h15q-1 -13 -6 -28.5t-13.5 -28.5t-21 -21.5t-28.5 -8.5q-12 0 -23.5 4t-21.5 9q-11 5 -21.5 9t-19.5 4q-13 0 -19.5 -7t-10.5 -15h-15q2 12 7 27t14 28t21 22t28 9q11 0 22.5 -4.5t22.5 -9.5t21.5 -9t20.5 -4q14 0 20 7.5t8 16.5z" />
    <glyph glyph-name="dieresis" unicode="&#xa8;" horiz-adv-x="580" 
d="M155 648q0 23 16 38.5t41 15.5q22 0 38 -15.5t16 -38.5t-16 -39t-38 -16q-25 0 -41 16t-16 39zM314 647q0 23 17 39t40 16t38.5 -16t15.5 -39t-15.5 -38.5t-38.5 -15.5t-40 15.5t-17 38.5z" />
    <glyph glyph-name="dotaccent" unicode="&#x2d9;" horiz-adv-x="183" 
d="M36 648q0 23 16 38.5t41 15.5q22 0 38 -15.5t16 -38.5t-16 -39t-38 -16q-25 0 -41 16t-16 39z" />
    <glyph glyph-name="dotlessi" unicode="&#x131;" horiz-adv-x="354" 
d="M83 439q-13 0 -29 -9.5t-32 -25.5q0 19 10.5 37t28 32.5t41 23t49.5 8.5q21 0 42 -6t37.5 -18.5t26.5 -31.5t10 -44v-305q0 -22 1 -38.5t6.5 -26.5t18 -15t34.5 -5v-15h-280v15q23 0 35 5t17.5 15t6.5 26.5t1 38.5v305q0 19 -7 26.5t-17 7.5z" />
    <glyph glyph-name="breve" unicode="&#x2d8;" horiz-adv-x="391" 
d="M128 700q8 -22 27 -29t41 -7q20 0 40 6.5t28 29.5h20q-1 -18 -8 -35t-18.5 -30.5t-27 -22t-35.5 -8.5q-19 0 -34.5 8t-27 21.5t-17.5 31t-8 35.5h20z" />
    <glyph glyph-name="ring" unicode="&#x2da;" horiz-adv-x="300" 
d="M94 646q0 23 16 39.5t40 16.5t40 -16.5t16 -39.5t-16.5 -39.5t-39.5 -16.5t-39.5 16.5t-16.5 39.5zM181 646q0 13 -9 22t-22 9q-14 0 -22.5 -8.5t-8.5 -22.5q0 -13 9 -22t22 -9t22 9t9 22z" />
    <glyph glyph-name="circumflex" unicode="&#x2c6;" horiz-adv-x="418" 
d="M98 600l25 100h173l25 -100h-30l-81 71l-82 -71h-30z" />
    <glyph glyph-name="caron" unicode="&#x2c7;" horiz-adv-x="418" 
d="M87 700h30l92 -72l92 72h30l-42 -100h-160z" />
    <glyph glyph-name="cedilla" unicode="&#xb8;" horiz-adv-x="225" 
d="M68 0h30v-50q17 0 34 -4.5t30.5 -13.5t22 -23.5t8.5 -33.5q0 -22 -10 -36.5t-26.5 -23t-36 -12t-39.5 -3.5q-10 0 -23 1t-26 4v30q8 -6 17.5 -8t17.5 -2q24 0 37.5 13.5t13.5 36.5q0 25 -13.5 37.5t-36.5 12.5v75z" />
    <glyph glyph-name="ogonek" unicode="&#x2db;" horiz-adv-x="245" 
d="M213 0q-19 -9 -36 -21.5t-30 -27.5t-21 -33t-8 -39q0 -44 38 -44q27 0 47 20v-30q-17 -8 -31.5 -11.5t-31.5 -3.5q-18 0 -37 3.5t-34.5 12.5t-25.5 23.5t-10 35.5q0 32 19 52.5t37 30.5q8 4 20.5 10t25.5 10.5t23.5 8t14.5 3.5h40z" />
    <glyph glyph-name="macron" unicode="&#xaf;" horiz-adv-x="500" 
d="M120 660v40h260v-40h-260z" />
    <glyph glyph-name="uniE006" unicode="&#xe006;" horiz-adv-x="677" 
d="M23 404q0 19 10.5 37t27.5 32.5t40.5 23t48.5 8.5q22 0 43.5 -7t38 -20.5t26.5 -33t10 -44.5v-250q0 -34 7 -58.5t18 -40.5t25 -23.5t28 -7.5q16 0 29.5 7.5t24.5 19.5t19.5 26.5t13.5 27.5v304q0 19 -7 26.5t-17 7.5q-13 0 -29 -9.5t-32 -25.5q0 19 10.5 37t28 32.5
t41 23t49.5 8.5q21 0 42 -6t37.5 -18.5t26.5 -31.5t10 -44v-406q0 -47 -19 -86t-55.5 -67.5t-90 -44.5t-123.5 -16q-54 0 -93 9.5t-64 25t-37 36t-12 42.5q0 31 20.5 51t53.5 20q32 0 54 -21.5t22 -60.5q0 -15 -4.5 -36t-16.5 -42q15 -5 49 -5q36 0 65 8.5t49.5 30.5
t31 59.5t10.5 96.5v51q-49 -65 -135 -65q-41 0 -76 14t-60.5 37t-39.5 53t-14 61v250q0 19 -7.5 29t-18.5 10t-27 -9.5t-32 -25.5z" />
    <glyph glyph-name="one" unicode="1" horiz-adv-x="1479" 
d="M1459 318q0 -80 -45 -126t-125 -46t-125 46t-45 126t45 126t125 46t125 -46.5t45 -125.5zM332 317q0 -60 -34.5 -103.5t-92.5 -55.5q-17 -4 -34.5 -4.5t-34.5 -0.5h-116v330h119q41 0 76 -9t61 -29t41 -51.5t15 -76.5zM397 153v330h239v-64h-154v-57h143v-63h-143v-82
h154v-64h-239zM969 153v221l-61 -144h-59l-62 144v-221h-80v330h99l74 -166l75 166h99v-330h-85zM1289 208q23 0 39 10t25.5 25.5t13.5 35.5t4 39q0 20 -4 39.5t-13.5 35t-25.5 25.5t-39 10t-39 -10t-25.5 -25.5t-13.5 -35t-4 -39.5q0 -19 4 -39t13.5 -35.5t25.5 -25.5
t39 -10zM244 319q0 29 -8.5 48.5t-23.5 31.5t-37 17t-49 5h-21v-206h21q55 0 86.5 22t31.5 82z" />
    <glyph glyph-name="two" unicode="2" horiz-adv-x="1479" 
d="M1459 318q0 -80 -45 -126t-125 -46t-125 46t-45 126t45 126t125 46t125 -46.5t45 -125.5zM332 317q0 -60 -34.5 -103.5t-92.5 -55.5q-17 -4 -34.5 -4.5t-34.5 -0.5h-116v330h119q41 0 76 -9t61 -29t41 -51.5t15 -76.5zM397 153v330h239v-64h-154v-57h143v-63h-143v-82
h154v-64h-239zM969 153v221l-61 -144h-59l-62 144v-221h-80v330h99l74 -166l75 166h99v-330h-85zM1289 208q23 0 39 10t25.5 25.5t13.5 35.5t4 39q0 20 -4 39.5t-13.5 35t-25.5 25.5t-39 10t-39 -10t-25.5 -25.5t-13.5 -35t-4 -39.5q0 -19 4 -39t13.5 -35.5t25.5 -25.5
t39 -10zM244 319q0 29 -8.5 48.5t-23.5 31.5t-37 17t-49 5h-21v-206h21q55 0 86.5 22t31.5 82z" />
    <glyph glyph-name="zero" unicode="0" horiz-adv-x="1479" 
d="M1459 318q0 -80 -45 -126t-125 -46t-125 46t-45 126t45 126t125 46t125 -46.5t45 -125.5zM332 317q0 -60 -34.5 -103.5t-92.5 -55.5q-17 -4 -34.5 -4.5t-34.5 -0.5h-116v330h119q41 0 76 -9t61 -29t41 -51.5t15 -76.5zM397 153v330h239v-64h-154v-57h143v-63h-143v-82
h154v-64h-239zM969 153v221l-61 -144h-59l-62 144v-221h-80v330h99l74 -166l75 166h99v-330h-85zM1289 208q23 0 39 10t25.5 25.5t13.5 35.5t4 39q0 20 -4 39.5t-13.5 35t-25.5 25.5t-39 10t-39 -10t-25.5 -25.5t-13.5 -35t-4 -39.5q0 -19 4 -39t13.5 -35.5t25.5 -25.5
t39 -10zM244 319q0 29 -8.5 48.5t-23.5 31.5t-37 17t-49 5h-21v-206h21q55 0 86.5 22t31.5 82z" />
    <glyph glyph-name="three" unicode="3" horiz-adv-x="1479" 
d="M1459 318q0 -80 -45 -126t-125 -46t-125 46t-45 126t45 126t125 46t125 -46.5t45 -125.5zM332 317q0 -60 -34.5 -103.5t-92.5 -55.5q-17 -4 -34.5 -4.5t-34.5 -0.5h-116v330h119q41 0 76 -9t61 -29t41 -51.5t15 -76.5zM397 153v330h239v-64h-154v-57h143v-63h-143v-82
h154v-64h-239zM969 153v221l-61 -144h-59l-62 144v-221h-80v330h99l74 -166l75 166h99v-330h-85zM1289 208q23 0 39 10t25.5 25.5t13.5 35.5t4 39q0 20 -4 39.5t-13.5 35t-25.5 25.5t-39 10t-39 -10t-25.5 -25.5t-13.5 -35t-4 -39.5q0 -19 4 -39t13.5 -35.5t25.5 -25.5
t39 -10zM244 319q0 29 -8.5 48.5t-23.5 31.5t-37 17t-49 5h-21v-206h21q55 0 86.5 22t31.5 82z" />
    <glyph glyph-name="four" unicode="4" horiz-adv-x="1479" 
d="M1459 318q0 -80 -45 -126t-125 -46t-125 46t-45 126t45 126t125 46t125 -46.5t45 -125.5zM332 317q0 -60 -34.5 -103.5t-92.5 -55.5q-17 -4 -34.5 -4.5t-34.5 -0.5h-116v330h119q41 0 76 -9t61 -29t41 -51.5t15 -76.5zM397 153v330h239v-64h-154v-57h143v-63h-143v-82
h154v-64h-239zM969 153v221l-61 -144h-59l-62 144v-221h-80v330h99l74 -166l75 166h99v-330h-85zM1289 208q23 0 39 10t25.5 25.5t13.5 35.5t4 39q0 20 -4 39.5t-13.5 35t-25.5 25.5t-39 10t-39 -10t-25.5 -25.5t-13.5 -35t-4 -39.5q0 -19 4 -39t13.5 -35.5t25.5 -25.5
t39 -10zM244 319q0 29 -8.5 48.5t-23.5 31.5t-37 17t-49 5h-21v-206h21q55 0 86.5 22t31.5 82z" />
    <glyph glyph-name="five" unicode="5" horiz-adv-x="1479" 
d="M1459 318q0 -80 -45 -126t-125 -46t-125 46t-45 126t45 126t125 46t125 -46.5t45 -125.5zM332 317q0 -60 -34.5 -103.5t-92.5 -55.5q-17 -4 -34.5 -4.5t-34.5 -0.5h-116v330h119q41 0 76 -9t61 -29t41 -51.5t15 -76.5zM397 153v330h239v-64h-154v-57h143v-63h-143v-82
h154v-64h-239zM969 153v221l-61 -144h-59l-62 144v-221h-80v330h99l74 -166l75 166h99v-330h-85zM1289 208q23 0 39 10t25.5 25.5t13.5 35.5t4 39q0 20 -4 39.5t-13.5 35t-25.5 25.5t-39 10t-39 -10t-25.5 -25.5t-13.5 -35t-4 -39.5q0 -19 4 -39t13.5 -35.5t25.5 -25.5
t39 -10zM244 319q0 29 -8.5 48.5t-23.5 31.5t-37 17t-49 5h-21v-206h21q55 0 86.5 22t31.5 82z" />
    <glyph glyph-name="six" unicode="6" horiz-adv-x="1479" 
d="M1459 318q0 -80 -45 -126t-125 -46t-125 46t-45 126t45 126t125 46t125 -46.5t45 -125.5zM332 317q0 -60 -34.5 -103.5t-92.5 -55.5q-17 -4 -34.5 -4.5t-34.5 -0.5h-116v330h119q41 0 76 -9t61 -29t41 -51.5t15 -76.5zM397 153v330h239v-64h-154v-57h143v-63h-143v-82
h154v-64h-239zM969 153v221l-61 -144h-59l-62 144v-221h-80v330h99l74 -166l75 166h99v-330h-85zM1289 208q23 0 39 10t25.5 25.5t13.5 35.5t4 39q0 20 -4 39.5t-13.5 35t-25.5 25.5t-39 10t-39 -10t-25.5 -25.5t-13.5 -35t-4 -39.5q0 -19 4 -39t13.5 -35.5t25.5 -25.5
t39 -10zM244 319q0 29 -8.5 48.5t-23.5 31.5t-37 17t-49 5h-21v-206h21q55 0 86.5 22t31.5 82z" />
    <glyph glyph-name="seven" unicode="7" horiz-adv-x="1479" 
d="M1459 318q0 -80 -45 -126t-125 -46t-125 46t-45 126t45 126t125 46t125 -46.5t45 -125.5zM332 317q0 -60 -34.5 -103.5t-92.5 -55.5q-17 -4 -34.5 -4.5t-34.5 -0.5h-116v330h119q41 0 76 -9t61 -29t41 -51.5t15 -76.5zM397 153v330h239v-64h-154v-57h143v-63h-143v-82
h154v-64h-239zM969 153v221l-61 -144h-59l-62 144v-221h-80v330h99l74 -166l75 166h99v-330h-85zM1289 208q23 0 39 10t25.5 25.5t13.5 35.5t4 39q0 20 -4 39.5t-13.5 35t-25.5 25.5t-39 10t-39 -10t-25.5 -25.5t-13.5 -35t-4 -39.5q0 -19 4 -39t13.5 -35.5t25.5 -25.5
t39 -10zM244 319q0 29 -8.5 48.5t-23.5 31.5t-37 17t-49 5h-21v-206h21q55 0 86.5 22t31.5 82z" />
    <glyph glyph-name="nine" unicode="9" horiz-adv-x="1479" 
d="M1459 318q0 -80 -45 -126t-125 -46t-125 46t-45 126t45 126t125 46t125 -46.5t45 -125.5zM332 317q0 -60 -34.5 -103.5t-92.5 -55.5q-17 -4 -34.5 -4.5t-34.5 -0.5h-116v330h119q41 0 76 -9t61 -29t41 -51.5t15 -76.5zM397 153v330h239v-64h-154v-57h143v-63h-143v-82
h154v-64h-239zM969 153v221l-61 -144h-59l-62 144v-221h-80v330h99l74 -166l75 166h99v-330h-85zM1289 208q23 0 39 10t25.5 25.5t13.5 35.5t4 39q0 20 -4 39.5t-13.5 35t-25.5 25.5t-39 10t-39 -10t-25.5 -25.5t-13.5 -35t-4 -39.5q0 -19 4 -39t13.5 -35.5t25.5 -25.5
t39 -10zM244 319q0 29 -8.5 48.5t-23.5 31.5t-37 17t-49 5h-21v-206h21q55 0 86.5 22t31.5 82z" />
    <glyph glyph-name="eight" unicode="8" horiz-adv-x="1479" 
d="M1459 318q0 -80 -45 -126t-125 -46t-125 46t-45 126t45 126t125 46t125 -46.5t45 -125.5zM332 317q0 -60 -34.5 -103.5t-92.5 -55.5q-17 -4 -34.5 -4.5t-34.5 -0.5h-116v330h119q41 0 76 -9t61 -29t41 -51.5t15 -76.5zM397 153v330h239v-64h-154v-57h143v-63h-143v-82
h154v-64h-239zM969 153v221l-61 -144h-59l-62 144v-221h-80v330h99l74 -166l75 166h99v-330h-85zM1289 208q23 0 39 10t25.5 25.5t13.5 35.5t4 39q0 20 -4 39.5t-13.5 35t-25.5 25.5t-39 10t-39 -10t-25.5 -25.5t-13.5 -35t-4 -39.5q0 -19 4 -39t13.5 -35.5t25.5 -25.5
t39 -10zM244 319q0 29 -8.5 48.5t-23.5 31.5t-37 17t-49 5h-21v-206h21q55 0 86.5 22t31.5 82z" />
    <glyph glyph-name="uniE040" unicode="&#xe040;" horiz-adv-x="949" 
d="M959 195q0 -28 -18 -64.5t-53 -68.5t-88 -54.5t-123 -22.5q-137 0 -238 92.5t-172 268.5v-246q0 -22 1 -38.5t6.5 -26.5t18 -15t34.5 -5v-15h-285v15q23 0 35 5t17.5 15t6.5 26.5t1 38.5v500q0 23 -1 39t-6.5 26t-17.5 15t-35 5v15h280q65 0 117.5 -12t89.5 -34t56.5 -54
t19.5 -73q0 -78 -71 -123t-194 -49q25 -13 48 -29.5t43 -33.5t35.5 -32.5t24.5 -26.5q59 -63 124.5 -96t133.5 -33q54 0 107.5 22t102.5 69zM675 700h219v-11q-16 0 -24.5 -3.5t-12.5 -10.5t-4.5 -18t-0.5 -27v-350q0 -16 0.5 -27t4.5 -18t12.5 -10.5t24.5 -3.5v-11h-219v11
q16 0 24.5 3.5t12.5 10.5t4.5 18t0.5 27v350q0 16 -0.5 27t-4.5 18t-12.5 10.5t-24.5 3.5v11zM267 380h55q12 0 31.5 8.5t37.5 26t31 45.5t13 67t-13 67t-31 46t-37.5 26.5t-31.5 8.5h-55v-295z" />
    <glyph glyph-name="uniE041" unicode="&#xe041;" horiz-adv-x="1005" 
d="M38 540v160h958v-160h-30q0 24 -1 48.5t-7 43.5t-19.5 31t-37.5 12h-488v-575q0 -32 2.5 -51.5t19.5 -27.5q12 5 21 11t11 12l241 584h30l231 -551q8 -19 25 -19q14 0 28.5 9.5t22.5 18.5q0 -20 -12.5 -36.5t-32.5 -28t-44.5 -18t-48.5 -6.5q-25 0 -43 7t-30.5 18
t-21.5 25.5t-15 29.5l-44 106h-196l-61 -147q0 -14 16.5 -16.5t38.5 -2.5v-17h-363v15q23 0 35 5t17.5 15t6.5 26.5t1 38.5v575h-115q-24 0 -37.5 -12t-19.5 -31t-7 -43.5t-1 -48.5h-30zM567 209h174l-85 207z" />
    <glyph glyph-name="uniE042" unicode="&#xe042;" horiz-adv-x="615" 
d="M42 685v15h285v-15q-22 0 -34.5 -5t-18 -15t-6.5 -26t-1 -39v-575h215q24 0 37.5 12t19.5 31t7 43.5t1 48.5h30v-160h-535v15q23 0 35 4.5t17.5 15t6.5 26.5t1 39v500q0 23 -1 39t-6.5 26t-17.5 15t-35 5zM403 280v350q0 16 -0.5 27t-4.5 18t-12.5 10.5t-24.5 3.5v11h219
v-11q-16 0 -24.5 -3.5t-12.5 -10.5t-4.5 -18t-0.5 -27v-350q0 -16 0.5 -27t4.5 -18t12.5 -10.5t24.5 -3.5v-11h-219v11q16 0 24.5 3.5t12.5 10.5t4.5 18t0.5 27z" />
    <glyph glyph-name="uniE043" unicode="&#xe043;" horiz-adv-x="1150" 
d="M315 515h15t15 -1q-29 20 -49.5 45t-20.5 57t21.5 57.5t57 43.5t80.5 28t91 10q38 0 84.5 -7t88 -24.5t69.5 -46t28 -71.5v-348l177 188q11 12 11 22q0 12 -17.5 14.5t-34.5 2.5v15h160v-15q-29 0 -47.5 -11t-34.5 -28l-102 -110l152 -239q22 -33 42 -33q12 0 24.5 9
t25.5 22q0 -21 -11 -39.5t-29.5 -32t-43 -21t-51.5 -7.5q-44 0 -74 22t-59 68l-88 139v-124q0 -22 1 -38.5t6.5 -26.5t18 -15t34.5 -5v-15h-280v15q23 0 35 5t17.5 15t6.5 26.5t1 38.5v503q0 44 -5 69.5t-18 38t-35.5 16t-58.5 3.5q-40 0 -79 -8t-70 -22.5t-50 -35.5
t-19 -48q0 -10 4.5 -22t18 -26t38 -31.5t64.5 -39.5q38 -16 55 -40.5t17 -52.5q0 -32 -20.5 -52.5t-53.5 -20.5q-32 0 -54 21.5t-22 60.5q0 15 4.5 35t16.5 41q-12 5 -27 5q-19 0 -41.5 -11t-41.5 -38t-32 -73.5t-13 -118.5t13 -118t33 -72.5t43 -37t44 -10.5q35 0 77 22.5
t77 57.5q0 -19 -10.5 -38.5t-33.5 -35.5t-58.5 -26t-85.5 -10q-129 0 -199 68.5t-70 196.5q0 125 69 195t203 70z" />
    <glyph glyph-name="uniE044" unicode="&#xe044;" horiz-adv-x="1099" 
d="M7 604q0 19 10.5 37t28 32.5t41 23t49.5 8.5q21 0 42 -6t37.5 -18.5t26.5 -31.5t10 -44v-347l177 188q11 12 11 22q0 12 -17.5 14.5t-34.5 2.5v15h160q58 0 100 -4.5t71.5 -14t48 -26t29.5 -40.5l105 -228l103 264q4 9 4 16q0 6 -6 10t-14.5 5.5t-18.5 2t-18 0.5h-8v15
h160v-15q-34 0 -47.5 -6.5t-21.5 -27.5l-199 -511q-17 -45 -34 -74.5t-35.5 -47.5t-38.5 -25.5t-43 -7.5q-48 0 -76 25t-28 65q0 41 25 60.5t55 19.5q34 0 52.5 -21t18.5 -51q0 -17 -6 -34t-20 -34q28 5 51.5 34t48.5 91l18 45l-191 413q-7 15 -15.5 30t-19.5 27t-25.5 20.5
t-32.5 9.5q-25 -2 -42.5 -13t-31.5 -26l-102 -110l152 -239q22 -33 42 -33q12 0 24.5 9t25.5 22q0 -21 -11 -39.5t-29.5 -32t-43 -21t-51.5 -7.5q-44 0 -74 22t-59 68l-88 139v-124q0 -22 1 -38.5t6.5 -26.5t18 -15t34.5 -5v-15h-280v15q23 0 35 5t17.5 15t6.5 26.5t1 38.5
v505q0 19 -7 26.5t-17 7.5q-13 0 -29 -9.5t-32 -25.5z" />
    <glyph glyph-name="uniE045" unicode="&#xe045;" horiz-adv-x="1639" 
d="M315 515h15t15 -1q-29 20 -49.5 45t-20.5 57t21.5 57.5t57 43.5t80.5 28t91 10q38 0 84.5 -7t88 -24.5t69.5 -46t28 -71.5v-348l177 188q11 12 11 22q0 12 -17.5 14.5t-34.5 2.5v15h160q57 0 98.5 -4.5t71 -14t47.5 -26t29 -40.5l105 -228l103 264q4 9 4 16q0 6 -6 10
t-14.5 5.5t-18.5 2t-18 0.5h-8v15h160v-15q-34 0 -47.5 -6.5t-21.5 -27.5l-199 -511q-17 -45 -34 -74.5t-35.5 -47.5t-38.5 -25.5t-43 -7.5q-48 0 -76 25t-28 65q0 41 25 60.5t55 19.5q34 0 52.5 -21t18.5 -51q0 -17 -6 -34t-20 -34q28 5 51.5 34t48.5 91l18 45l-191 413
q-14 31 -34.5 57t-57.5 30q-24 -2 -41 -13t-31 -26l-102 -110l152 -239q22 -33 42 -33q12 0 24.5 9t25.5 22q0 -21 -11 -39.5t-29.5 -32t-43 -21t-51.5 -7.5q-44 0 -74 22t-59 68l-88 139v-124q0 -22 1 -38.5t6.5 -26.5t18 -15t34.5 -5v-15h-280v15q23 0 35 5t17.5 15
t6.5 26.5t1 38.5v503q0 44 -5 69.5t-18 38t-35.5 16t-58.5 3.5q-40 0 -79 -8t-70 -22.5t-50 -35.5t-19 -48q0 -10 4.5 -22t18 -26t38 -31.5t64.5 -39.5q38 -16 55 -40.5t17 -52.5q0 -32 -20.5 -52.5t-53.5 -20.5q-32 0 -54 21.5t-22 60.5q0 15 4.5 35t16.5 41q-12 5 -27 5
q-19 0 -41.5 -11t-41.5 -38t-32 -73.5t-13 -118.5t13 -118t33 -72.5t43 -37t44 -10.5q35 0 77 22.5t77 57.5q0 -19 -10.5 -38.5t-33.5 -35.5t-58.5 -26t-85.5 -10q-129 0 -199 68.5t-70 196.5q0 125 69 195t203 70z" />
    <glyph glyph-name="uniE046" unicode="&#xe046;" horiz-adv-x="1175" 
d="M316 271h22.5t20.5 1v29q0 59 -7.5 96.5t-21.5 59.5t-34.5 30.5t-46.5 8.5q-21 0 -36 -5q12 -21 16.5 -42t4.5 -36q0 -39 -22 -60.5t-54 -21.5q-33 0 -53.5 20.5t-20.5 52.5q0 21 10.5 41t32.5 35.5t56.5 25t82.5 9.5q61 0 108 -16t79.5 -44.5t49 -67.5t16.5 -86v-37
q31 -4 61.5 -5.5t61.5 -2.5q0 120 71.5 189.5t204.5 69.5q29 0 66 -7.5t70 -24.5t55.5 -45t22.5 -69q0 -34 -16.5 -58.5t-43.5 -40.5t-61 -25t-69.5 -13.5t-69.5 -5.5t-60 -1q1 -66 6.5 -107.5t17.5 -64t32 -30.5t48 -8q52 0 107.5 20t95.5 60q0 -19 -12.5 -38.5t-37 -35.5
t-61 -26t-85.5 -10q-63 0 -113.5 18t-86 50t-56 77t-24.5 100q-22 2 -45.5 3.5t-49.5 3.5q-8 1 -15 1t-14 1v-138q0 -19 7 -30t19 -11q11 0 26.5 9.5t31.5 25.5q0 -19 -10 -37t-27 -32t-38.5 -22.5t-44.5 -8.5q-39 0 -68 23t-41 58q-22 -42 -59.5 -66.5t-85.5 -24.5
q-94 0 -142 38.5t-48 101.5q0 51 29 80.5t71.5 44t90.5 18t86 3.5zM812 250q30 2 58 6.5t49.5 17.5t34.5 37t13 64q0 21 -4 42t-12.5 37t-21.5 26t-31 10t-33.5 -11.5t-27 -39.5t-18.5 -74t-7 -115zM267 22q17 0 31.5 8t26 20t20 25.5t14.5 25.5v145q-24 0 -44.5 -1
t-27.5 -2q-36 -5 -57 -41t-21 -90q0 -53 18 -71.5t40 -18.5z" />
    <glyph glyph-name="uniE047" unicode="&#xe047;" horiz-adv-x="962" 
d="M7 604q0 19 10.5 37t28 32.5t41 23t49.5 8.5q21 0 42 -6t37.5 -18.5t26.5 -31.5t10 -44v-347l177 188q18 20 44 47t56 56t63.5 57.5t66.5 51.5t64 37t58 14q16 0 33.5 -5.5t32 -16t24 -27t9.5 -37.5q0 -18 -7 -34t-18.5 -28t-27 -19t-32.5 -7t-32.5 7t-27 18.5t-18.5 27
t-7 32.5q0 15 5.5 27.5t14.5 23.5q-44 -19 -116 -81.5t-172 -169.5l-78 -84l152 -239q22 -33 42 -33q12 0 24.5 9t25.5 22q0 -25 -13 -44t-33 -31.5t-43.5 -18.5t-45.5 -6q-24 0 -43 7t-35 19t-29 28.5t-26 35.5l-88 139v-124q0 -22 1 -38.5t6.5 -26.5t18 -15t34.5 -5v-15
h-280v15q23 0 35 5t17.5 15t6.5 26.5t1 38.5v505q0 19 -7 26.5t-17 7.5q-13 0 -29 -9.5t-32 -25.5zM759 505q21 0 42 -6t37.5 -18.5t26.5 -31.5t10 -44v-305q0 -22 1 -38.5t6.5 -26.5t18 -15t34.5 -5v-15h-280v15q23 0 35 5t17.5 15t6.5 26.5t1 38.5v305q0 19 -7 26.5
t-17 7.5q-13 0 -29 -9.5t-32 -25.5q0 19 10.5 37t28 32.5t41 23t49.5 8.5z" />
    <glyph glyph-name="uniE048" unicode="&#xe048;" horiz-adv-x="1078" 
d="M7 604q0 19 10.5 37t28 32.5t41 23t49.5 8.5q21 0 42 -6t37.5 -18.5t26.5 -31.5t10 -44v-347l177 188q11 13 11 18q0 8 -15 9.5t-37 1.5v25h309v105q0 19 -7 26.5t-17 7.5q-13 0 -29 -9.5t-32 -25.5q0 19 10.5 37t28 32.5t41 23t49.5 8.5q21 0 42 -6t37.5 -18.5
t26.5 -31.5t10 -44v-105h150v-25h-150v-345q0 -13 1 -32.5t8 -37.5t22.5 -31t43.5 -13q36 0 72.5 22t71.5 57q0 -19 -9 -38.5t-30 -35.5t-55 -26t-84 -10q-90 0 -145.5 36t-55.5 109v345h-149q-19 0 -30.5 -0.5t-20 -3.5t-15.5 -9t-16 -16l-102 -110l152 -239q22 -33 42 -33
q12 0 24.5 9t25.5 22q0 -21 -11 -39.5t-29.5 -32t-43 -21t-51.5 -7.5q-44 0 -74 22t-59 68l-88 139v-124q0 -22 1 -38.5t6.5 -26.5t18 -15t34.5 -5v-15h-280v15q23 0 35 5t17.5 15t6.5 26.5t1 38.5v505q0 19 -7 26.5t-17 7.5q-13 0 -29 -9.5t-32 -25.5z" />
    <glyph glyph-name="uniE049" unicode="&#xe049;" 
d="M42 700h280q65 0 117.5 -12t89.5 -34t56.5 -54t19.5 -73q0 -61 -43.5 -102t-122.5 -58q17 -18 33 -46.5t26 -48.5q30 -58 52.5 -96.5t40 -61t31.5 -31.5t27 -9q19 0 40 21q0 -28 -13 -47t-32.5 -31t-42.5 -17t-42 -5q-40 0 -70.5 18.5t-53 44.5t-37.5 54.5t-24 49.5
q-21 45 -36 77t-27 54.5t-21 37t-17 24.5h-6v-255q0 -22 1 -38.5t6.5 -26.5t18 -15t34.5 -5v-15h-285v15q23 0 35 5t17.5 15t6.5 26.5t1 38.5v500q0 23 -1 39t-6.5 26t-17.5 15t-35 5v15zM267 675v-295h55q12 0 31.5 8.5t37.5 26t31 45.5t13 67t-13 67t-31 46t-37.5 26.5
t-31.5 8.5h-55z" />
    <glyph glyph-name="uniE04A" unicode="&#xe04a;" horiz-adv-x="1098" 
d="M641 248l190 462h25l182 -434q7 -15 20 -15q11 0 22 7.5t18 14.5q0 -15 -10.5 -28t-27 -22.5t-36.5 -14.5t-39 -5t-33.5 5.5t-25 14.5t-17.5 20t-12 23l-35 84h-150l-46 -112q-2 -4 -2 -6q0 -11 13 -13t30 -2v-11h-112v11q17 0 30 7t16 14zM42 685v15h285v-15
q-22 0 -34.5 -5t-18 -15t-6.5 -26t-1 -39v-244l245 299q11 11 11 17q0 9 -22 11t-64 2v15h190v-15q-15 0 -25.5 -1t-19.5 -4t-17 -9t-18 -16l-181 -220q50 -58 105.5 -117.5t119 -107.5t135.5 -78t155 -30q63 0 114 21t94 72q0 -38 -23.5 -75.5t-65.5 -67.5t-101.5 -48.5
t-131.5 -18.5q-85 0 -158 26t-135 71t-113.5 105t-92.5 129l-1 -1v-215q0 -22 1 -38.5t6.5 -26.5t18 -15t34.5 -5v-15h-285v15q23 0 35 5t17.5 15t6.5 26.5t1 38.5v500q0 23 -1 39t-6.5 26t-17.5 15t-35 5zM853 380l-67 161l-66 -161h133z" />
    <glyph glyph-name="uniE04B" unicode="&#xe04b;" horiz-adv-x="931" 
d="M102 100v500q0 23 -1 39t-6.5 26t-17.5 15t-35 5v15h285v-15q-22 0 -34.5 -5t-18 -15t-6.5 -26t-1 -39v-244l245 299q11 11 11 17q0 9 -22 11t-64 2v15h190v-15q-15 0 -25.5 -1t-19.5 -4t-17 -9t-18 -16l-182 -221q39 -58 82 -110.5t90 -92t100 -62.5t113 -23
q41 0 85 11.5t92 37.5q0 -38 -15 -75.5t-44 -67.5t-71.5 -48.5t-96.5 -18.5q-68 0 -133 30t-122 77t-102.5 106.5t-74.5 117.5l-1 -1v-215q0 -22 1 -38.5t6.5 -26.5t18 -15t34.5 -5v-15h-285v15q23 0 35 5t17.5 15t6.5 26.5t1 38.5zM894 700v-11q-16 0 -24.5 -3.5
t-12.5 -10.5t-4.5 -18t-0.5 -27v-350q0 -16 0.5 -27t4.5 -18t12.5 -10.5t24.5 -3.5v-11h-219v11q16 0 24.5 3.5t12.5 10.5t4.5 18t0.5 27v350q0 16 -0.5 27t-4.5 18t-12.5 10.5t-24.5 3.5v11h219z" />
    <glyph glyph-name="uniE04C" unicode="&#xe04c;" horiz-adv-x="1093" 
d="M42 700h285v-15q-22 0 -34.5 -5t-18 -15t-6.5 -26t-1 -39v-244l245 299q11 11 11 17q0 9 -22 11t-64 2v15h190v-15q-15 0 -25.5 -1t-19.5 -4t-17 -9t-18 -16l-181 -220q50 -58 105.5 -117.5t119 -107.5t135.5 -78t155 -30q63 0 114 21t94 72q0 -38 -23.5 -75.5
t-65.5 -67.5t-101.5 -48.5t-131.5 -18.5q-85 0 -158 26t-135 71t-113.5 105t-92.5 129l-1 -1v-215q0 -22 1 -38.5t6.5 -26.5t18 -15t34.5 -5v-15h-285v15q23 0 35 5t17.5 15t6.5 26.5t1 38.5v500q0 23 -1 39t-6.5 26t-17.5 15t-35 5v15zM673 221q16 0 24.5 3.5t12.5 10.5
t4.5 18t0.5 27v350q0 16 -0.5 27t-4.5 18t-12.5 10.5t-24.5 3.5v11h392v-112h-25q0 17 -0.5 33.5t-5 29.5t-14 21t-26.5 8h-144v-217h74q12 0 18.5 6.5t9.5 16.5t3.5 22t0.5 24h25v-157h-25q0 12 -0.5 24t-3.5 21.5t-9.5 16t-18.5 6.5h-74v-213h158q17 0 26.5 8t14 21
t5 29.5t0.5 33.5h21v-112h-402v11z" />
    <glyph glyph-name="uniE04D" unicode="&#xe04d;" horiz-adv-x="1117" 
d="M631 459q0 62 18.5 109.5t51 80t76.5 49.5t95 17t95 -17t76.5 -49.5t51 -80t18.5 -109.5q0 -61 -18.5 -109t-51 -80t-76.5 -49t-95 -17t-95 17t-76.5 49t-51 80t-18.5 109zM42 15q23 0 35 5t17.5 15t6.5 26.5t1 38.5v500q0 23 -1 39t-6.5 26t-17.5 15t-35 5v15h285v-15
q-22 0 -34.5 -5t-18 -15t-6.5 -26t-1 -39v-244l245 299q11 11 11 17q0 9 -22 11t-64 2v15h190v-15q-15 0 -25.5 -1t-19.5 -4t-17 -9t-18 -16l-181 -220q50 -58 105.5 -117.5t119 -107.5t135.5 -78t155 -30q63 0 114 21t94 72q0 -38 -23.5 -75.5t-65.5 -67.5t-101.5 -48.5
t-131.5 -18.5q-85 0 -158 26t-135 71t-113.5 105t-92.5 129l-1 -1v-215q0 -22 1 -38.5t6.5 -26.5t18 -15t34.5 -5v-15h-285v15zM771 459q0 -69 9 -114.5t23 -72.5t32.5 -37.5t36.5 -10.5t36.5 10.5t32.5 37.5t23 72.5t9 114.5q0 70 -9 115.5t-23 72.5t-32.5 37.5t-36.5 10.5
t-36.5 -10.5t-32.5 -37.5t-23 -72.5t-9 -115.5z" />
    <glyph glyph-name="uniE04E" unicode="&#xe04e;" horiz-adv-x="1136" 
d="M42 15q23 0 35 5t17.5 15t6.5 26.5t1 38.5v500q0 23 -1 39t-6.5 26t-17.5 15t-35 5v15h285v-15q-22 0 -34.5 -5t-18 -15t-6.5 -26t-1 -39v-244l245 299q11 11 11 17q0 9 -22 11t-64 2v15h190v-15q-15 0 -25.5 -1t-19.5 -4t-17 -9t-18 -16l-181 -220q50 -58 105.5 -117.5
t119 -107.5t135.5 -78t155 -30q63 0 114 21t94 72q0 -38 -23.5 -75.5t-65.5 -67.5t-101.5 -48.5t-131.5 -18.5q-85 0 -158 26t-135 71t-113.5 105t-92.5 129l-1 -1v-215q0 -22 1 -38.5t6.5 -26.5t18 -15t34.5 -5v-15h-285v15zM658 690v10h219v-10q-16 0 -24.5 -1.5t-12.5 -7
t-4.5 -15t-0.5 -25.5v-255q0 -47 6.5 -78.5t18.5 -50.5t28.5 -27t36.5 -8q25 0 50 11t45 32t32.5 51.5t12.5 69.5v245q0 21 -1 32.5t-6 17.5t-16.5 7.5t-32.5 1.5v10h137v-10q-21 0 -32.5 -1.5t-16.5 -7.5t-6 -17.5t-1 -32.5v-245q0 -88 -50.5 -137t-138.5 -49q-43 0 -80 13
t-64 37t-42 58.5t-15 77.5v255q0 16 -0.5 25.5t-4.5 15t-12.5 7t-24.5 1.5z" />
    <glyph glyph-name="uniE04F" unicode="&#xe04f;" horiz-adv-x="1427" 
d="M43 350q0 88 24 156t67.5 114.5t104.5 70.5t134 24t134 -24t104.5 -70.5t67.5 -114.5t24 -156q0 -96 -27.5 -167t-78.5 -117q4 -2 10 -4q80 -31 151.5 -57t134 -45.5t117 -30.5t101.5 -11q60 0 108.5 20.5t86.5 67.5q1 -10 1 -19q0 -29 -13 -62.5t-46 -65t-84 -51.5
t-120 -20q-59 0 -118.5 14t-109 32t-83.5 34t-43 21q-65 33 -120.5 59.5t-104.5 47.5q-46 -11 -92 -11q-73 0 -134 24t-104.5 70.5t-67.5 114.5t-24 156zM1032 700v-15q-22 0 -34.5 -2.5t-18 -10t-6.5 -21t-1 -36.5v-365q0 -67 10.5 -113t29.5 -74.5t45.5 -40.5t57.5 -12
q38 0 73 16.5t61.5 47.5t42 75.5t15.5 100.5v350q0 30 -1 47t-8.5 25.5t-24 10.5t-46.5 2v15h190v-15q-30 0 -46 -2t-23.5 -10.5t-9 -25.5t-1.5 -47v-350q0 -125 -69.5 -195t-194.5 -70q-62 0 -111.5 18t-84 52.5t-52.5 83.5t-18 111v365q0 23 -1 36.5t-6.5 21t-17.5 10
t-35 2.5v15h285zM218 350q0 -82 9.5 -140t26.5 -98q42 9 85 9q39 0 76.5 -6t71.5 -14q19 40 30 100.5t11 148.5q0 99 -14.5 164.5t-37 104.5t-50 55t-53.5 16t-53.5 -16t-50 -55t-37 -104.5t-14.5 -164.5zM277 69q21 -32 46.5 -45.5t49.5 -13.5q22 0 39 8q-78 32 -135 51z
" />
    <glyph glyph-name="uniE050" unicode="&#xe050;" horiz-adv-x="1348" 
d="M43 350q0 88 24 156t67.5 114.5t104.5 70.5t134 24t134 -24t104.5 -70.5t67.5 -114.5t24 -156q0 -117 -41 -197.5t-113 -122.5q65 -24 132 -46.5t136 -39t139 -26.5t140 -10q75 0 136 17t96 60q0 -30 -15 -64.5t-52.5 -64t-101 -49.5t-158.5 -20q-72 0 -143 12.5
t-139.5 33.5t-134.5 49.5t-130 60.5q-25 12 -47 22.5t-44 19.5q-71 2 -130 26.5t-101 71t-65.5 113.5t-23.5 154zM742 700h535v-160h-30q0 24 -1 48.5t-7 43.5t-19.5 31t-37.5 12h-215v-315h115q17 0 26 9.5t13.5 24t5 32t0.5 34.5h30v-225h-30q0 17 -0.5 34.5t-5 32
t-13.5 24t-26 9.5h-115v-310h235q24 0 37.5 12t19.5 31t7 43.5t1 48.5h30v-160h-555v15q23 0 35 5t17.5 15t6.5 26.5t1 38.5v500q0 23 -1 39t-6.5 26t-17.5 15t-35 5v15zM288 54q43 10 87 10q42 0 84 -9q29 36 49 106.5t20 188.5q0 99 -14.5 164.5t-37 104.5t-50 55
t-53.5 16t-53.5 -16t-50 -55t-37 -104.5t-14.5 -164.5q0 -119 20 -190t50 -106z" />
    <glyph glyph-name="uniE051" unicode="&#xe051;" horiz-adv-x="1406" 
d="M43 350q0 88 24 156t67.5 114.5t104.5 70.5t134 24t134 -24t104.5 -70.5t67.5 -114.5t24 -156q0 -117 -41 -197.5t-113 -122.5q65 -24 132 -46.5t136 -39t139 -26.5t140 -10q75 0 136 17t96 60q0 -30 -15 -64.5t-52.5 -64t-101 -49.5t-158.5 -20q-72 0 -143 12.5
t-139.5 33.5t-134.5 49.5t-130 60.5q-25 12 -47 22.5t-44 19.5q-71 2 -130 26.5t-101 71t-65.5 113.5t-23.5 154zM738 45l272 660h30l260 -620q5 -12 12.5 -16.5t15.5 -4.5q15 0 31.5 10.5t26.5 20.5q0 -22 -11 -40.5t-29.5 -31.5t-42.5 -20.5t-51 -7.5q-28 0 -49 7.5
t-36 20.5t-25.5 29t-17.5 33l-51 120h-239l-66 -160q-2 -6 -2 -9q0 -14 21 -17.5t46 -3.5v-15h-160v15q24 0 42.5 10t22.5 20zM459 55q29 36 49 106.5t20 188.5q0 99 -14.5 164.5t-37 104.5t-50 55t-53.5 16t-53.5 -16t-50 -55t-37 -104.5t-14.5 -164.5q0 -119 20 -190
t50 -106q43 10 87 10q42 0 84 -9zM1063 230l-110 263l-109 -263h219z" />
    <glyph glyph-name="uniE052" unicode="&#xe052;" horiz-adv-x="1503" 
d="M373 715q73 0 134 -24t104.5 -70.5t67.5 -114.5t24 -156q0 -117 -41 -197.5t-113 -122.5q65 -24 132 -46.5t136 -39t139 -26.5t140 -10q75 0 136 17t96 60q0 -30 -15 -64.5t-52.5 -64t-101 -49.5t-158.5 -20q-72 0 -143 12.5t-139.5 33.5t-134.5 49.5t-130 60.5
q-25 12 -47 22.5t-44 19.5q-71 2 -130 26.5t-101 71t-65.5 113.5t-23.5 154q0 88 24 156t67.5 114.5t104.5 70.5t134 24zM1123 715q73 0 134 -24t104.5 -70.5t67.5 -114.5t24 -156t-24 -156t-67.5 -114.5t-104.5 -70.5t-134 -24t-134 24t-104.5 70.5t-67.5 114.5t-24 156
t24 156t67.5 114.5t104.5 70.5t134 24zM968 350q0 -99 14.5 -164.5t37 -104.5t50 -55t53.5 -16t53.5 16t50 55t37 104.5t14.5 164.5t-14.5 164.5t-37 104.5t-50 55t-53.5 16t-53.5 -16t-50 -55t-37 -104.5t-14.5 -164.5zM459 55q29 36 49 106.5t20 188.5q0 99 -14.5 164.5
t-37 104.5t-50 55t-53.5 16t-53.5 -16t-50 -55t-37 -104.5t-14.5 -164.5q0 -119 20 -190t50 -106q43 10 87 10q42 0 84 -9z" />
    <glyph glyph-name="uniE053" unicode="&#xe053;" horiz-adv-x="753" 
d="M43 350q0 88 24 156t67.5 114.5t104.5 70.5t134 24t134 -24t104.5 -70.5t67.5 -114.5t24 -156q0 -117 -41 -197.5t-113 -122.5q65 -24 132 -46.5t136 -39t139 -26.5t140 -10q75 0 136 17t96 60q0 -30 -15 -64.5t-52.5 -64t-101 -49.5t-158.5 -20q-72 0 -143 12.5
t-139.5 33.5t-134.5 49.5t-130 60.5q-25 12 -47 22.5t-44 19.5q-71 2 -130 26.5t-101 71t-65.5 113.5t-23.5 154zM459 55q29 36 49 106.5t20 188.5q0 99 -14.5 164.5t-37 104.5t-50 55t-53.5 16t-53.5 -16t-50 -55t-37 -104.5t-14.5 -164.5q0 -119 20 -190t50 -106
q43 10 87 10q42 0 84 -9z" />
    <glyph glyph-name="uniE054" unicode="&#xe054;" horiz-adv-x="1356" 
d="M43 250q0 125 69 195t203 70h15t15 -1q-29 20 -49.5 45.5t-20.5 57.5t21 57.5t55 43.5t77.5 27.5t88.5 9.5q36 0 84 -7t91 -24.5t73 -46t30 -71.5v-106h358q21 0 42 -5.5t37.5 -17t26.5 -29.5t10 -43v-305q0 -22 1 -38.5t6.5 -26.5t18 -15t34.5 -5v-15h-280v15q23 0 35 5
t17.5 15t6.5 26.5t1 38.5v305q0 15 -7.5 27.5t-19.5 22t-27.5 15t-30.5 5.5h-229v-345q0 -13 1 -32.5t8 -37.5t22.5 -31t43.5 -13q36 0 72.5 22t71.5 57q0 -19 -9 -38.5t-30 -35.5t-55 -26t-84 -10q-90 0 -145.5 36t-55.5 108v346h-60v25h60v103q0 44 -7.5 69.5t-23 38
t-39.5 16t-58 3.5q-38 0 -75 -8t-66.5 -22.5t-47.5 -35.5t-18 -48q0 -10 4.5 -22t18 -26t38 -31.5t64.5 -39.5q38 -16 55 -40.5t17 -52.5q0 -32 -20.5 -52.5t-53.5 -20.5q-32 0 -54 21.5t-22 60.5q0 15 4.5 35t16.5 41q-12 5 -27 5q-19 0 -41.5 -11t-41.5 -38t-32 -73.5
t-13 -118.5t13 -118t33 -72.5t43 -37t44 -10.5q35 0 77 22.5t77 57.5q0 -19 -10.5 -38.5t-33.5 -35.5t-58.5 -26t-85.5 -10q-129 0 -199 68.5t-70 196.5zM1104 620q0 17 7 32.5t18.5 27t27 18.5t32.5 7t32.5 -7t27 -18.5t18.5 -27t7 -32.5t-7 -32.5t-18.5 -27t-27 -18.5
t-32.5 -7t-32.5 7t-27 18.5t-18.5 27t-7 32.5z" />
    <glyph glyph-name="uniE055" unicode="&#xe055;" horiz-adv-x="1315" 
d="M13 604q0 19 10.5 37t28 32.5t41 23t49.5 8.5q21 0 42 -6t37.5 -18.5t26.5 -31.5t10 -44v-105h228v105q0 19 -7 26.5t-17 7.5q-13 0 -29 -9.5t-32 -25.5q0 19 10.5 37t28 32.5t41 23t49.5 8.5q21 0 42 -6t37.5 -18.5t26.5 -31.5t10 -44v-105h221q49 0 86.5 -18.5
t59.5 -66.5l105 -228l103 264q4 9 4 16q0 6 -6 10t-14.5 5.5t-18.5 2t-18 0.5h-8v15h160v-15q-34 0 -47.5 -6.5t-21.5 -27.5l-199 -511q-17 -45 -34 -74.5t-35.5 -47.5t-38.5 -25.5t-43 -7.5q-48 0 -76 25t-28 65q0 41 25 60.5t55 19.5q34 0 52.5 -21t18.5 -51q0 -17 -6 -34
t-20 -34q28 5 51.5 34t48.5 91l18 45l-191 413q-5 10 -13.5 23.5t-18.5 25.5t-20.5 20t-20.5 8h-130v-345q0 -13 1 -32.5t8 -37.5t22.5 -31t43.5 -13q36 0 72.5 22t71.5 57q0 -19 -9 -38.5t-30 -35.5t-55 -26t-84 -10q-90 0 -145.5 36t-55.5 109v345h-228v-345
q0 -13 1 -32.5t8 -37.5t22.5 -31t43.5 -13q36 0 72.5 22t71.5 57q0 -19 -9 -38.5t-30 -35.5t-55 -26t-84 -10q-90 0 -145.5 36t-55.5 109v345h-60v25h60v105q0 19 -7 26.5t-17 7.5q-13 0 -29 -9.5t-32 -25.5z" />
    <glyph glyph-name="uniE056" unicode="&#xe056;" horiz-adv-x="698" 
d="M20 620q0 34 25 57t60 23h501v-25l-372 -650h182q19 0 35 1t28 6.5t19 15.5t7 28q0 37 25.5 63t59.5 26q17 0 32.5 -7t27 -18.5t18.5 -27t7 -32.5q0 -34 -25 -57t-60 -23h-539v25l369 650h-141q-19 0 -35 -1t-28 -6.5t-19 -15.5t-7 -28q0 -37 -25.5 -63t-59.5 -26
q-17 0 -32.5 7t-27 18.5t-18.5 27t-7 32.5z" />
    <glyph glyph-name="uniE057" unicode="&#xe057;" horiz-adv-x="1197" 
d="M693 -28q32 0 52.5 -22t20.5 -57q0 -18 -7 -32.5t-24 -33.5q23 -9 48.5 -12.5t60.5 -3.5q72 0 122.5 11.5t82.5 29t47 38t15 38.5q0 25 -29.5 41t-98.5 16h-192q-39 0 -68.5 9.5t-48.5 25.5t-28.5 36.5t-9.5 42.5t8 39t21 30.5t30.5 24t35.5 17.5q-38 23 -54 55t-16 70
q0 75 55.5 122.5t168.5 47.5q48 0 95 -11t80 -40q49 20 64 43t15 47q-10 -5 -17.5 -7t-18.5 -2q-20 0 -29 9t-9 21v3q1 18 15 28.5t32 10.5q20 0 37.5 -15t17.5 -47q0 -20 -7.5 -37.5t-20.5 -31.5t-28.5 -24.5t-32.5 -17.5q27 -35 27 -89q0 -75 -56 -122.5t-172 -47.5
q-34 0 -63.5 5t-55.5 16q-14 -5 -30.5 -14t-16.5 -23q0 -5 3.5 -11t12.5 -11t24.5 -8.5t39.5 -3.5h192q75 0 121.5 -39t46.5 -110q0 -42 -18 -77t-54 -60.5t-89.5 -39.5t-125.5 -14q-32 0 -73.5 4t-78.5 16.5t-62.5 35t-25.5 59.5q0 30 18.5 51t50.5 21zM109 -28
q32 0 52.5 -22t20.5 -57q0 -18 -7 -32.5t-24 -33.5q23 -9 48.5 -12.5t60.5 -3.5q72 0 122.5 11.5t82.5 29t47 38t15 38.5q0 25 -29.5 41t-98.5 16h-192q-39 0 -68.5 9.5t-48.5 25.5t-28.5 36.5t-9.5 42.5t8 39.5t21.5 31t30.5 23.5t35 17q-38 23 -54 55t-16 70
q0 75 54.5 122.5t164.5 47.5q51 0 91.5 -10t63.5 -25q5 18 14.5 37t23.5 34t32.5 24.5t40.5 9.5q23 0 43.5 -13t20.5 -45q0 -17 -8 -29.5t-26 -12.5q-17 0 -27.5 11.5t-10.5 31.5q0 12 3 19.5t6 12.5q-12 -1 -24.5 -5t-24 -14.5t-22.5 -28.5t-20 -47q26 -23 37.5 -52
t11.5 -61q0 -73 -56 -120t-172 -47q-34 0 -63.5 5t-55.5 16q-14 -5 -30.5 -14t-16.5 -23q0 -5 3.5 -11t12.5 -11t24.5 -8.5t39.5 -3.5h192q73 0 119 -36.5t49 -103.5q0 -60 -26 -99t-67.5 -61.5t-92.5 -31t-101 -8.5q-32 0 -73.5 4t-78.5 16.5t-62.5 35t-25.5 59.5
q0 30 18.5 51t50.5 21zM883 200q15 0 28 5.5t23 21t15.5 43t5.5 70.5t-5.5 70.5t-15.5 43t-23 21t-28 5.5t-28 -5.5t-23 -21t-15.5 -43t-5.5 -70.5t5.5 -70.5t15.5 -43t23 -21t28 -5.5zM227 340q0 -43 5.5 -70.5t15.5 -43t23 -21t28 -5.5t28 5.5t23 21t15.5 43t5.5 70.5
t-5.5 70.5t-15.5 43t-23 21t-28 5.5t-28 -5.5t-23 -21t-15.5 -43t-5.5 -70.5z" />
    <glyph glyph-name="uniE058" unicode="&#xe058;" horiz-adv-x="851" 
d="M34 475v25h60v1q0 47 17.5 86t53.5 67.5t92 44.5t133 16q38 0 71 -4.5t58.5 -16.5t40 -32t14.5 -51q0 -38 -20.5 -59t-55.5 -21q-20 0 -34.5 7t-23.5 19t-13.5 27.5t-4.5 31.5t3.5 31.5t11.5 27.5q0 6 -7 9t-16.5 4.5t-19 1.5h-15.5q-36 0 -60 -16t-38.5 -42.5
t-20.5 -60.5t-6 -70v-1h185q40 0 77.5 -13.5t53.5 -44.5q26 29 60 45.5t71 16.5q25 0 46.5 -7.5t37.5 -20.5t25 -30.5t9 -37.5q0 -33 -23 -55t-58 -22q-20 0 -33.5 7.5t-22 19t-12 26.5t-3.5 30q0 20 5 38.5t11 26.5q-12 0 -26 -6t-28 -16t-27 -22.5t-23 -25.5v-309
q0 -22 1 -38.5t6.5 -26.5t18 -15t34.5 -5v-15h-280v15q23 0 35 5t17.5 15t6.5 26.5t1 38.5v305q0 26 -3.5 40.5t-13 21t-26 7.5t-42.5 1h-80v-375q0 -22 1 -38.5t6.5 -26.5t18 -15t34.5 -5v-15h-280v15q23 0 35 5t17.5 15t6.5 26.5t1 38.5v375h-60z" />
    <glyph glyph-name="uniE059" unicode="&#xe059;" horiz-adv-x="1021" 
d="M34 475v25h60v1q0 47 17.5 86t53.5 67.5t92 44.5t133 16q38 0 71 -4.5t58.5 -16.5t40 -32t14.5 -51q0 -38 -20.5 -59t-55.5 -21q-20 0 -34.5 7t-23.5 19t-13.5 27.5t-4.5 31.5t3.5 31.5t11.5 27.5q0 6 -7 9t-16.5 4.5t-19 1.5h-15.5q-36 0 -60 -16t-38.5 -42.5
t-20.5 -60.5t-6 -70v-1h185q36 0 70.5 -11t53.5 -36q15 40 41.5 85t61.5 83.5t76.5 63.5t86.5 25q19 0 38.5 -5.5t35.5 -16t26 -27t10 -38.5q0 -18 -7 -34t-18.5 -28t-27 -19t-32.5 -7t-32.5 7t-27 18.5t-18.5 27t-7 32.5q0 36 27 60q-37 -11 -73 -42.5t-65 -71.5t-50 -82
t-29 -74v-310q0 -22 1 -38.5t6.5 -26.5t18 -15t34.5 -5v-15h-280v15q23 0 35 5t17.5 15t6.5 26.5t1 38.5v305q0 26 -3.5 40.5t-13 21t-26 7.5t-42.5 1h-80v-375q0 -22 1 -38.5t6.5 -26.5t18 -15t34.5 -5v-15h-280v15q23 0 35 5t17.5 15t6.5 26.5t1 38.5v375h-60zM689 404
q0 19 10.5 37t28 32.5t41 23t49.5 8.5q21 0 42 -6t37.5 -18.5t26.5 -31.5t10 -44v-305q0 -22 1 -38.5t6.5 -26.5t18 -15t34.5 -5v-15h-280v15q23 0 35 5t17.5 15t6.5 26.5t1 38.5v305q0 19 -7 26.5t-17 7.5q-13 0 -29 -9.5t-32 -25.5z" />
    <glyph glyph-name="uniE05A" unicode="&#xe05a;" horiz-adv-x="1648" 
d="M43 134q0 40 21 64.5t59 24.5t56.5 -23t18.5 -57q0 -29 -17 -60q-2 -4 -4 -8.5t-2 -10.5q0 -13 9 -22t23 -14.5t30 -8t30 -2.5q35 0 60 15t25 53q0 17 -5.5 30t-18.5 25t-33 24t-49 27q-53 27 -88.5 50t-56.5 44t-30 41.5t-9 43.5q0 32 15 58.5t43 46t67.5 30t88.5 10.5
q25 0 49 -3q-25 19 -42 44t-17 54q0 33 21.5 60t57 45.5t81 29t92.5 10.5q37 0 86 -7t93.5 -24.5t75.5 -46t31 -71.5v-348l177 188q11 12 11 22q0 12 -17.5 14.5t-34.5 2.5v15h160q57 0 98.5 -4.5t71 -14t47.5 -26t29 -40.5l105 -228l103 264q4 9 4 16q0 6 -6 10t-14.5 5.5
t-18.5 2t-18 0.5h-8v15h160v-15q-34 0 -47.5 -6.5t-21.5 -27.5l-199 -511q-17 -45 -34 -74.5t-35.5 -47.5t-38.5 -25.5t-43 -7.5q-48 0 -76 25t-28 65q0 41 25 60.5t55 19.5q34 0 52.5 -21t18.5 -51q0 -17 -6 -34t-20 -34q28 5 51.5 34t48.5 91l18 45l-191 413
q-14 31 -34.5 57t-57.5 30q-24 -2 -41 -13t-31 -26l-102 -110l152 -239q22 -33 42 -33q12 0 24.5 9t25.5 22q0 -21 -11 -39.5t-29.5 -32t-43 -21t-51.5 -7.5q-44 0 -74 22t-59 68l-88 139v-124q0 -22 1 -38.5t6.5 -26.5t18 -15t34.5 -5v-15h-280v15q23 0 35 5t17.5 15
t6.5 26.5t1 38.5v503q0 44 -7.5 69.5t-24 38t-42 16t-61.5 3.5q-40 0 -79 -8.5t-70 -24t-50 -38t-19 -50.5q0 -11 4.5 -24t18.5 -28t40 -33t68 -40q32 -16 54 -44t22 -66q0 -36 -20 -58.5t-53 -22.5q-32 0 -54 20t-22 55q0 21 6.5 37t11.5 24q8 16 8 20q0 10 -20 25t-51 15
q-32 0 -54.5 -19.5t-22.5 -49.5q0 -20 10 -36.5t24 -29t29.5 -21.5t26.5 -15q60 -31 98 -56.5t60 -46.5t30.5 -40t8.5 -39q0 -33 -19 -61t-52 -48t-77 -31t-94 -11q-39 0 -79.5 8t-74 25.5t-54.5 46t-21 69.5z" />
    <glyph glyph-name="uniE05B" unicode="&#xe05b;" horiz-adv-x="396" 
d="M26 404q0 19 10.5 37t27.5 32.5t39.5 23t47.5 8.5q17 0 34 -4t31 -12t24.5 -19.5t14.5 -26.5q0 -1 0.5 -1t0.5 -1q13 40 39 87t62 87.5t79.5 67.5t89.5 27q19 0 38.5 -5.5t35.5 -16t26 -27t10 -38.5q0 -18 -7 -34t-18.5 -28t-27 -19t-32.5 -7t-32.5 7t-27 18.5t-18.5 27
t-7 32.5q0 36 27 60q-39 -11 -75.5 -44.5t-66.5 -75t-50.5 -85t-26.5 -74.5q-2 -8 -3 -11v-290q0 -22 1 -38.5t6.5 -26.5t18 -15t34.5 -5v-15h-280v15q23 0 35 5t17.5 15t6.5 26.5t1 38.5v305q0 19 -7 26.5t-17 7.5q-13 0 -29 -9.5t-32 -25.5z" />
    <glyph glyph-name="uniE05C" unicode="&#xe05c;" horiz-adv-x="660" 
d="M7 604q0 19 10.5 37t28 32.5t41 23t49.5 8.5q21 0 42 -6t37.5 -18.5t26.5 -31.5t10 -44v-347l177 188q18 20 44 47t56 56t63.5 57.5t66.5 51.5t64 37t58 14q16 0 33.5 -5.5t32 -16t24 -27t9.5 -37.5q0 -18 -7 -34t-18.5 -28t-27 -19t-32.5 -7t-32.5 7t-27 18.5t-18.5 27
t-7 32.5q0 15 5.5 27.5t14.5 23.5q-44 -19 -116 -81.5t-172 -169.5l-78 -84l152 -239q22 -33 42 -33q12 0 24.5 9t25.5 22q0 -21 -11 -39.5t-29.5 -32t-43 -21t-51.5 -7.5q-44 0 -74 22t-59 68l-88 139v-124q0 -22 1 -38.5t6.5 -26.5t18 -15t34.5 -5v-15h-280v15q23 0 35 5
t17.5 15t6.5 26.5t1 38.5v505q0 19 -7 26.5t-17 7.5q-13 0 -29 -9.5t-32 -25.5z" />
    <glyph glyph-name="uniE05D" unicode="&#xe05d;" horiz-adv-x="933" 
d="M-1 405q0 21 11 39.5t30 32t43.5 21t52.5 7.5q43 0 72 -21t51 -69l105 -228l101 260q22 56 49 104.5t60 83.5t72.5 55t85.5 20q22 0 43 -5t38 -15.5t27.5 -26.5t10.5 -39q0 -37 -25.5 -63t-59.5 -26q-17 0 -32.5 7t-27 18.5t-18.5 27t-7 32.5q0 36 27 60
q-74 -14 -126 -78.5t-90 -162.5l-194 -499q-17 -45 -34 -74.5t-35.5 -47.5t-38.5 -25.5t-43 -7.5q-48 0 -76 25t-28 65q0 41 25 60.5t55 19.5q34 0 52.5 -21t18.5 -51q0 -17 -6 -34t-20 -34q28 5 51.5 34t48.5 91l18 45l-191 413q-10 20 -20.5 29t-22.5 9t-25.5 -8.5
t-27.5 -22.5zM662 439q-13 0 -29 -9.5t-32 -25.5q0 19 10.5 37t28 32.5t41 23t49.5 8.5q21 0 42 -6t37.5 -18.5t26.5 -31.5t10 -44v-305q0 -22 1 -38.5t6.5 -26.5t18 -15t34.5 -5v-15h-280v15q23 0 35 5t17.5 15t6.5 26.5t1 38.5v305q0 19 -7 26.5t-17 7.5z" />
    <glyph glyph-name="uniE05E" unicode="&#xe05e;" horiz-adv-x="586" 
d="M-1 405q0 21 11 39.5t30 32t43.5 21t52.5 7.5q43 0 72 -21t51 -69l105 -228l101 260q22 56 49 104.5t60 83.5t72.5 55t85.5 20q22 0 43 -5t38 -15.5t27.5 -26.5t10.5 -39q0 -37 -25.5 -63t-59.5 -26q-17 0 -32.5 7t-27 18.5t-18.5 27t-7 32.5q0 36 27 60
q-74 -14 -126 -78.5t-90 -162.5l-194 -499q-17 -45 -34 -74.5t-35.5 -47.5t-38.5 -25.5t-43 -7.5q-48 0 -76 25t-28 65q0 41 25 60.5t55 19.5q34 0 52.5 -21t18.5 -51q0 -17 -6 -34t-20 -34q28 5 51.5 34t48.5 91l18 45l-191 413q-10 20 -20.5 29t-22.5 9t-25.5 -8.5
t-27.5 -22.5z" />
    <glyph glyph-name="uniE05F" unicode="&#xe05f;" horiz-adv-x="613" 
d="M316 271h22.5t20.5 1v29q0 59 -7.5 96.5t-21.5 59.5t-34.5 30.5t-46.5 8.5q-21 0 -36 -5q12 -21 16.5 -42t4.5 -36q0 -39 -22 -60.5t-54 -21.5q-33 0 -53.5 20.5t-20.5 52.5q0 21 10.5 41t32.5 35.5t56.5 25t82.5 9.5q61 0 108 -16t79.5 -44.5t49 -67.5t16.5 -86v-350
q0 -19 7 -30t19 -11q11 0 26.5 9.5t31.5 25.5q0 -19 -10 -37t-27 -32t-39 -22.5t-45 -8.5q-19 0 -40 6t-38.5 16.5t-29 25.5t-11.5 33v131q-23 -33 -57.5 -52.5t-76.5 -19.5q-94 0 -142 38.5t-48 101.5q0 51 29 80.5t71.5 44t90.5 18t86 3.5zM267 22q17 0 31.5 8t26 20
t20 25.5t14.5 25.5v145q-23 0 -44 -1t-28 -2q-36 -5 -57 -41t-21 -90q0 -53 18 -71.5t40 -18.5z" />
    <glyph glyph-name="uniE060" unicode="&#xe060;" horiz-adv-x="1003" 
d="M13 604q0 19 10.5 37t28 32.5t41 23t49.5 8.5q21 0 42 -6t37.5 -18.5t26.5 -31.5t10 -44v-105h692v-25l-285 -450h185q26 0 41.5 12t23 31t9.5 43.5t2 48.5h25v-160h-470v25l285 450h-508v-345q0 -13 1 -32.5t8 -37.5t22.5 -31t43.5 -13q36 0 72.5 22t71.5 57
q0 -19 -9 -38.5t-30 -35.5t-55 -26t-84 -10q-90 0 -145.5 36t-55.5 109v345h-81v25h81v105q0 19 -7 26.5t-17 7.5q-13 0 -29 -9.5t-32 -25.5z" />
    <glyph glyph-name="uniE061" unicode="&#xe061;" horiz-adv-x="825" 
d="M747 473q-12 63 -45 109.5t-77.5 77.5t-97.5 46.5t-106 15.5q-46 0 -80 -10.5t-56.5 -27.5t-33.5 -38.5t-11 -43.5v-503q0 -22 1 -38.5t6.5 -26.5t18 -15t34.5 -5v-15h-280v15q23 0 35 5t17.5 15t6.5 26.5t1 38.5v506q0 80 68.5 116.5t193.5 36.5q89 0 168.5 -19
t139 -61.5t94 -110t34.5 -163.5q0 -32 -20.5 -52.5t-53.5 -20.5q-32 0 -54 21.5t-22 60.5q0 15 4.5 35t16.5 41q-12 5 -27 5q-19 0 -41.5 -11t-41.5 -38t-32 -73.5t-13 -118.5t13 -118t33 -72.5t43 -37t44 -10.5q35 0 77 22.5t77 57.5q0 -19 -10.5 -38.5t-33.5 -35.5
t-58.5 -26t-85.5 -10q-129 0 -199 68.5t-70 196.5q0 125 69 195t203 70q56 0 92.5 -11.5t58.5 -30.5z" />
    <glyph glyph-name="uniE062" unicode="&#xe062;" horiz-adv-x="762" 
d="M574 713q27 0 55.5 -5.5t52.5 -18.5t39.5 -35.5t15.5 -55.5q0 -26 -22 -44.5t-52 -18.5q-31 0 -48.5 22t-17.5 67q0 8 2 17.5t4 18t4.5 15t3.5 9.5q1 1 1 3q0 5 -8.5 6.5t-17.5 1.5q-22 0 -42 -11.5t-34 -39t-22.5 -73.5t-8.5 -114t8.5 -114t24 -73.5t37 -39t46.5 -11.5
q27 0 51 10.5t42.5 25t31 29t16.5 23.5q0 -19 -10.5 -38t-30 -34t-47 -24t-61.5 -9q-55 0 -101 17t-78.5 49t-50.5 80t-18 109q0 62 17.5 109.5t49 80t74.5 49.5t94 17zM42 0v15q23 0 35 4.5t17.5 15t6.5 26.5t1 39v500q0 23 -1 39t-6.5 26t-17.5 15t-35 5v15h285v-15
q-22 0 -34.5 -5t-18 -15t-6.5 -26t-1 -39v-575h215q24 0 37.5 12t19.5 31t7 43.5t1 48.5h30v-160h-535z" />
    <glyph glyph-name="uniE063" unicode="&#xe063;" horiz-adv-x="1274" 
d="M42 700h285v-15q-22 0 -34.5 -5t-18 -15t-6.5 -26t-1 -39v-575h215q23 0 35.5 10.5t19.5 27t8.5 38.5t1.5 44h-218v15q30 0 46.5 4.5t24 15.5t8.5 30.5t1 49.5v344q0 11 -7.5 17t-18.5 6t-22.5 -6t-21.5 -16q0 25 12.5 44t32 31.5t43 18.5t45.5 6q50 0 82.5 -29.5
t52.5 -72.5l201 -414l188 426q9 21 19 36.5t25 26.5t36.5 16.5t52.5 5.5h105v-15q-22 0 -34.5 -5t-18 -15t-6.5 -26t-1 -39v-500q0 -22 1 -38.5t6.5 -26.5t18 -15t34.5 -5v-15h-285v15q23 0 35 5t17.5 15t6.5 26.5t1 38.5v475l-256 -580h-30l-284 580v-315q0 -60 30 -80
t90 -20h18v-160h-535v15q23 0 35 4.5t17.5 15t6.5 26.5t1 39v500q0 23 -1 39t-6.5 26t-17.5 15t-35 5v15z" />
    <glyph glyph-name="uniE064" unicode="&#xe064;" horiz-adv-x="991" 
d="M42 685v15h285v-15q-22 0 -34.5 -5t-18 -15t-6.5 -26t-1 -39v-575h215q23 0 35.5 10.5t19.5 27t8.5 38.5t1.5 44h-219v15q30 0 46.5 2t24 10.5t8.5 25.5t1 47v329q-15 17 -29.5 28t-27.5 11q-3 0 -7 -1t-8 -5q0 47 27.5 72.5t72.5 25.5t81.5 -25t62.5 -60l277 -365v345
q0 30 -1 47t-8.5 25.5t-24 10.5t-46.5 2v15h190v-15q-30 0 -46 -2t-23.5 -10.5t-9 -25.5t-1.5 -47v-615h-30l-413 545l-2 2l-2 4l-2 2v-293q0 -30 6 -47t19 -25.5t34 -10.5t51 -2h29v-160h-535v15q23 0 35 4.5t17.5 15t6.5 26.5t1 39v500q0 23 -1 39t-6.5 26t-17.5 15t-35 5
z" />
    <glyph glyph-name="uniE065" unicode="&#xe065;" horiz-adv-x="763" 
d="M623 700v-160h-30q0 24 -1 48.5t-7 43.5t-19.5 31t-37.5 12h-115v-575q0 -22 1 -38.5t6.5 -26.5t18 -15t34.5 -5v-15h-285v15q23 0 35 5t17.5 15t6.5 26.5t1 38.5v575h-115q-24 0 -37.5 -12t-19.5 -31t-7 -43.5t-1 -48.5h-30v160h585zM753 500v-11q-16 0 -25 -3.5
t-13 -11t-4.5 -18.5t-0.5 -27v-358q0 -16 0.5 -27t4.5 -18.5t13 -11t25 -3.5v-11h-216v11q16 0 25 3.5t13 11t4.5 18.5t0.5 27v358q0 16 -0.5 27t-4.5 18.5t-13 11t-25 3.5v11h216z" />
    <glyph glyph-name="uniE066" unicode="&#xe066;" horiz-adv-x="1007" 
d="M42 685v15h950v-160h-30q0 24 -1 48.5t-7 43.5t-19.5 31t-37.5 12h-215v-315h115q17 0 26 9.5t13.5 24t5 32t0.5 34.5h30v-225h-30q0 17 -0.5 34.5t-5 32t-13.5 24t-26 9.5h-115v-235q0 -22 1 -38.5t6.5 -26.5t18 -15t34.5 -5v-15h-285v15q23 0 35 5t17.5 15t6.5 26.5
t1 38.5v500q0 26 -1.5 43.5t-10.5 27.5q-9 4 -23 4h-215v-315h115q17 0 26 9.5t13.5 24t5 32t0.5 34.5h30v-225h-30q0 17 -0.5 34.5t-5 32t-13.5 24t-26 9.5h-115v-235q0 -22 1 -38.5t6.5 -26.5t18 -15t34.5 -5v-15h-285v15q23 0 35 5t17.5 15t6.5 26.5t1 38.5v500
q0 23 -1 39t-6.5 26t-17.5 15t-35 5z" />
    <glyph glyph-name="uniE067" unicode="&#xe067;" horiz-adv-x="1065" 
d="M102 100v500q0 23 -1 39t-6.5 26t-17.5 15t-35 5v15h950v-160h-30q0 24 -1 48.5t-7 43.5t-19.5 31t-37.5 12h-215v-315h115q17 0 26 9.5t13.5 24t5 32t0.5 34.5h30v-225h-30q0 17 -0.5 34.5t-5 32t-13.5 24t-26 9.5h-115v-310h235q24 0 37.5 12t19.5 31t7 43.5t1 48.5h30
v-160h-555v15q23 0 35 5t17.5 15t6.5 26.5t1 38.5v500q0 26 -1.5 43.5t-10.5 27.5q-9 4 -23 4h-215v-315h115q17 0 26 9.5t13.5 24t5 32t0.5 34.5h30v-225h-30q0 17 -0.5 34.5t-5 32t-13.5 24t-26 9.5h-115v-235q0 -22 1 -38.5t6.5 -26.5t18 -15t34.5 -5v-15h-285v15
q23 0 35 5t17.5 15t6.5 26.5t1 38.5z" />
    <glyph glyph-name="colon" unicode=":" horiz-adv-x="232" 
d="M191 435q0 -30 -22.5 -52.5t-52.5 -22.5t-52.5 22.5t-22.5 52.5t22.5 52.5t52.5 22.5t52.5 -22.5t22.5 -52.5zM191 65q0 -30 -22.5 -52.5t-52.5 -22.5t-52.5 22.5t-22.5 52.5t22.5 52.5t52.5 22.5t52.5 -22.5t22.5 -52.5z" />
    <glyph glyph-name="semicolon" unicode=";" horiz-adv-x="236" 
d="M193 435q0 -30 -22.5 -52.5t-52.5 -22.5t-52.5 22.5t-22.5 52.5t22.5 52.5t52.5 22.5t52.5 -22.5t22.5 -52.5zM65 -105q38 13 62.5 42.5t32.5 67.5q-11 -7 -20.5 -11t-22.5 -4q-32 0 -54.5 22t-22.5 52q0 15 6 29t16.5 24.5t25 16.5t30.5 6q32 0 54.5 -25t22.5 -75
q0 -27 -8 -53t-23 -48.5t-37.5 -40.5t-51.5 -28z" />
    <glyph glyph-name="question" unicode="?" horiz-adv-x="565" 
d="M214 690q-23 0 -43.5 -4t-40.5 -11q20 -14 28 -42.5t8 -50.5q0 -24 -8 -38t-19.5 -22t-24.5 -10.5t-23 -2.5q-35 0 -55.5 20.5t-20.5 52.5q0 24 13.5 47.5t42 42.5t73 31t105.5 12q69 0 120 -16t84.5 -43.5t50 -65.5t16.5 -82q0 -82 -58.5 -138t-186.5 -75l-10 -80h-30
l-10 95q28 11 51 27t39.5 40t25.5 58.5t9 81.5q0 93 -35 133t-101 40zM320 70q0 -34 -22.5 -57t-52.5 -23t-52.5 23t-22.5 57t22.5 57t52.5 23t52.5 -23t22.5 -57z" />
    <glyph glyph-name="exclam" unicode="!" horiz-adv-x="309" 
d="M170 215q-2 -10 -15 -10t-15 10l-81 402q0 23 8.5 41t22 30.5t30.5 19.5t35 7t35 -7t30.5 -19.5t22 -30.5t8.5 -41zM230 70q0 -34 -22.5 -57t-52.5 -23t-52.5 23t-22.5 57t22.5 57t52.5 23t52.5 -23t22.5 -57z" />
    <glyph glyph-name="hyphen" unicode="-" horiz-adv-x="445" 
d="M410 340v-40h-375v40h375z" />
    <glyph glyph-name="hungarumlaut" unicode="&#x2dd;" horiz-adv-x="456" 
d="M233 700l-115 -100h-30l25 100h120zM419 700l-115 -100h-30l25 100h120z" />
    <glyph glyph-name="grave" unicode="`" horiz-adv-x="281" 
d="M208 700l25 -100h-30l-115 100h120z" />
    <glyph glyph-name="asterisk" unicode="*" horiz-adv-x="369" 
d="M56 523l91 22l-92 22q-12 7 -16 16t-4 18q0 8 2 14.5t4 10.5q3 6 13.5 15t25.5 9q5 0 10.5 -1t11.5 -5l63 -66l-26 90q0 13 5 21t12.5 12.5t15 6.5t12.5 2t12.5 -2t14.5 -6.5t12.5 -13t5.5 -22.5l-26 -88l64 66q10 6 20 6q17 0 27.5 -9t13.5 -16q2 -4 4 -10t2 -14
q0 -9 -4 -18t-16 -16l-92 -22l90 -22q13 -8 17.5 -17.5t4.5 -18.5q0 -18 -12 -33.5t-32 -15.5q-10 0 -21 6l-66 69l26 -90q0 -13 -5.5 -22t-12.5 -13.5t-14.5 -6.5t-12.5 -2t-12.5 2t-15 6.5t-12.5 12.5t-5 21l26 91l-66 -68q-10 -6 -21 -6q-19 0 -31 15.5t-12 33.5
q0 9 4 18.5t17 17.5z" />
    <glyph glyph-name="plus" unicode="+" horiz-adv-x="475" 
d="M35 355h183v193h40v-193h182v-40h-182v-192h-40v192h-183v40z" />
    <glyph glyph-name="equal" unicode="=" horiz-adv-x="450" 
d="M35 425h380v-40h-380v40zM35 285h380v-40h-380v40z" />
    <glyph glyph-name="ampersand" unicode="&#x26;" horiz-adv-x="784" 
d="M40 189q0 61 37.5 110.5t103.5 71.5q-29 42 -47.5 83.5t-18.5 79.5q0 37 17.5 70t47 57.5t67.5 39t80 14.5q32 0 60.5 -9t50.5 -25t34.5 -39t12.5 -52q0 -28 -12.5 -53.5t-33 -46t-46.5 -36.5t-53 -26q24 -29 54 -60.5t68 -66.5q6 24 19.5 49t34.5 46t49.5 34.5
t64.5 13.5q32 0 56 -10.5t40 -27.5t24.5 -38.5t8.5 -43.5q0 -18 -6 -35.5t-17.5 -30.5t-28.5 -21t-40 -8q-24 0 -43 9t-32.5 23.5t-21 33t-7.5 38.5t7.5 37.5t21.5 37.5q-1 6 -10 6q-17 0 -33.5 -13.5t-30.5 -33.5t-24.5 -42.5t-15.5 -39.5q4 -2 7 -5l6 -6q12 -10 31 -29.5
t36.5 -48.5t30.5 -69t13 -93q0 -43 -10 -87.5t-31.5 -80.5t-55 -58.5t-79.5 -22.5q-21 0 -47.5 7t-51.5 28q21 -10 46.5 -14.5t39.5 -4.5q23 0 43 11t35.5 30t24.5 44.5t9 53.5t-9 53t-23 47.5t-31.5 42.5t-35.5 37q-23 -66 -62 -100.5t-101 -34.5q-43 0 -83.5 15.5
t-71.5 43t-49.5 65t-18.5 80.5zM246 617q0 -34 20 -77.5t63 -97.5q18 12 33.5 29t27 37.5t18.5 42t7 41.5q0 22 -8 40t-21.5 31t-31.5 20t-37 7q-28 0 -49.5 -17t-21.5 -56zM192 356q-23 -11 -33 -35t-10 -48q0 -34 17 -65t44 -54.5t62 -37t71 -13.5q29 0 44 8.5t22 23.5
q-4 4 -8 7.5t-8 6.5q-21 18 -46.5 40.5t-52 49.5t-53 56.5t-49.5 60.5z" />
    <glyph glyph-name="dagger" unicode="&#x2020;" horiz-adv-x="512" 
d="M228 369q-22 -5 -46 -6.5t-46 -1.5q-13 0 -29.5 3t-30.5 9.5t-24 18.5t-10 30q0 16 9.5 29t32.5 13t33.5 -11.5t12.5 -22.5q3 -27 7.5 -32.5t21.5 -5.5t35 1.5t29 5.5v8q-11 17 -22.5 41.5t-11.5 48.5q0 20 10 40t27 37v11q-16 5 -29 17t-13 30t14 34t35 16v9q0 7 6.5 13
t14.5 6t14.5 -6.5t6.5 -12.5v-9q19 0 32.5 -14.5t13.5 -34.5q0 -18 -12 -29t-30 -19v-8q18 -19 30 -38t12 -45q0 -25 -10.5 -45.5t-25.5 -40.5v-7q21 5 43 6t38 1q19 0 37.5 -1.5t33.5 -7.5t24 -17.5t9 -30.5q0 -18 -9.5 -32t-32.5 -14t-29 12.5t-8 24.5q-2 25 -11.5 30.5
t-25.5 5.5q-34 0 -72 -8v-22l23 -39v-484l-50 -35h-5l-45 35v485l23 39v20z" />
    <glyph glyph-name="daggerdbl" unicode="&#x2021;" horiz-adv-x="512" 
d="M83 195q23 0 29 -12.5t8 -24.5q2 -25 11.5 -30.5t25.5 -5.5q34 0 72 8v22l-23 39v119l23 39v20q-22 -5 -46 -6.5t-46 -1.5q-13 0 -29.5 3t-30.5 9.5t-24 18.5t-10 30q0 16 9.5 29t32.5 13t28.5 -11.5t7.5 -22.5q3 -27 12.5 -32.5t26.5 -5.5t35 1.5t29 5.5v8
q-11 17 -22.5 41.5t-11.5 48.5q0 20 10 40t27 37v11q-16 5 -29 17t-13 30t14 34t35 16v9q0 7 6.5 13t14.5 6t14.5 -6.5t6.5 -12.5v-9q19 0 32.5 -14.5t13.5 -34.5q0 -18 -12 -29t-30 -19v-8q18 -19 30 -38t12 -45q0 -25 -10.5 -45.5t-25.5 -40.5v-7q21 5 43 6t38 1
q19 0 37.5 -1.5t33.5 -7.5t24 -17.5t9 -30.5q0 -18 -9.5 -32t-32.5 -14t-29 12.5t-8 24.5q-2 25 -11.5 30.5t-25.5 5.5q-34 0 -72 -8v-22l23 -39v-119l-23 -39v-20q22 5 46 6.5t46 1.5q13 0 29.5 -3t30.5 -9.5t24 -18.5t10 -30q0 -16 -9.5 -29t-32.5 -13t-28.5 11.5
t-7.5 22.5q-3 27 -12.5 32.5t-26.5 5.5t-35 -1.5t-29 -5.5v-8q11 -17 22.5 -41.5t11.5 -48.5q0 -20 -10 -40t-27 -37v-11q16 -5 29 -17t13 -30t-14 -34t-35 -16v-9q0 -7 -6.5 -13t-14.5 -6t-14.5 6.5t-6.5 12.5v9q-19 0 -32.5 14.5t-13.5 34.5q0 18 12 29t30 19v8
q-18 19 -30 38t-12 45q0 25 10.5 45.5t25.5 40.5v7q-21 -5 -43 -6t-38 -1q-19 0 -37.5 1.5t-33.5 7.5t-24 17.5t-9 30.5q0 18 9.5 32t32.5 14z" />
    <glyph glyph-name="slash" unicode="/" horiz-adv-x="349" 
d="M369 715l-345 -730h-44l345 730h44z" />
    <glyph glyph-name="backslash" unicode="\" horiz-adv-x="349" 
d="M24 715l345 -730h-44l-345 730h44z" />
    <glyph glyph-name="asciicircum" unicode="^" horiz-adv-x="496" 
d="M30 425l210 290h16l210 -290h-60l-158 216l-158 -216h-60z" />
    <glyph glyph-name="greater" unicode="&#x3e;" horiz-adv-x="505" 
d="M35 0v55l357 196l-357 194v55l445 -242v-14z" />
    <glyph glyph-name="less" unicode="&#x3c;" horiz-adv-x="505" 
d="M25 244v14l445 242v-55l-357 -194l357 -196v-55z" />
    <glyph glyph-name="quotesingle" unicode="'" horiz-adv-x="200" 
d="M100 710q26 0 43 -18t17 -52l-40 -195q-3 -15 -20 -15t-20 15l-40 195q0 34 17 52t43 18z" />
    <glyph glyph-name="quotedbl" unicode="&#x22;" horiz-adv-x="360" 
d="M100 710q26 0 43 -18t17 -52l-40 -195q-3 -15 -20 -15t-20 15l-40 195q0 34 17 52t43 18zM260 710q26 0 43 -18t17 -52l-40 -195q-3 -15 -20 -15t-20 15l-40 195q0 34 17 52t43 18z" />
    <glyph glyph-name="minus" unicode="&#x2212;" horiz-adv-x="475" 
d="M440 355v-40h-405v40h405z" />
    <glyph glyph-name="plusminus" unicode="&#xb1;" horiz-adv-x="475" 
d="M35 355h183v193h40v-193h182v-40h-182v-192h-40v192h-183v40zM440 40v-40h-405v40h405z" />
    <glyph glyph-name="bar" unicode="|" horiz-adv-x="220" 
d="M135 700v-900h-50v900h50z" />
    <glyph glyph-name="asciitilde" unicode="~" horiz-adv-x="550" 
d="M479 407h36q-2 -20 -14 -43t-33.5 -42.5t-51.5 -32t-69 -12.5q-20 0 -45.5 4.5t-71.5 18.5q-19 5 -42 10.5t-45 5.5q-31 0 -47 -10.5t-25 -22.5h-36q4 18 16.5 40.5t33.5 42t50 33t66 13.5q29 0 55.5 -6.5t35.5 -9.5q42 -12 69.5 -18.5t50.5 -6.5q34 0 48 11t19 25z" />
    <glyph glyph-name="brokenbar" unicode="&#xa6;" horiz-adv-x="220" 
d="M85 700h50v-360h-50v360zM85 160h50v-360h-50v360z" />
    <glyph glyph-name="at" unicode="@" horiz-adv-x="841" 
d="M70 289q0 -73 26.5 -139t73 -116t109 -79.5t134.5 -29.5q55 0 105.5 16.5t92.5 44.5l14 -21q-42 -31 -99 -48t-114 -17q-78 0 -146 31t-118 84t-79 124t-29 151t29 151t80 124t120.5 84t150.5 31t150.5 -30.5t120.5 -82.5t80 -120t29 -142q0 -42 -10.5 -83t-32 -74
t-56 -53t-82.5 -20q-16 0 -38 3t-43 12t-38.5 24.5t-24.5 40.5q-13 -38 -42 -59t-76 -21q-75 0 -116 52.5t-41 137.5q0 56 17.5 99.5t48 73.5t71.5 46t88 16q45 0 77 -13.5t53 -36t30.5 -51t9.5 -59.5v-165q0 -13 2 -26t7.5 -23.5t15 -17t25.5 -6.5q26 0 48.5 16.5t39.5 45
t27 65.5t10 78q0 67 -26.5 129.5t-73.5 111t-111 78t-139 29.5t-139 -30t-111 -80t-73.5 -116.5t-26.5 -139.5zM345 265q0 -15 1 -42t6 -53.5t14.5 -45.5t26.5 -19q11 0 22 8t20 19t14.5 23.5t5.5 22.5v297q-38 0 -60 -23t-33 -56t-14 -69t-3 -62z" />
    <glyph glyph-name="dollar" unicode="$" horiz-adv-x="615" 
d="M131 235q15 0 31.5 -5.5t31 -17t23.5 -29.5t9 -44q0 -20 -7.5 -45t-24.5 -42q-5 -5 -5 -8q0 -7 9.5 -13t24.5 -10.5t33.5 -7.5t36.5 -3q8 0 15 0.5t15 1.5q45 8 74.5 36.5t29.5 79.5q0 25 -13 47.5t-33 42t-43.5 35t-44.5 25.5q-13 8 -26.5 16t-29.5 17q-22 13 -51 31.5
t-54 45t-42.5 62t-17.5 81.5q0 37 13 69.5t40 57t68.5 39.5t99.5 18v85h30v-85q42 -1 81 -8.5t69 -23.5t48 -41.5t18 -61.5q0 -24 -8 -42t-20.5 -30.5t-28 -18.5t-31.5 -6q-13 0 -28.5 5t-28.5 16.5t-21.5 30.5t-8.5 47q0 51 34 92q0 3 -5.5 5t-14.5 4t-19.5 3t-19.5 1h-8
t-8 -1q-18 -2 -30 -7q-31 -11 -49.5 -36t-18.5 -60q0 -23 8.5 -43t22 -37t31.5 -31t36 -25q8 -5 14.5 -8.5t12.5 -7.5q52 -29 94 -55t71 -54t45 -60t16 -73q0 -48 -21.5 -85t-57 -63t-81 -40t-93.5 -16v-85h-30v85q-42 2 -85 12.5t-78 30t-57 47.5t-22 65q0 17 5 34t15 30.5
t25 22t35 8.5z" />
    <glyph glyph-name="cent" unicode="&#xa2;" horiz-adv-x="543" 
d="M293 515v85h30v-85q47 -1 79.5 -10.5t53.5 -25t30.5 -35t9.5 -40.5q0 -32 -20.5 -52.5t-53.5 -20.5q-32 0 -54 21.5t-22 60.5q0 15 4.5 35t16.5 41q-12 5 -27 5q-41 0 -66 -26.5t-39 -64t-18.5 -79t-4.5 -71.5q0 -31 5 -72.5t19.5 -78t40.5 -62t68 -25.5q35 0 77 22.5
t77 57.5q0 -18 -10 -37t-31.5 -35t-54.5 -26.5t-80 -11.5v-85h-30v85q-121 5 -186 73.5t-65 191.5q0 120 63.5 189.5t187.5 75.5z" />
    <glyph glyph-name="copyright" unicode="&#xa9;" horiz-adv-x="832" 
d="M40 350q0 83 30 154t81.5 123.5t120.5 82.5t148 30t148 -30t120.5 -82.5t81.5 -123.5t30 -154q0 -82 -30 -153.5t-81.5 -124t-120.5 -82.5t-148 -30t-148 30t-120.5 82.5t-81.5 124t-30 153.5zM770 350q0 79 -27.5 146t-74.5 115.5t-111 76t-137 27.5t-137 -27.5
t-111 -76t-74.5 -115.5t-27.5 -146t27.5 -146t74.5 -115.5t111 -76t137 -27.5t137 27.5t111 76t74.5 115.5t27.5 146zM447 563q39 0 66.5 -7.5t45 -20t25.5 -28.5t8 -33q0 -26 -16.5 -42t-42.5 -16t-43.5 17t-17.5 48q0 12 3.5 28t13.5 33q-8 4 -21 4q-15 0 -33 -8.5
t-33.5 -30.5t-26 -59.5t-10.5 -94.5t10.5 -94t26 -58t34.5 -29.5t35 -8.5q28 0 62 18t62 46q0 -15 -8.5 -31t-27 -28.5t-47 -20.5t-68.5 -8q-103 0 -159 55t-56 157q0 100 55.5 156t162.5 56z" />
    <glyph glyph-name="registered" unicode="&#xae;" horiz-adv-x="840" 
d="M40 350q0 83 30 154t81.5 123.5t120.5 82.5t148 30t148 -30t120.5 -82.5t81.5 -123.5t30 -154q0 -82 -30 -153.5t-81.5 -124t-120.5 -82.5t-148 -30t-148 30t-120.5 82.5t-81.5 124t-30 153.5zM70 350q0 -79 27.5 -146t74.5 -115.5t111 -76t137 -27.5t137 27.5t111 76
t74.5 115.5t27.5 146t-27.5 146t-74.5 115.5t-111 76t-137 27.5t-137 -27.5t-111 -76t-74.5 -115.5t-27.5 -146zM242 561h167q78 0 123 -27t45 -75q0 -40 -29.5 -65t-83.5 -34q15 -7 24.5 -19.5t23.5 -35.5q30 -53 53 -85t40 -32q11 0 22 13q0 -18 -8 -31t-20 -20.5t-26 -11
t-26 -3.5q-42 0 -68.5 38.5t-57.5 111.5q-11 26 -19 43t-16 28h-10v-152q0 -27 4.5 -39t31.5 -12v-9h-170v9q27 0 31.5 12t4.5 39v298q0 27 -4.5 38.5t-31.5 11.5v9zM376 547v-176h33q7 0 18.5 5t22 15.5t18.5 27t8 40.5q0 23 -8 39.5t-18.5 27.5t-22 16t-18.5 5h-33z" />
    <glyph glyph-name="yen" unicode="&#xa5;" horiz-adv-x="639" 
d="M116 705q61 0 97.5 -26t55.5 -64l148 -295l152 335q3 6 3 11q0 14 -21.5 16.5t-56.5 2.5v15h190v-15q-21 0 -34 -0.5t-21.5 -3.5t-14 -9t-10.5 -17l-153 -337h148v-25h-160l-10 -23v-27h170v-25h-170v-118q0 -22 1 -38.5t6.5 -26.5t18 -15t34.5 -5v-15h-285v15q23 0 35 5
t17.5 15t6.5 26.5t1 38.5v118h-170v25h170v17l-16 33h-154v25h141l-148 297q-9 18 -28 18q-24 0 -50 -26q0 32 13 51t30 29.5t35.5 14t28.5 3.5z" />
    <glyph glyph-name="Euro" unicode="&#x20ac;" horiz-adv-x="630" 
d="M-57 291v25h101q-1 8 -1 17v33h-87v25h88q6 78 31 138.5t67 102t98.5 62.5t124.5 21q38 0 78 -7.5t73 -26.5t54 -50t21 -79q0 -37 -27.5 -64t-71.5 -27t-69 31.5t-25 96.5q0 11 2.5 24.5t5.5 25.5t6.5 21.5t5.5 13.5q2 2 2 5q0 6 -12.5 8.5t-25.5 2.5q-30 0 -58 -15
t-50.5 -49.5t-37 -92t-17.5 -142.5h231v-25h-232v-50h219v-25h-217q4 -80 19.5 -134t39 -86.5t53.5 -46.5t63 -14q39 0 73 15t60.5 35.5t44 42t23.5 33.5q0 -28 -15 -55t-42.5 -48.5t-67 -34.5t-88.5 -13q-72 0 -131 20t-102.5 59t-69.5 96t-34 131h-103z" />
    <glyph glyph-name="paragraph" unicode="&#xb6;" horiz-adv-x="590" 
d="M131 0q20 0 35.5 -7t26 -18.5t16 -26t5.5 -29.5q0 -29 -23 -85v-1q0 -3 12 -5.5t24 -2.5q27 0 46 14t30.5 39t16.5 60t5 77v685h240v-30h-20q-22 0 -34.5 -3.5t-18.5 -12t-7 -23t-1 -37.5v-579q0 -56 -23 -97t-60.5 -67t-86.5 -38.5t-100 -12.5q-25 0 -55 4t-55 15
t-42 31.5t-17 53.5q0 17 5 34.5t15.5 31t27 22t38.5 8.5zM35 485q0 103 58.5 159t176.5 56h20v-430h-20q-118 0 -176.5 56t-58.5 159z" />
    <glyph glyph-name="percent" unicode="%" horiz-adv-x="897" 
d="M646 715l-345 -730h-44l345 730h44zM222 267q-37 0 -69 14.5t-56 42.5t-38 68.5t-14 93.5t14 93.5t38 68.5t56 42.5t69 14.5t69 -14.5t56 -42.5t38 -68.5t14 -93.5t-14 -93.5t-38 -68.5t-56 -42.5t-69 -14.5zM222 327q21 0 39.5 7.5t32.5 26t22 49t8 76.5t-8 76.5t-22 49
t-32.5 26t-39.5 7.5t-39.5 -7.5t-32.5 -26t-22 -49t-8 -76.5t8 -76.5t22 -49t32.5 -26t39.5 -7.5zM675 -5q-37 0 -69 14.5t-56 42.5t-38 68.5t-14 93.5t14 93.5t38 68.5t56 42.5t69 14.5t69 -14.5t56 -42.5t38 -68.5t14 -93.5t-14 -93.5t-38 -68.5t-56 -42.5t-69 -14.5z
M675 55q21 0 39.5 7.5t32.5 26t22 49t8 76.5t-8 76.5t-22 49t-32.5 26t-39.5 7.5t-39.5 -7.5t-32.5 -26t-22 -49t-8 -76.5t8 -76.5t22 -49t32.5 -26t39.5 -7.5z" />
    <glyph glyph-name="periodcentered" unicode="&#xb7;" horiz-adv-x="232" 
d="M191 355q0 -30 -22.5 -52.5t-52.5 -22.5t-52.5 22.5t-22.5 52.5t22.5 52.5t52.5 22.5t52.5 -22.5t22.5 -52.5z" />
    <glyph glyph-name="currency" unicode="&#xa4;" horiz-adv-x="477" 
d="M35 525l29 29l64 -65q24 18 52 28.5t60 10.5q29 0 56.5 -9.5t50.5 -29.5l65 65l30 -29l-66 -64q39 -50 39 -109q0 -62 -39 -110l64 -65l-28 -30l-65 66q-23 -19 -51 -28t-57 -9q-30 0 -58 9t-51 28l-66 -66l-29 30l65 65q-20 23 -29 51t-9 59q0 62 38 109zM107 350
q0 -27 10.5 -51t29 -43t42.5 -30t51 -11t51 11t41.5 29.5t27.5 43.5t10 52q0 26 -10 51t-27.5 44.5t-41 31t-50.5 11.5t-51.5 -11.5t-42.5 -30.5t-29 -44.5t-11 -52.5z" />
    <glyph glyph-name="uni03BC" unicode="&#x3bc;" 
d="M22 404q0 19 10.5 37t27.5 32.5t40.5 23t48.5 8.5q22 0 43.5 -7t38 -20.5t26.5 -33t10 -44.5v-250q0 -34 7 -58.5t18 -40.5t25 -23.5t29 -7.5t28.5 7.5t24.5 19.5t19.5 26.5t13.5 27.5v299q0 19 -7.5 29t-18.5 10t-27 -9.5t-32 -25.5q0 19 10.5 37t27.5 32.5t40.5 23
t48.5 8.5q22 0 43.5 -7t38 -20.5t26.5 -33t10 -44.5v-305q0 -19 7 -26.5t17 -7.5q13 0 29 9.5t32 25.5q0 -19 -10.5 -37t-28 -32.5t-41 -23t-49.5 -8.5q-35 0 -66 16t-43 48q-26 -39 -57 -61.5t-67 -22.5q-13 0 -27 2.5t-21 7.5v-85q0 -23 1 -39t6.5 -26t18 -15t34.5 -5v-15
h-280v15q23 0 35 5t17.5 15t6.5 26t1 39v500q0 19 -7.5 29t-18.5 10t-27 -9.5t-32 -25.5z" />
    <glyph glyph-name="parenleft" unicode="(" horiz-adv-x="357" 
d="M342 -225l-10 -15q-71 47 -124 103.5t-88 119.5t-52.5 130t-17.5 136t18 137.5t53 132t88 121t123 105.5l10 -15q-33 -42 -57.5 -96.5t-41 -116t-24.5 -129t-8 -135.5t8 -135.5t24.5 -129.5t41 -116.5t57.5 -96.5z" />
    <glyph glyph-name="parenright" unicode=")" horiz-adv-x="359" 
d="M17 -225q33 42 57.5 96.5t41 116.5t24.5 129.5t8 135.5t-8 135.5t-24.5 129t-41 116t-57.5 96.5l10 15q70 -48 123 -105.5t88 -121t53 -132t18 -137.5t-17.5 -136t-52.5 -130t-88 -119.5t-124 -103.5z" />
    <glyph glyph-name="braceleft" unicode="{" horiz-adv-x="370" 
d="M25 245q0 10 18 10q34 0 53.5 23t29.5 56t12.5 69t2.5 62q0 54 15 94t41.5 70.5t63 54.5t80.5 47q2 1 6 1q3 0 5 -3t3 -5l-2 -5q-18 -13 -28.5 -27t-16 -28t-6.5 -28.5t-1 -29.5v-124q0 -67 -3.5 -107.5t-21 -64.5t-53 -37.5t-100.5 -27.5q65 -14 100.5 -27t53 -37
t21 -64t3.5 -108v-124q0 -15 1 -29.5t6.5 -28.5t16 -28t28.5 -27l2 -5q-1 -2 -3 -5t-5 -3q-4 0 -6 1q-44 23 -80.5 47t-63 54.5t-41.5 70.5t-15 94q0 26 -2.5 62t-12.5 69t-29.5 56t-53.5 23q-18 0 -18 9z" />
    <glyph glyph-name="braceright" unicode="}" horiz-adv-x="370" 
d="M15 -233l2 5q18 13 28.5 27t16 28t6.5 28.5t1 29.5v124q0 68 3.5 108t21 64t53.5 37t100 27q-64 14 -100 27.5t-53.5 37.5t-21 64.5t-3.5 107.5v124q0 15 -1 29.5t-6.5 28.5t-16 28t-28.5 27l-2 5q1 2 3 5t5 3q4 0 6 -1q44 -23 80.5 -47t63 -54.5t41.5 -70.5t15 -94
q0 -26 2.5 -62t12.5 -69t29.5 -56t53.5 -23q18 0 18 -10q0 -9 -18 -9q-34 0 -53.5 -23t-29.5 -56t-12.5 -69t-2.5 -62q0 -54 -15 -94t-41.5 -70.5t-63 -54.5t-80.5 -47q-2 -1 -6 -1q-3 0 -5 3t-3 5z" />
    <glyph glyph-name="bracketleft" unicode="[" horiz-adv-x="347" 
d="M80 735h257v-26h-98v-918h98v-26h-257v970z" />
    <glyph glyph-name="bracketright" unicode="]" horiz-adv-x="347" 
d="M10 709v26h257v-970h-257v26h98v918h-98z" />
    <glyph glyph-name="numbersign" unicode="#" horiz-adv-x="644" 
d="M150 235l59 230h-134v55h147l48 180h52l-48 -180h180l48 180h52l-48 -180h113v-55h-126l-59 -230h135v-54h-148l-47 -181h-52l47 181h-180l-47 -181h-52l47 181h-112v54h125zM382 235l59 230h-180l-59 -230h180z" />
    <glyph glyph-name="sterling" unicode="&#xa3;" horiz-adv-x="601" 
d="M35 25q25 3 39.5 19t22 37.5t10 45.5t3.5 43l8 185h-73v25h74l6 130q3 51 20.5 89.5t46.5 64t68.5 38.5t85.5 13q30 0 62.5 -5.5t59.5 -18.5t44.5 -32.5t17.5 -48.5q0 -30 -20 -54.5t-50 -24.5t-50 24.5t-20 54.5q0 14 5.5 35t19.5 41q-9 5 -18.5 7t-16.5 2
q-26 0 -43 -21.5t-27 -51t-14.5 -61t-5.5 -51.5l-6 -130h176v-25h-177l-8 -185q-2 -45 -26 -78.5t-69 -41.5h295q23 0 35 11t17.5 29t6.5 40.5t1 44.5h30v-175h-530v25z" />
    <glyph glyph-name="florin" unicode="&#x192;" horiz-adv-x="659" 
d="M51 -47q28 0 46.5 -17t18.5 -52q0 -7 -3 -28.5t-17 -41.5q9 -5 18.5 -7t16.5 -2q26 0 43 21.5t27.5 51t14.5 61t5 51.5l16 365h-73v25h74l6 130q3 51 20.5 89.5t46.5 64t68.5 38.5t85.5 13q30 0 62.5 -5.5t59.5 -18.5t44.5 -32.5t17.5 -48.5q0 -30 -20 -54.5t-50 -24.5
t-50 24.5t-20 54.5q0 14 5.5 35t19.5 41q-9 5 -18.5 7t-16.5 2q-26 0 -43 -21.5t-27 -51t-14.5 -61t-5.5 -51.5l-6 -130h176v-25h-177l-16 -365q-2 -51 -19.5 -89.5t-46.5 -64t-68 -38.5t-84 -13q-31 0 -61.5 6t-55.5 19.5t-40.5 34.5t-15.5 50q0 26 14 42t42 16z" />
    <glyph glyph-name="underscore" unicode="_" horiz-adv-x="400" 
d="M400 -60v-40h-400v40h400z" />
    <glyph glyph-name="uni2113" unicode="&#x2113;" horiz-adv-x="482" 
d="M27 185q15 7 33 17t38 22v380q0 25 10.5 45t28.5 33.5t43 20.5t53 7q41 0 76.5 -14t61.5 -38t40.5 -56.5t14.5 -68.5t-13.5 -68t-36.5 -62t-53.5 -59t-64.5 -59v-155q0 -13 1 -32.5t8 -37.5t22.5 -31t43.5 -13q36 0 72.5 22t71.5 57q0 -19 -9 -38.5t-30 -35.5t-55 -26
t-84 -10q-90 0 -145.5 36t-55.5 109v62q-17 -11 -32 -19t-29 -14zM258 322q29 25 54.5 51.5t44 53t29 52.5t10.5 51q0 26 -11 50.5t-27.5 43.5t-35 30.5t-34.5 11.5q-17 0 -23.5 -14t-6.5 -48v-282z" />
    <glyph glyph-name="bullet" unicode="&#x2022;" horiz-adv-x="350" 
d="M285 350q0 -50 -30 -80t-80 -30t-80 30t-30 80t30 80t80 30t80 -30t30 -80z" />
    <glyph glyph-name="uni00A0" unicode="&#xa0;" horiz-adv-x="300" 
 />
    <glyph glyph-name="uni00AD" unicode="&#xad;" horiz-adv-x="475" 
d="M440 355v-40h-405v40h405z" />
    <glyph glyph-name="perthousand" unicode="&#x2030;" horiz-adv-x="1288" 
d="M646 715l-345 -730h-44l345 730h44zM222 267q-37 0 -69 14.5t-56 42.5t-38 68.5t-14 93.5t14 93.5t38 68.5t56 42.5t69 14.5t69 -14.5t56 -42.5t38 -68.5t14 -93.5t-14 -93.5t-38 -68.5t-56 -42.5t-69 -14.5zM222 327q21 0 39.5 7.5t32.5 26t22 49t8 76.5t-8 76.5t-22 49
t-32.5 26t-39.5 7.5t-39.5 -7.5t-32.5 -26t-22 -49t-8 -76.5t8 -76.5t22 -49t32.5 -26t39.5 -7.5zM675 -5q-37 0 -69 14.5t-56 42.5t-38 68.5t-14 93.5t14 93.5t38 68.5t56 42.5t69 14.5t69 -14.5t56 -42.5t38 -68.5t14 -93.5t-14 -93.5t-38 -68.5t-56 -42.5t-69 -14.5z
M1066 -5q-37 0 -69 14.5t-56 42.5t-38 68.5t-14 93.5t14 93.5t38 68.5t56 42.5t69 14.5t69 -14.5t56 -42.5t38 -68.5t14 -93.5t-14 -93.5t-38 -68.5t-56 -42.5t-69 -14.5zM675 55q21 0 39.5 7.5t32.5 26t22 49t8 76.5t-8 76.5t-22 49t-32.5 26t-39.5 7.5t-39.5 -7.5
t-32.5 -26t-22 -49t-8 -76.5t8 -76.5t22 -49t32.5 -26t39.5 -7.5zM1066 55q21 0 39.5 7.5t32.5 26t22 49t8 76.5t-8 76.5t-22 49t-32.5 26t-39.5 7.5t-39.5 -7.5t-32.5 -26t-22 -49t-8 -76.5t8 -76.5t22 -49t32.5 -26t39.5 -7.5z" />
    <glyph glyph-name="exclamdown" unicode="&#xa1;" horiz-adv-x="309" 
d="M170 325.013q-2 10 -15 10t-15 -10l-81 -401.975q0 -22.999 8.5 -40.998t22 -30.498t30.5 -19.499q17 -6.99902 35 -6.99902t35 6.99902q17 7 30.5 19.499t22 30.498t8.5 40.998zM230 470.004q0 33.998 -22.5 56.9971q-22.5 22.998 -52.5 22.998t-52.5 -22.998
q-22.5 -22.999 -22.5 -56.9971t22.5 -56.9961q22.5 -22.999 52.5 -22.999t52.5 22.999q22.5 22.998 22.5 56.9961z" />
    <glyph glyph-name="questiondown" unicode="&#xbf;" horiz-adv-x="565" 
d="M321.013 -149.958q22.999 0 43.498 4q20.498 4 40.4971 10.999q-19.999 13.999 -27.998 42.498q-8 28.498 -8 50.4961q0 23.999 8 37.998q7.99902 13.999 19.499 21.999q11.499 7.99902 24.498 10.499t22.999 2.5q34.998 0 55.4961 -20.499
q20.499 -20.499 20.499 -52.4971q0 -23.998 -13.499 -47.4971q-13.499 -23.498 -41.998 -42.4971q-28.498 -18.999 -72.9951 -30.998t-105.493 -11.999q-68.9961 0 -119.993 15.999t-84.4951 43.4971t-49.9971 65.4961q-16.499 37.9971 -16.499 81.9951
q0 81.9951 58.4971 137.991q58.4961 55.9971 186.488 74.9951l10 79.9951h29.998l9.99902 -94.9941q-27.998 -10.999 -50.9971 -26.998q-22.998 -15.999 -39.4971 -39.9971q-16.499 -23.999 -25.499 -58.4971q-8.99902 -34.498 -8.99902 -81.4951
q0 -92.9941 34.998 -132.991q34.998 -39.998 100.993 -39.998zM215.02 470.004q0 33.998 22.499 56.9971q22.498 22.998 52.4961 22.998t52.4971 -22.998q22.499 -22.999 22.499 -56.9971t-22.499 -56.9961q-22.499 -22.999 -52.4971 -22.999t-52.4961 22.999
q-22.499 22.998 -22.499 56.9961z" />
    <glyph glyph-name="endash" unicode="&#x2013;" horiz-adv-x="630" 
d="M595 340v-40h-560v40h560z" />
    <glyph glyph-name="emdash" unicode="&#x2014;" horiz-adv-x="955" 
d="M920 340v-40h-885v40h885z" />
    <glyph glyph-name="degree" unicode="&#xb0;" horiz-adv-x="370" 
d="M340 555q0 -31 -11 -59.5t-31 -49.5t-48.5 -33.5t-64.5 -12.5t-64.5 12.5t-48.5 33.5t-31 49.5t-11 59.5q0 32 11 60t31 49t48.5 33.5t64.5 12.5t64.5 -12.5t48.5 -33.5t31 -49t11 -60zM270 555q0 53 -25.5 76.5t-59.5 23.5t-59.5 -23.5t-25.5 -76.5t25.5 -76.5
t59.5 -23.5t59.5 23.5t25.5 76.5z" />
    <glyph glyph-name="onesuperior" unicode="&#xb9;" horiz-adv-x="267" 
d="M205 390q0 -16 0.5 -26t4.5 -15.5t12.5 -7.5t24.5 -2v-9h-194v9q16 0 24.5 2t12.5 7.5t4.5 15.5t0.5 26v290h-75v15q21 0 40.5 1t34.5 6t24.5 16t9.5 32h76v-360z" />
    <glyph glyph-name="twosuperior" unicode="&#xb2;" horiz-adv-x="346" 
d="M20 363q0 21 5.5 40t17.5 38.5t32 41.5t50 49q24 22 40.5 39.5t26.5 33t14.5 30.5t4.5 31q0 32 -16.5 57t-54.5 25q-20 0 -46 -9q17 -6 24 -19.5t7 -29.5q0 -28 -16 -41t-36 -13q-21 0 -34.5 13t-13.5 35q0 23 14.5 38.5t37.5 25t50.5 13.5t52.5 4t51 -4t47 -15.5
t34.5 -31t13.5 -49.5t-14 -56t-39 -48.5t-59 -42t-75 -35.5q-25 -10 -52.5 -28t-40.5 -54h271v-113h-18q0 27 -4.5 37.5t-31.5 10.5h-243v27z" />
    <glyph glyph-name="threesuperior" unicode="&#xb3;" horiz-adv-x="359" 
d="M162 327q-21 0 -45.5 4t-46 13t-36 24t-14.5 37q0 20 11.5 32.5t28.5 12.5q6 0 14.5 -2.5t16 -8.5t13 -17t5.5 -29q0 -13 -4 -22.5t-16 -19.5q12 -5 23.5 -7t22.5 -2q50 0 69.5 30.5t19.5 81.5q0 12 -2 27.5t-9.5 29.5t-23 24.5t-42.5 13.5h-34v15h30q18 0 30.5 9
t19.5 22.5t10 29.5t3 31q0 16 -3.5 32t-11.5 29.5t-21.5 22t-33.5 8.5q-18 0 -38 -7q18 -10 24.5 -22t6.5 -27q0 -16 -5 -27t-13 -17.5t-17.5 -9t-17.5 -2.5q-20 0 -33.5 13t-13.5 35t13.5 37.5t34.5 25t45 14t45 4.5q23 0 50 -5.5t50 -18t38.5 -33t15.5 -51.5
q0 -24 -9.5 -41.5t-25.5 -30t-36.5 -20t-42.5 -11.5q25 -1 49 -6.5t42.5 -17t29.5 -30.5t11 -47q0 -35 -17.5 -59t-43.5 -39t-57.5 -21.5t-58.5 -6.5z" />
    <glyph glyph-name="uni2070" unicode="&#x2070;" horiz-adv-x="394" 
d="M197 317q-37 0 -69 14.5t-56 42.5t-38 68.5t-14 93.5t14 93.5t38 68.5t56 42.5t69 14.5t69 -14.5t56 -42.5t38 -68.5t14 -93.5t-14 -93.5t-38 -68.5t-56 -42.5t-69 -14.5zM197 377q21 0 39.5 7.5t32.5 26t22 49t8 76.5t-8 76.5t-22 49t-32.5 26t-39.5 7.5t-39.5 -7.5
t-32.5 -26t-22 -49t-8 -76.5t8 -76.5t22 -49t32.5 -26t39.5 -7.5z" />
    <glyph glyph-name="uni2074" unicode="&#x2074;" horiz-adv-x="396" 
d="M20 431v21l227 298h66v-294h63v-25h-63v-49q0 -15 0.5 -24.5t4.5 -15t12.5 -7.5t24.5 -2v-9h-194v9q16 0 24.5 2t12.5 7.5t4.5 15t0.5 24.5v49h-183zM203 456v212l-161 -212h161z" />
    <glyph glyph-name="uni2075" unicode="&#x2075;" horiz-adv-x="354" 
d="M141 336q34 0 56 28t22 95q0 66 -21.5 93t-56.5 27q-27 0 -50 -12t-40 -27l-12 9l24 201h177q14 0 21 6t10.5 16.5t4 23.5t0.5 26h18v-137h-218l-16 -118q19 12 43.5 19.5t47.5 7.5q95 0 139 -36.5t44 -99.5t-41.5 -100t-123.5 -37q-38 0 -66 8t-46.5 21t-27.5 29t-9 32
q0 18 11.5 34.5t37.5 16.5q19 0 35 -11.5t16 -40.5q0 -19 -8.5 -35t-22.5 -28q9 -5 24 -8t28 -3z" />
    <glyph glyph-name="uni2076" unicode="&#x2076;" horiz-adv-x="373" 
d="M215 750q-28 0 -44.5 -18t-24 -44t-9.5 -56.5t-2 -55.5v-18q23 36 81 36q26 0 51 -8.5t44 -25t30.5 -41.5t11.5 -58q0 -34 -12 -59t-33.5 -41.5t-50 -25t-61.5 -8.5q-52 0 -86 19t-54 49.5t-28 69.5t-8 79q0 45 9.5 85t29.5 70t52 48t78 18q23 0 47.5 -5t44.5 -15
t33 -25.5t13 -36.5q0 -22 -13 -34.5t-32 -12.5q-8 0 -18 3t-18.5 10t-14 17.5t-5.5 26.5q0 20 9 30t23 18q-3 3 -16.5 6t-26.5 3zM188 347q17 0 26.5 13.5t15 32t7 37.5t1.5 29t-1.5 29t-7.5 37.5t-16.5 32.5t-28.5 14q-15 0 -24 -10t-14 -25t-6.5 -32.5t-1.5 -31.5
q0 -10 1 -31t6 -42t15 -37t28 -16z" />
    <glyph glyph-name="uni2077" unicode="&#x2077;" horiz-adv-x="325" 
d="M305 721q0 -27 -7 -49.5t-17.5 -41.5t-24 -35.5t-25.5 -31.5q-21 -24 -37.5 -44.5t-28.5 -40.5t-18.5 -40.5t-6.5 -44.5q0 -32 10 -42.5t21 -10.5q9 0 11 4q-10 6 -16 18t-6 25t8 23.5t25 10.5t27 -11t10 -27q0 -10 -4.5 -21t-15 -20t-27.5 -15t-41 -6q-21 0 -41.5 5
t-37 17t-26.5 30.5t-10 45.5t10.5 48.5t27 38.5t37 30.5t40.5 25.5q35 20 59.5 36.5t40.5 31t25 28t12 27.5h-259v113h18q0 -27 4.5 -37.5t29.5 -10.5h233v-29z" />
    <glyph glyph-name="uni2078" unicode="&#x2078;" horiz-adv-x="372" 
d="M174 327q-27 0 -54.5 5t-49.5 17t-36 31t-14 47q0 24 10 43.5t25 34.5t33.5 25.5t35.5 14.5q-22 9 -40 18.5t-30.5 21t-19 27.5t-6.5 38q0 34 14 56t36 35t47.5 18.5t47.5 5.5q26 0 51 -6t45 -17.5t32.5 -28.5t12.5 -40q0 -16 -7 -31t-18 -27.5t-25 -21t-28 -13.5
q5 -3 11 -6l12 -6q12 -6 28.5 -16t30.5 -24t24 -34t10 -47q0 -36 -17.5 -59t-44.5 -36.5t-58 -19t-58 -5.5zM194 746q-28 0 -43 -23t-15 -47q0 -20 16 -39t63 -46q23 12 36 35t13 46q0 32 -22.5 53t-47.5 21zM70 436q0 -21 8 -37.5t21 -28.5t30.5 -18t35.5 -6
q38 0 56.5 24.5t18.5 56.5q0 23 -8 39.5t-21 29.5t-29 22t-32 16q-36 -11 -58 -37t-22 -61z" />
    <glyph glyph-name="uni2079" unicode="&#x2079;" horiz-adv-x="373" 
d="M158 342q29 0 45 18t23.5 44t9.5 56.5t2 55.5v18q-23 -36 -81 -36q-26 0 -51 8.5t-44 25t-30.5 41.5t-11.5 58q0 34 12 59t33.5 41.5t50 25t61.5 8.5q52 0 86 -19t54 -49.5t28 -69t8 -77.5q0 -45 -10 -85.5t-31.5 -71t-56 -48.5t-82.5 -18q-23 0 -48 4.5t-45.5 14t-34 25
t-13.5 36.5q0 22 13 34.5t32 12.5q8 0 18 -3t18.5 -10t14 -19t5.5 -29t-5 -26t-13 -16q3 -3 16.5 -6t26.5 -3zM185 745q-16 0 -26 -13.5t-15.5 -32t-7 -37t-1.5 -28.5t1.5 -29.5t7.5 -38t16.5 -32.5t28.5 -14q15 0 24 10t14 25t6.5 32.5t1.5 31.5q0 10 -1 31t-6 42t-15 37
t-28 16z" />
    <glyph glyph-name="fraction" unicode="&#x2044;" horiz-adv-x="300" 
d="M365 715l-386 -730h-44l386 730h44z" />
    <glyph glyph-name="uni2080" unicode="&#x2080;" horiz-adv-x="394" 
d="M197 -65q-37 0 -69 14.5t-56 42.5t-38 68.5t-14 93.5t14 93.5t38 68.5t56 42.5t69 14.5t69 -14.5t56 -42.5t38 -68.5t14 -93.5t-14 -93.5t-38 -68.5t-56 -42.5t-69 -14.5zM197 -5q21 0 39.5 7.5t32.5 26t22 49t8 76.5t-8 76.5t-22 49t-32.5 26t-39.5 7.5t-39.5 -7.5
t-32.5 -26t-22 -49t-8 -76.5t8 -76.5t22 -49t32.5 -26t39.5 -7.5z" />
    <glyph glyph-name="uni2081" unicode="&#x2081;" horiz-adv-x="267" 
d="M205 10q0 -16 0.5 -26t4.5 -15.5t12.5 -7.5t24.5 -2v-9h-194v9q16 0 24.5 2t12.5 7.5t4.5 15.5t0.5 26v290h-75v15q21 0 40.5 1t34.5 6t24.5 16t9.5 32h76v-360z" />
    <glyph glyph-name="uni2082" unicode="&#x2082;" horiz-adv-x="346" 
d="M20 -23q0 21 5.5 40t17.5 38.5t32 41.5t50 49q24 22 40.5 39.5t26.5 33t14.5 30.5t4.5 31q0 32 -16.5 57t-54.5 25q-20 0 -46 -9q17 -6 24 -19.5t7 -29.5q0 -28 -16 -41t-36 -13q-21 0 -34.5 13t-13.5 35q0 23 14.5 38.5t37.5 25t50.5 13.5t52.5 4t51 -4t47 -15.5
t34.5 -31t13.5 -49.5t-14 -56t-39 -48.5t-59 -42t-75 -35.5q-25 -10 -52.5 -28t-40.5 -54h271v-113h-18q0 27 -4.5 37.5t-31.5 10.5h-243v27z" />
    <glyph glyph-name="uni2083" unicode="&#x2083;" horiz-adv-x="359" 
d="M162 -65q-21 0 -45.5 4t-46 13t-36 24t-14.5 37q0 20 11.5 32.5t28.5 12.5q6 0 14.5 -2.5t16 -8.5t13 -17t5.5 -29q0 -13 -4 -22.5t-16 -19.5q12 -5 23.5 -7t22.5 -2q50 0 69.5 30.5t19.5 81.5q0 12 -2 27.5t-9.5 29.5t-23 24.5t-42.5 13.5h-34v15h30q18 0 30.5 9
t19.5 22.5t10 29.5t3 31q0 16 -3.5 32t-11.5 29.5t-21.5 22t-33.5 8.5q-18 0 -38 -7q18 -10 24.5 -22t6.5 -27q0 -16 -5 -27t-13 -17.5t-17.5 -9t-17.5 -2.5q-20 0 -33.5 13t-13.5 35t13.5 37.5t34.5 25t45 14t45 4.5q23 0 50 -5.5t50 -18t38.5 -33t15.5 -51.5
q0 -24 -9.5 -41.5t-25.5 -30t-36.5 -20t-42.5 -11.5q25 -1 49 -6.5t42.5 -17t29.5 -30.5t11 -47q0 -35 -17.5 -59t-43.5 -39t-57.5 -21.5t-58.5 -6.5z" />
    <glyph glyph-name="uni2084" unicode="&#x2084;" horiz-adv-x="396" 
d="M20 57v21l227 298h66v-294h63v-25h-63v-49q0 -15 0.5 -24.5t4.5 -15t12.5 -7.5t24.5 -2v-9h-194v9q16 0 24.5 2t12.5 7.5t4.5 15t0.5 24.5v49h-183zM203 82v212l-161 -212h161z" />
    <glyph glyph-name="uni2085" unicode="&#x2085;" horiz-adv-x="354" 
d="M141 -50q34 0 56 28t22 95q0 66 -21.5 93t-56.5 27q-27 0 -50 -12t-40 -27l-12 9l24 201h177q14 0 21 6t10.5 16.5t4 23.5t0.5 26h18v-137h-218l-16 -118q19 12 43.5 19.5t47.5 7.5q95 0 139 -36.5t44 -99.5t-41.5 -100t-123.5 -37q-38 0 -66 8t-46.5 21t-27.5 29t-9 32
q0 18 11.5 34.5t37.5 16.5q19 0 35 -11.5t16 -40.5q0 -19 -8.5 -35t-22.5 -28q9 -5 24 -8t28 -3z" />
    <glyph glyph-name="uni2086" unicode="&#x2086;" horiz-adv-x="373" 
d="M215 358q-28 0 -44.5 -18t-24 -44t-9.5 -56.5t-2 -55.5v-18q23 36 81 36q26 0 51 -8.5t44 -25t30.5 -41.5t11.5 -58q0 -34 -12 -59t-33.5 -41.5t-50 -25t-61.5 -8.5q-52 0 -86 19t-54 49.5t-28 69.5t-8 79q0 45 9.5 85t29.5 70t52 48t78 18q23 0 47.5 -5t44.5 -15
t33 -25.5t13 -36.5q0 -22 -13 -34.5t-32 -12.5q-8 0 -18 3t-18.5 10t-14 17.5t-5.5 26.5q0 20 9 30t23 18q-3 3 -16.5 6t-26.5 3zM188 -45q17 0 26.5 13.5t15 32t7 37.5t1.5 29t-1.5 29t-7.5 37.5t-16.5 32.5t-28.5 14q-15 0 -24 -10t-14 -25t-6.5 -32.5t-1.5 -31.5
q0 -10 1 -31t6 -42t15 -37t28 -16z" />
    <glyph glyph-name="uni2087" unicode="&#x2087;" horiz-adv-x="325" 
d="M305 336q0 -27 -7 -49.5t-17.5 -42t-24 -36t-25.5 -31.5q-21 -24 -37.5 -44.5t-28.5 -40.5t-18.5 -40.5t-6.5 -44.5q0 -32 10 -42.5t21 -10.5q9 0 11 4q-10 6 -16 18t-6 25t8 24t25 11t27 -11t10 -27q0 -10 -4.5 -21t-15 -20.5t-27.5 -15.5t-41 -6q-21 0 -41.5 5t-37 17
t-26.5 30.5t-10 45.5t10.5 48.5t27 38.5t37 30.5t40.5 25.5q35 20 59.5 36.5t40.5 31t25 28t12 28.5h-259v112h18q0 -27 4.5 -37.5t29.5 -10.5h233v-28z" />
    <glyph glyph-name="uni2088" unicode="&#x2088;" horiz-adv-x="372" 
d="M174 -65q-27 0 -54.5 5t-49.5 17t-36 31t-14 47q0 24 10 43.5t25 34.5t33.5 25.5t35.5 14.5q-22 9 -40 18.5t-30.5 21t-19 27.5t-6.5 38q0 34 14 56t36 35t47.5 18.5t47.5 5.5q26 0 51 -6t45 -17.5t32.5 -28.5t12.5 -40q0 -16 -7 -31t-18 -27.5t-25 -21t-28 -13.5
q5 -3 11 -6l12 -6q12 -6 28.5 -16t30.5 -24t24 -34t10 -47q0 -36 -17.5 -59t-44.5 -36.5t-58 -19t-58 -5.5zM194 354q-28 0 -43 -23t-15 -47q0 -20 16 -39t63 -46q23 12 36 35t13 46q0 32 -22.5 53t-47.5 21zM70 44q0 -21 8 -37.5t21 -28.5t30.5 -18t35.5 -6q38 0 56.5 24.5
t18.5 56.5q0 23 -8 39.5t-21 29.5t-29 22t-32 16q-36 -11 -58 -37t-22 -61z" />
    <glyph glyph-name="uni2089" unicode="&#x2089;" horiz-adv-x="373" 
d="M158 -50q29 0 45 18t23.5 44t9.5 56.5t2 55.5v18q-23 -36 -81 -36q-26 0 -51 8.5t-44 25t-30.5 41.5t-11.5 58q0 34 12 59t33.5 41.5t50 25t61.5 8.5q52 0 86 -19t54 -49.5t28 -69t8 -77.5q0 -45 -10 -85.5t-31.5 -71t-56 -48.5t-82.5 -18q-23 0 -48 4.5t-45.5 14t-34 25
t-13.5 36.5q0 22 13 34.5t32 12.5q8 0 18 -3t18.5 -10t14 -19t5.5 -29t-5 -26t-13 -16q3 -3 16.5 -6t26.5 -3zM185 353q-16 0 -26 -13.5t-15.5 -32t-7 -37t-1.5 -28.5t1.5 -29.5t7.5 -38t16.5 -32.5t28.5 -14q15 0 24 10t14 25t6.5 32.5t1.5 31.5q0 10 -1 31t-6 42t-15 37
t-28 16z" />
    <glyph glyph-name="ordfeminine" unicode="&#xaa;" horiz-adv-x="426" 
d="M205 568h13.5t12.5 1v17q0 35 -4.5 58t-13 36t-21 18t-27.5 5q-13 0 -22 -3q13 -13 18 -26.5t5 -24.5q0 -23 -15.5 -36.5t-37.5 -13.5q-21 0 -34 13t-13 33q0 27 27 48t88 21q78 0 119 -35.5t41 -92.5v-120q0 -25 16 -25q6 0 15.5 6t19.5 15q0 -11 -6.5 -22t-18 -19.5
t-26 -13.5t-29.5 -5q-26 0 -45 14t-27 35q-14 -25 -37 -40t-52 -15q-57 0 -87 23.5t-30 60.5q0 31 18 48.5t44 26.5t55.5 11t53.5 2zM184 421q17 0 28.5 16.5t18.5 30.5v85q-38 0 -60 -14t-22 -58q0 -32 10.5 -46t24.5 -14z" />
    <glyph glyph-name="ordmasculine" unicode="&#xba;" horiz-adv-x="400" 
d="M201 715q77 0 122 -42t45 -117t-45 -117t-122 -42q-78 0 -123.5 42t-45.5 117t45.5 117t123.5 42zM200 417q9 0 18.5 6t17 21.5t12.5 42.5t5 69t-5 69t-12.5 42.5t-17 21.5t-18.5 6t-18.5 -6t-17 -21.5t-12.5 -42.5t-5 -69t5 -69t12.5 -42.5t17 -21.5t18.5 -6z" />
    <glyph glyph-name="onequarter" unicode="&#xbc;" horiz-adv-x="746" 
d="M172 -15l386 730h44l-386 -730h-44zM30 645q21 0 40.5 1t34.5 6t24.5 16t9.5 32h76v-360q0 -16 0.5 -26t4.5 -15.5t12.5 -7.5t24.5 -2v-9h-194v9q16 0 24.5 2t12.5 7.5t4.5 15.5t0.5 26v290h-75v15zM587 426h66v-294h63v-25h-63v-49q0 -15 0.5 -24.5t4.5 -15t12.5 -7.5
t24.5 -2v-9h-194v9q16 0 24.5 2t12.5 7.5t4.5 15t0.5 24.5v49h-183v21zM543 132v212l-161 -212h161z" />
    <glyph glyph-name="onehalf" unicode="&#xbd;" horiz-adv-x="782" 
d="M603 715l-386 -730h-44l386 730h44zM215 340q0 -16 0.5 -26t4.5 -15.5t12.5 -7.5t24.5 -2v-9h-194v9q16 0 24.5 2t12.5 7.5t4.5 15.5t0.5 26v290h-75v15q21 0 40.5 1t34.5 6t24.5 16t9.5 32h76v-360zM446 26q0 21 5.5 40t17.5 38.5t32 41.5t50 49q24 22 40.5 39.5
t26.5 33t14.5 30.5t4.5 31q0 32 -16.5 57t-54.5 25q-20 0 -46 -9q17 -6 24 -19.5t7 -29.5q0 -28 -16 -41t-36 -13q-21 0 -34.5 13t-13.5 35q0 23 14.5 38.5t37.5 25t50.5 13.5t52.5 4t51 -4t47 -15.5t34.5 -31t13.5 -49.5t-14 -56t-39 -48.5t-59 -42t-75 -35.5
q-25 -10 -52.5 -28t-40.5 -54h271v-113h-18q0 27 -4.5 37.5t-31.5 10.5h-243v27z" />
    <glyph glyph-name="threequarters" unicode="&#xbe;" horiz-adv-x="769" 
d="M70 400q6 0 14.5 -2.5t16 -8.5t13 -17t5.5 -29q0 -13 -4 -22.5t-16 -19.5q12 -5 23.5 -7t22.5 -2q50 0 69.5 30.5t19.5 81.5q0 12 -2 27.5t-9.5 29.5t-23 24.5t-42.5 13.5h-34v15h30q18 0 30.5 9t19.5 22.5t10 29.5t3 31q0 16 -3.5 32t-11.5 29.5t-21.5 22t-33.5 8.5
q-18 0 -38 -7q18 -10 24.5 -22t6.5 -27q0 -16 -5 -27t-13 -17.5t-17.5 -9t-17.5 -2.5q-20 0 -33.5 13t-13.5 35t13.5 37.5t34.5 25t45 14t45 4.5q23 0 50 -5.5t50 -18t38.5 -33t15.5 -51.5q0 -24 -9.5 -41.5t-25.5 -30t-36.5 -20t-42.5 -11.5q25 -1 49 -6.5t42.5 -17
t29.5 -30.5t11 -47q0 -35 -17.5 -59t-43.5 -39t-57.5 -21.5t-58.5 -6.5q-21 0 -45.5 4t-46 13t-36 24t-14.5 37q0 20 11.5 32.5t28.5 12.5zM195 -15l386 730h44l-386 -730h-44zM383 107v21l227 298h66v-294h63v-25h-63v-49q0 -15 0.5 -24.5t4.5 -15t12.5 -7.5t24.5 -2v-9
h-194v9q16 0 24.5 2t12.5 7.5t4.5 15t0.5 24.5v49h-183zM405 132h161v212z" />
    <glyph glyph-name="logicalnot" unicode="&#xac;" horiz-adv-x="470" 
d="M395 325h-365v40h410v-145h-45v105z" />
    <glyph glyph-name="section" unicode="&#xa7;" horiz-adv-x="520" 
d="M208 49q-49 27 -81.5 48.5t-51.5 42t-27 40.5t-8 44q0 32 12 56.5t31 42t43.5 29.5t49.5 18q-60 38 -88 79.5t-28 95.5q0 48 20.5 80t53 51t72 26.5t77.5 7.5q48 0 82 -10t55.5 -26t31 -36t9.5 -41q0 -34 -21 -54t-53 -20q-34 0 -51.5 22.5t-17.5 54.5q0 20 6.5 42.5
t20.5 42.5q-10 4 -18 4.5t-19 0.5q-22 0 -38 -10.5t-26 -26.5t-14.5 -35t-4.5 -36q0 -27 10.5 -47.5t27.5 -38t40 -33t48 -30.5q23 -14 45.5 -29.5t41.5 -34.5t30.5 -42.5t11.5 -53.5t-12.5 -53t-32 -39t-43.5 -26t-48 -15q66 -36 101 -77.5t35 -103.5q0 -53 -23.5 -86
t-60 -51.5t-81 -25t-85.5 -6.5q-25 0 -57.5 4.5t-60.5 17t-47.5 34t-19.5 54.5q0 34 19.5 54.5t50.5 20.5q32 0 51 -21.5t19 -54.5q0 -18 -6 -38.5t-19 -40.5q11 -5 24.5 -7.5t27.5 -2.5q53 0 78 30.5t25 73.5q0 28 -9.5 48.5t-24.5 36.5t-34 28t-39 22zM222 343l-6 4l-12 6
l-6 4q-8 -30 -8 -52q0 -28 12 -51.5t30.5 -42t42 -33.5t46.5 -26q5 17 7 30t2 21q0 32 -14.5 56.5t-33 42t-36 28t-24.5 13.5z" />
    <glyph glyph-name="approxequal" unicode="&#x2248;" horiz-adv-x="443" 
d="M390 449h18q-3 -20 -10 -39.5t-19 -35t-29 -25t-41 -9.5q-25 0 -49.5 10t-50.5 24q-26 13 -48.5 22.5t-43.5 9.5q-29 0 -43.5 -18.5t-18.5 -44.5h-17q3 20 10 39t19 35t30 25.5t42 9.5q18 0 39.5 -7.5t63.5 -29.5q19 -9 41 -18t45 -9q30 0 43.5 18t18.5 43zM387 318h18
q-3 -20 -10 -39.5t-19 -35t-29 -25t-41 -9.5q-26 0 -51.5 10.5t-48.5 22.5q-26 14 -48.5 23t-42.5 9q-29 0 -44 -18t-19 -44h-17q3 19 10 38.5t19 35t29.5 25.5t41.5 10q19 0 40 -7.5t61 -27.5q21 -11 43.5 -20.5t45.5 -9.5q30 0 43.5 18t18.5 44z" />
    <glyph glyph-name="guilsinglleft" unicode="&#x2039;" horiz-adv-x="332" 
d="M299 427l-131 -182l128 -184h-120l-135 184l139 182h119z" />
    <glyph glyph-name="guilsinglright" unicode="&#x203a;" horiz-adv-x="332" 
d="M152 427l139 -182l-135 -184h-120l128 184l-131 182h119z" />
    <glyph glyph-name="guillemotleft" unicode="&#xab;" horiz-adv-x="532" 
d="M241 245l139 182h119l-131 -182l128 -184h-120zM180 427h119l-131 -182l128 -184h-120l-135 184z" />
    <glyph glyph-name="guillemotright" unicode="&#xbb;" horiz-adv-x="532" 
d="M352 427l139 -182l-135 -184h-120l128 184l-131 182h119zM152 427l139 -182l-135 -184h-120l128 184l-131 182h119z" />
    <glyph glyph-name="lira" unicode="&#x20a4;" horiz-adv-x="601" 
d="M35 25q25 3 39.5 19t22 37.5t10 45.5t3.5 43l5 116h-70v25h71l2 50h-73v25h75l5 124q2 51 19.5 89.5t47 64t69 38.5t85.5 13q30 0 62.5 -5.5t59.5 -18.5t44.5 -32.5t17.5 -48.5q0 -30 -20 -54.5t-50 -24.5t-50 24.5t-20 54.5q0 14 5.5 35t19.5 41q-9 5 -18.5 7t-16.5 2
q-26 0 -43 -21.5t-27.5 -51t-14.5 -61t-5 -51.5l-5 -124h175v-25h-177l-2 -50h179v-25h-180l-5 -116q-2 -45 -26 -78.5t-69 -41.5h295q23 0 35 11t17.5 29t6.5 40.5t1 44.5h30v-175h-530v25z" />
    <glyph glyph-name="franc" unicode="&#x20a3;" horiz-adv-x="592" 
d="M42 190h60v410q0 23 -1 39t-6.5 26t-17.5 15t-35 5v15h535v-160h-30q0 24 -1 48.5t-7 43.5t-19.5 31t-37.5 12h-215v-315h115q17 0 26 9.5t13.5 24t5 32t0.5 34.5h30v-225h-30q0 17 -0.5 34.5t-5 32t-13.5 24t-26 9.5h-115v-145h150v-40h-150v-50q0 -22 1 -38.5
t6.5 -26.5t18 -15t34.5 -5v-15h-285v15q23 0 35 5t17.5 15t6.5 26.5t1 38.5v50h-60v40z" />
    <glyph glyph-name="pi" unicode="&#x3c0;" horiz-adv-x="589" 
d="M163 500h382v-90h-139q-2 -23 -4.5 -56t-2.5 -70t3.5 -73.5t12 -65.5t23.5 -47.5t39 -18.5q29 0 46 21.5t30 55.5q-1 -26 -8 -56t-20.5 -55.5t-34 -42.5t-48.5 -17q-32 0 -53 23t-33 60t-17 83.5t-5 93.5q0 48 3.5 91.5t7.5 73.5h-117q0 -25 -1.5 -66.5t-5 -89t-11 -95.5
t-20 -86.5t-31 -63t-44.5 -24.5q-9 0 -21 3.5t-23 13.5t-19 27.5t-8 45.5q15 -23 26.5 -34.5t25.5 -11.5q18 0 32.5 20t25.5 52t19 73t13.5 83t8 82.5t3.5 70.5h-52q-41 0 -64 -17.5t-41 -45.5q0 25 7.5 52t23 49.5t38.5 37t53 14.5z" />
    <glyph glyph-name="integral" unicode="&#x222b;" horiz-adv-x="382" 
d="M61 -124q14 0 21.5 -4t14.5 -9q5 -4 10.5 -6.5t13.5 -2.5q13 0 17.5 8.5t4.5 25.5v439q0 24 1.5 62t6 81t14 86.5t25.5 79t40 57.5t58 22q12 0 25 -3t24 -9t18 -15t7 -22q0 -22 -18.5 -32t-38.5 -10q-14 0 -21.5 4t-14.5 9q-5 4 -10.5 6.5t-13.5 2.5q-13 0 -17.5 -8.5
t-4.5 -25.5v-439q0 -24 -1.5 -62t-6 -81t-14 -86.5t-25.5 -79t-40 -57.5t-58 -22q-12 0 -25 3t-24 9t-18 15t-7 22q0 22 18.5 32t38.5 10z" />
    <glyph glyph-name="infinity" unicode="&#x221e;" horiz-adv-x="783" 
d="M228 133q-40 0 -72 14.5t-55 40t-35.5 59t-12.5 70.5q0 33 10 66t30 59.5t49 42.5t67 16q28 0 49.5 -9t38.5 -24.5t30.5 -36.5t25.5 -44q11 30 25 55t34.5 43.5t48 29t66.5 10.5q49 0 87 -16.5t63.5 -44.5t39 -65t13.5 -77q0 -39 -12 -77.5t-34.5 -69t-54.5 -50
t-71 -19.5q-33 0 -58.5 13.5t-46.5 34.5t-37.5 47.5t-30.5 51.5q-26 -56 -62 -88t-95 -32zM425 356q-6 -18 -12 -34.5t-12 -32.5q12 -26 25.5 -50.5t32 -43t42.5 -30t56 -11.5q35 0 61.5 13t45.5 35t28.5 51t9.5 60q0 32 -9.5 62.5t-28 55.5t-45 40t-60.5 15
q-33 0 -56.5 -14.5t-39 -35t-24.5 -42.5t-14 -38zM203 456q-29 0 -51.5 -11t-38.5 -29.5t-24 -43t-8 -51.5q0 -25 7.5 -51.5t22.5 -48.5t37 -35.5t50 -13.5q30 0 52 15.5t37.5 39.5t27 53t20.5 57l2 6t2 5q-10 21 -22.5 40.5t-29 34.5t-37.5 24t-47 9z" />
    <glyph glyph-name="notequal" unicode="&#x2260;" horiz-adv-x="450" 
d="M35 385v40h228l88 135h37l-88 -135h115v-40h-141l-65 -100h206v-40h-232l-83 -127h-37l83 127h-111v40h137l65 100h-202z" />
    <glyph glyph-name="ellipsis" unicode="&#x2026;" horiz-adv-x="696" 
d="M191 65q0 -30 -22.5 -52.5t-52.5 -22.5t-52.5 22.5t-22.5 52.5t22.5 52.5t52.5 22.5t52.5 -22.5t22.5 -52.5zM423 65q0 -30 -22.5 -52.5t-52.5 -22.5t-52.5 22.5t-22.5 52.5t22.5 52.5t52.5 22.5t52.5 -22.5t22.5 -52.5zM655 65q0 -30 -22.5 -52.5t-52.5 -22.5
t-52.5 22.5t-22.5 52.5t22.5 52.5t52.5 22.5t52.5 -22.5t22.5 -52.5z" />
    <glyph glyph-name="peseta" unicode="&#x20a7;" horiz-adv-x="1605" 
d="M42 0v15q23 0 35 5t17.5 15t6.5 26.5t1 38.5v500q0 23 -1 39t-6.5 26t-17.5 15t-35 5v15h280q86 0 145.5 -14.5t96 -42.5t52.5 -67.5t16 -90.5t-16 -90.5t-52.5 -67.5t-96 -42.5t-145.5 -14.5h-55v-170q0 -22 1 -38.5t6.5 -26.5t18 -15t34.5 -5v-15h-285zM322 295
q60 0 100 46.5t40 143.5t-40 143.5t-100 46.5h-55v-380h55zM747 705q21 0 42 -6t37.5 -18.5t26.5 -31.5t10 -44v-105h150v-25h-150v-345q0 -13 1 -32.5t8 -37.5t22.5 -31t43.5 -13q36 0 72.5 22t71.5 57q0 -19 -9 -38.5t-30 -35.5t-55 -26t-84 -10q-90 0 -145.5 36
t-55.5 109v345h-60v25h60v105q0 19 -7 26.5t-17 7.5q-13 0 -29 -9.5t-32 -25.5q0 19 10.5 37t28 32.5t41 23t49.5 8.5zM1243 143q0 -29 -17 -60q-2 -4 -4 -8.5t-2 -10.5q0 -13 9 -22t23 -14.5t30 -8t30 -2.5q35 0 60 15t25 53q0 17 -5.5 30t-18.5 25t-33 24t-49 27
q-53 27 -88.5 50t-56.5 44t-30 41.5t-9 43.5q0 32 15 58.5t43 46t67.5 30t88.5 10.5q44 0 84.5 -9t71 -27t48.5 -44.5t18 -60.5q0 -36 -20 -58.5t-53 -22.5q-32 0 -54 20t-22 55q0 21 6.5 37t11.5 24q8 16 8 20q0 10 -20 25t-51 15q-32 0 -54.5 -19.5t-22.5 -49.5
q0 -20 10 -36.5t24 -29t29.5 -21.5t26.5 -15q60 -31 98 -56.5t60 -46.5t30.5 -40t8.5 -39q0 -33 -19 -61t-52 -48t-77 -31t-94 -11q-39 0 -79.5 8t-74 25.5t-54.5 46t-21 69.5q0 40 21 64.5t59 24.5t56.5 -23t18.5 -57z" />
    <glyph glyph-name="lessequal" unicode="&#x2264;" horiz-adv-x="505" 
d="M25 444v14l445 242v-55l-357 -194l357 -196v-55zM25 145h445v-40h-445v40z" />
    <glyph glyph-name="greaterequal" unicode="&#x2265;" horiz-adv-x="505" 
d="M480 458v-14l-445 -244v55l357 196l-357 194v55zM35 105v40h445v-40h-445z" />
    <glyph glyph-name="lozenge" unicode="&#x25ca;" horiz-adv-x="519" 
d="M474 358l-186 -358h-57l-186 358l186 356h57zM429 358l-170 328l-168 -328l168 -329z" />
    <glyph glyph-name="radical" unicode="&#x221a;" horiz-adv-x="589" 
d="M564 715l-153 -722l-282 454l-82 -38v53l109 59l245 -401l127 595h36z" />
    <glyph glyph-name="summation" unicode="&#x2211;" horiz-adv-x="714" 
d="M684 50v-225h-655l357 413l-355 464h616v-167h-29q0 43 -6 66.5t-22 34t-43.5 12.5t-70.5 2h-270l280 -367l-301 -348h341q43 0 68.5 2t38.5 12.5t17 34t4 66.5h30z" />
    <glyph glyph-name="divide" unicode="&#xf7;" horiz-adv-x="475" 
d="M313 520q0 -30 -22.5 -52.5t-52.5 -22.5t-52.5 22.5t-22.5 52.5t22.5 52.5t52.5 22.5t52.5 -22.5t22.5 -52.5zM313 150q0 -30 -22.5 -52.5t-52.5 -22.5t-52.5 22.5t-22.5 52.5t22.5 52.5t52.5 22.5t52.5 -22.5t22.5 -52.5zM440 355v-40h-405v40h405z" />
    <glyph glyph-name="product" unicode="&#x220f;" horiz-adv-x="894" 
d="M40 675v25h814v-25q-37 0 -58.5 -1.5t-32 -11t-13 -29.5t-2.5 -58v-633q0 -34 3 -52t13 -26.5t29.5 -10t53.5 -1.5v-25h-313v25q34 0 53.5 1.5t29.5 10t13 26.5t3 52v698h-367v-698q0 -34 3 -52t13.5 -26.5t30 -10t53.5 -1.5v-25h-315v25q34 0 53.5 1.5t30 10t13.5 26.5
t3 52v633q0 38 -3.5 58t-14.5 29.5t-33 11t-60 1.5z" />
    <glyph glyph-name="estimated" unicode="&#x212e;" horiz-adv-x="798" 
d="M403 617q74 0 138 -22.5t111 -65.5t74 -104t27 -139h-560v-136q0 -32 24.5 -55.5t59.5 -39t75.5 -23t71.5 -7.5q51 0 99 20.5t93 68.5h90q0 -3 -5.5 -9t-12 -13t-13 -13t-9.5 -8q-27 -24 -58.5 -40.5t-65 -26.5t-67 -14.5t-64.5 -4.5q-74 0 -141 21.5t-118 63
t-81.5 100.5t-30.5 134t30.5 133.5t80.5 98.5t116 60.5t136 20.5zM193 326h414v133q0 31 -23.5 53.5t-56 36.5t-67.5 21t-59 7t-59.5 -7t-68.5 -21.5t-56.5 -37t-23.5 -52.5v-133z" />
    <glyph glyph-name="uni2206" unicode="&#x2206;" horiz-adv-x="641" 
d="M340 705l289 -705h-617zM303 530l-224 -480h422z" />
    <glyph glyph-name="trademark" unicode="&#x2122;" horiz-adv-x="849" 
d="M353 357q30 0 35.5 10t5.5 40v245q0 11 -13 11q-8 0 -17 -11q0 13 7.5 22.5t18.5 15.5t24 9t24 3q5 0 8.5 -0.5t8.5 -1.5q20 -5 32 -19t19 -30l88 -207l93 213q9 21 38.5 32t61.5 11h52v-8q-23 0 -26.5 -9.5t-3.5 -32.5v-250q0 -23 3.5 -33t26.5 -10v-8h-170v8
q23 0 26.5 10t3.5 33v237l-128 -290h-33l-124 290v-230q0 -30 5 -40t35 -10v-8h-101v8zM5 620v80h320v-80h-15q0 12 -0.5 23.5t-3.5 21t-10 15t-19 5.5h-57v-285q0 -23 3.5 -33t26.5 -10v-8h-170v8q23 0 26.5 10t3.5 33v285h-57q-12 0 -19 -5.5t-10 -15t-3.5 -21t-0.5 -23.5
h-15z" />
    <glyph glyph-name="uni2215" unicode="&#x2215;" horiz-adv-x="300" 
d="M365 715l-386 -730h-44l386 730h44z" />
    <glyph glyph-name="partialdiff" unicode="&#x2202;" horiz-adv-x="569" 
d="M158 561q14 31 31.5 59t41 49t53.5 33.5t68 12.5q52 0 89.5 -23t61.5 -60.5t35.5 -84t11.5 -93.5q0 -41 -8.5 -91.5t-26 -103t-44 -101.5t-62 -87.5t-80.5 -62t-100 -23.5q-36 0 -67 11t-53.5 32t-35.5 52t-13 72q0 54 22 107.5t60.5 97t90 70.5t111.5 27
q51 0 90.5 -22.5t62.5 -72.5h2q2 23 3.5 45t1.5 39q0 44 -11 81t-32 64t-52.5 42t-73.5 15q-51 0 -92 -22t-85 -62zM489 315q-18 50 -52.5 82t-91.5 32q-52 0 -88.5 -26.5t-60 -67.5t-34.5 -90t-11 -93q0 -75 26.5 -108t65.5 -33q32 0 68 20t70 59t63 95.5t45 129.5z" />
    <glyph glyph-name="uni0394" unicode="&#x394;" horiz-adv-x="641" 
d="M340 705l289 -705h-617zM303 530l-224 -480h422z" />
    <glyph glyph-name="uni2126" unicode="&#x2126;" horiz-adv-x="858" 
d="M95 164q0 -22 2.5 -34.5t10 -18t21.5 -6.5t36 -1h150l-2 28q-49 14 -90 38t-70.5 59t-45.5 79.5t-16 98.5q0 72 28 127.5t75 93.5t108.5 57.5t127.5 19.5t127 -19.5t108 -57t75 -93t28 -127.5q0 -54 -16 -99t-45.5 -79.5t-70 -59t-90.5 -38.5l-2 -28h151q23 0 36 1
t20.5 6.5t9.5 18t2 34.5h25v-164h-302l17 156l19 8q36 17 60 43.5t39 59t21 69.5t6 75q0 54 -12 101.5t-38 83t-67.5 56t-100.5 20.5t-100.5 -20.5t-68 -56t-39 -83t-12.5 -100.5q0 -37 7.5 -77.5t25 -76.5t45.5 -63t68 -39l16 -156h-302v164h25z" />
    <glyph glyph-name="uni03BC.1" 
d="M22 404q0 19 10.5 37t27.5 32.5t40.5 23t48.5 8.5q22 0 43.5 -7t38 -20.5t26.5 -33t10 -44.5v-250q0 -34 7 -58.5t18 -40.5t25 -23.5t29 -7.5t28.5 7.5t24.5 19.5t19.5 26.5t13.5 27.5v299q0 19 -7.5 29t-18.5 10t-27 -9.5t-32 -25.5q0 19 10.5 37t27.5 32.5t40.5 23
t48.5 8.5q22 0 43.5 -7t38 -20.5t26.5 -33t10 -44.5v-305q0 -19 7 -26.5t17 -7.5q13 0 29 9.5t32 25.5q0 -19 -10.5 -37t-28 -32.5t-41 -23t-49.5 -8.5q-35 0 -66 16t-43 48q-26 -39 -57 -61.5t-67 -22.5q-13 0 -27 2.5t-21 7.5v-85q0 -23 1 -39t6.5 -26t18 -15t34.5 -5v-15
h-280v15q23 0 35 5t17.5 15t6.5 26t1 39v500q0 19 -7.5 29t-18.5 10t-27 -9.5t-32 -25.5z" />
    <glyph glyph-name="uni03A9" unicode="&#x3a9;" horiz-adv-x="858" 
d="M95 164q0 -22 2.5 -34.5t10 -18t21.5 -6.5t36 -1h150l-2 28q-49 14 -90 38t-70.5 59t-45.5 79.5t-16 98.5q0 72 28 127.5t75 93.5t108.5 57.5t127.5 19.5t127 -19.5t108 -57t75 -93t28 -127.5q0 -54 -16 -99t-45.5 -79.5t-70 -59t-90.5 -38.5l-2 -28h151q23 0 36 1
t20.5 6.5t9.5 18t2 34.5h25v-164h-302l17 156l19 8q36 17 60 43.5t39 59t21 69.5t6 75q0 54 -12 101.5t-38 83t-67.5 56t-100.5 20.5t-100.5 -20.5t-68 -56t-39 -83t-12.5 -100.5q0 -37 7.5 -77.5t25 -76.5t45.5 -63t68 -39l16 -156h-302v164h25z" />
    <glyph glyph-name="multiply" unicode="&#xd7;" horiz-adv-x="431" 
d="M83 493l132 -132l132 132l29 -28l-129 -129l129 -130l-29 -28l-132 132l-132 -132l-28 28l129 130l-129 129z" />
    <glyph glyph-name="thorn" unicode="&#xfe;" horiz-adv-x="662" 
d="M168 715q49 0 78 -25.5t29 -79.5v-160q23 31 57 48t76 17q41 0 78 -17t64.5 -51t43.5 -83.5t16 -115.5q0 -65 -16 -114t-44.5 -82t-68 -50t-86.5 -17q-30 0 -52 6t-37 14q-8 4 -15.5 9t-15.5 11v-125q0 -23 1 -39t6.5 -26t18 -15t34.5 -5v-15h-280v15q23 0 35 5t17.5 15
t6.5 26t1 39v710q0 19 -7.5 29t-18.5 10t-27 -9.5t-32 -25.5q0 19 10.5 37t29 32.5t43.5 23t55 8.5zM275 58q16 -15 35 -28t45 -13q17 0 32.5 9t27 34t18.5 69.5t7 116.5q0 73 -7 118.5t-18 71t-25 34.5t-29 9q-16 0 -29 -7.5t-23.5 -19t-19 -25.5t-14.5 -28v-341z" />
    <glyph glyph-name="Thorn" unicode="&#xde;" horiz-adv-x="716" 
d="M42 15q23 0 35 5t17.5 15t6.5 26.5t1 38.5v500q0 23 -1 39t-6.5 26t-17.5 15t-35 5v15h285v-15q-21 0 -33 -4t-18 -13t-7.5 -22.5t-1.5 -32.5h36q12 0 24 -2q59 -4 116.5 -18.5t103 -45t73.5 -78.5t28 -119t-28 -119.5t-73 -78.5t-102.5 -45t-117.5 -18q-12 -2 -24 -2
h-36q0 -19 1.5 -32.5t7.5 -22.5t18 -13t33 -4v-15h-285v15zM278 112q57 0 94.5 17.5t60 49t31.5 75t9 96.5t-9.5 96.5t-32 75t-60 49t-93.5 17.5h-11v-476h11z" />
    <glyph glyph-name="eth" unicode="&#xf0;" horiz-adv-x="605" 
d="M301 -15q-62 0 -111.5 18t-84 50.5t-52.5 77.5t-18 100q0 54 17.5 99t48 77.5t71.5 50t89 17.5q51 0 85 -20t59 -55q-3 61 -25.5 117t-60.5 101l-53 -59l-21 13l57 63q-32 32 -73.5 53t-91.5 27q114 0 202 -38l59 65l21 -13l-57 -63q98 -51 150.5 -146.5t52.5 -228.5
q0 -154 -70 -230t-194 -76zM205 230q0 -66 8.5 -109t22 -69t30.5 -36.5t34 -10.5t34 10.5t30.5 36.5t22 69t8.5 109v10q0 60 -8.5 101t-22 66.5t-31 36.5t-34.5 11q-16 0 -33 -10.5t-30.5 -36.5t-22 -69t-8.5 -109z" />
    <glyph glyph-name="Ccedilla" unicode="&#xc7;" horiz-adv-x="630" 
d="M365 715q38 0 78 -7.5t73 -26.5t54 -50t21 -79q0 -37 -27.5 -64t-71.5 -27t-69 31.5t-25 96.5q0 11 2.5 24.5t5.5 25.5t6.5 21.5t5.5 13.5q2 2 2 5q0 6 -12.5 8.5t-25.5 2.5q-32 0 -61.5 -16.5t-52.5 -56t-36.5 -104.5t-13.5 -163q0 -97 14 -162.5t38 -105t56.5 -56
t68.5 -16.5q39 0 73 15t60.5 35.5t44 42t23.5 33.5q0 -26 -13 -51.5t-37.5 -46.5t-59 -35t-78.5 -17v-36q17 0 34 -4.5t30.5 -13.5t22 -23.5t8.5 -33.5q0 -22 -10 -36.5t-26.5 -23t-36 -12t-39.5 -3.5q-10 0 -23 1t-26 4v30q8 -6 17.5 -8t17.5 -2q24 0 37.5 13.5t13.5 36.5
q0 25 -13.5 37.5t-36.5 12.5v60q-78 1 -140 25t-105.5 70.5t-66.5 114.5t-23 155q0 88 23 156t65.5 114.5t102 70.5t131.5 24z" />
    <glyph glyph-name="Eth" unicode="&#xd0;" horiz-adv-x="716" 
d="M102 350h-110v40h110v210q0 23 -1 39t-6.5 26t-17.5 15t-35 5v15h255q180 0 275 -92.5t95 -257.5t-95 -257.5t-275 -92.5h-255v15q23 0 35 5t17.5 15t6.5 26.5t1 38.5v250zM267 390h100v-40h-100v-325h30q43 0 79 16.5t61.5 54.5t40 100.5t14.5 153.5q0 92 -14.5 154
t-40 100t-61.5 54.5t-79 16.5h-30v-285z" />
    <glyph glyph-name="Oslash" unicode="&#xd8;" horiz-adv-x="753" 
d="M373 715q73 0 137 -25l47 98h53l-57 -120q70 -43 110 -123t40 -195q0 -88 -24 -156t-67.5 -114.5t-104.5 -70.5t-134 -24q-71 0 -132 23l-45 -96h-53l55 117q-72 42 -113.5 123t-41.5 198q0 88 24 156t67.5 114.5t104.5 70.5t134 24zM477 619q-23 39 -50.5 55t-53.5 16
t-53.5 -16t-50 -55t-37 -104.5t-14.5 -164.5q0 -72 7.5 -126t21.5 -93zM273 75q22 -36 48 -50.5t52 -14.5t53.5 16t50 55t37 104.5t14.5 164.5q0 69 -7 120.5t-19 89.5z" />
    <glyph glyph-name="agrave" unicode="&#xe0;" horiz-adv-x="613" 
d="M39 125q0 51 29 80.5t71.5 44t90.5 18t86 3.5h22.5t20.5 1v29q0 59 -7.5 96.5t-21.5 59.5t-34.5 30.5t-46.5 8.5q-21 0 -36 -5q12 -21 16.5 -42t4.5 -36q0 -39 -22 -60.5t-54 -21.5q-33 0 -53.5 20.5t-20.5 52.5q0 21 10.5 41t32.5 35.5t56.5 25t82.5 9.5q61 0 108 -16
t79.5 -44.5t49 -67.5t16.5 -86v-200q0 -19 7 -30t19 -11q11 0 26.5 9.5t31.5 25.5q0 -19 -10 -37t-27 -32t-38.5 -22.5t-44.5 -8.5q-39 0 -68 23t-41 58q-22 -42 -59.5 -66.5t-85.5 -24.5q-94 0 -142 38.5t-48 101.5zM267 22q17 0 31.5 8t26 20t20 25.5t14.5 25.5v145
q-23 0 -44 -1t-28 -2q-36 -5 -57 -41t-21 -90q0 -53 18 -71.5t40 -18.5zM354 700l25 -100h-30l-115 100h120z" />
    <glyph glyph-name="aacute" unicode="&#xe1;" horiz-adv-x="613" 
d="M39 125q0 51 29 80.5t71.5 44t90.5 18t86 3.5h22.5t20.5 1v29q0 59 -7.5 96.5t-21.5 59.5t-34.5 30.5t-46.5 8.5q-21 0 -36 -5q12 -21 16.5 -42t4.5 -36q0 -39 -22 -60.5t-54 -21.5q-33 0 -53.5 20.5t-20.5 52.5q0 21 10.5 41t32.5 35.5t56.5 25t82.5 9.5q61 0 108 -16
t79.5 -44.5t49 -67.5t16.5 -86v-200q0 -19 7 -30t19 -11q11 0 26.5 9.5t31.5 25.5q0 -19 -10 -37t-27 -32t-38.5 -22.5t-44.5 -8.5q-39 0 -68 23t-41 58q-22 -42 -59.5 -66.5t-85.5 -24.5q-94 0 -142 38.5t-48 101.5zM267 22q17 0 31.5 8t26 20t20 25.5t14.5 25.5v145
q-23 0 -44 -1t-28 -2q-36 -5 -57 -41t-21 -90q0 -53 18 -71.5t40 -18.5zM379 700l-115 -100h-30l25 100h120z" />
    <glyph glyph-name="acircumflex" unicode="&#xe2;" horiz-adv-x="613" 
d="M39 125q0 51 29 80.5t71.5 44t90.5 18t86 3.5h22.5t20.5 1v29q0 59 -7.5 96.5t-21.5 59.5t-34.5 30.5t-46.5 8.5q-21 0 -36 -5q12 -21 16.5 -42t4.5 -36q0 -39 -22 -60.5t-54 -21.5q-33 0 -53.5 20.5t-20.5 52.5q0 21 10.5 41t32.5 35.5t56.5 25t82.5 9.5q61 0 108 -16
t79.5 -44.5t49 -67.5t16.5 -86v-200q0 -19 7 -30t19 -11q11 0 26.5 9.5t31.5 25.5q0 -19 -10 -37t-27 -32t-38.5 -22.5t-44.5 -8.5q-39 0 -68 23t-41 58q-22 -42 -59.5 -66.5t-85.5 -24.5q-94 0 -142 38.5t-48 101.5zM267 22q17 0 31.5 8t26 20t20 25.5t14.5 25.5v145
q-23 0 -44 -1t-28 -2q-36 -5 -57 -41t-21 -90q0 -53 18 -71.5t40 -18.5zM195 600l25 100h173l25 -100h-30l-81 71l-82 -71h-30z" />
    <glyph glyph-name="atilde" unicode="&#xe3;" horiz-adv-x="613" 
d="M39 125q0 51 29 80.5t71.5 44t90.5 18t86 3.5h22.5t20.5 1v29q0 59 -7.5 96.5t-21.5 59.5t-34.5 30.5t-46.5 8.5q-21 0 -36 -5q12 -21 16.5 -42t4.5 -36q0 -39 -22 -60.5t-54 -21.5q-33 0 -53.5 20.5t-20.5 52.5q0 21 10.5 41t32.5 35.5t56.5 25t82.5 9.5q61 0 108 -16
t79.5 -44.5t49 -67.5t16.5 -86v-200q0 -19 7 -30t19 -11q11 0 26.5 9.5t31.5 25.5q0 -19 -10 -37t-27 -32t-38.5 -22.5t-44.5 -8.5q-39 0 -68 23t-41 58q-22 -42 -59.5 -66.5t-85.5 -24.5q-94 0 -142 38.5t-48 101.5zM267 22q17 0 31.5 8t26 20t20 25.5t14.5 25.5v145
q-23 0 -44 -1t-28 -2q-36 -5 -57 -41t-21 -90q0 -53 18 -71.5t40 -18.5zM392 700h15q-1 -13 -6 -28.5t-13.5 -28.5t-21 -21.5t-28.5 -8.5q-12 0 -23.5 4t-21.5 9q-11 5 -21.5 9t-19.5 4q-13 0 -19.5 -7t-10.5 -15h-15q2 12 7 27t14 28t21 22t28 9q11 0 22.5 -4.5t22.5 -9.5
t21.5 -9t20.5 -4q14 0 20 7.5t8 16.5z" />
    <glyph glyph-name="adieresis" unicode="&#xe4;" horiz-adv-x="613" 
d="M39 125q0 51 29 80.5t71.5 44t90.5 18t86 3.5h22.5t20.5 1v29q0 59 -7.5 96.5t-21.5 59.5t-34.5 30.5t-46.5 8.5q-21 0 -36 -5q12 -21 16.5 -42t4.5 -36q0 -39 -22 -60.5t-54 -21.5q-33 0 -53.5 20.5t-20.5 52.5q0 21 10.5 41t32.5 35.5t56.5 25t82.5 9.5q61 0 108 -16
t79.5 -44.5t49 -67.5t16.5 -86v-200q0 -19 7 -30t19 -11q11 0 26.5 9.5t31.5 25.5q0 -19 -10 -37t-27 -32t-38.5 -22.5t-44.5 -8.5q-39 0 -68 23t-41 58q-22 -42 -59.5 -66.5t-85.5 -24.5q-94 0 -142 38.5t-48 101.5zM267 22q17 0 31.5 8t26 20t20 25.5t14.5 25.5v145
q-23 0 -44 -1t-28 -2q-36 -5 -57 -41t-21 -90q0 -53 18 -71.5t40 -18.5zM172 648q0 23 16 38.5t41 15.5q22 0 38 -15.5t16 -38.5t-16 -39t-38 -16q-25 0 -41 16t-16 39zM331 647q0 23 17 39t40 16t38.5 -16t15.5 -39t-15.5 -38.5t-38.5 -15.5t-40 15.5t-17 38.5z" />
    <glyph glyph-name="aring" unicode="&#xe5;" horiz-adv-x="613" 
d="M39 125q0 51 29 80.5t71.5 44t90.5 18t86 3.5h22.5t20.5 1v29q0 59 -7.5 96.5t-21.5 59.5t-34.5 30.5t-46.5 8.5q-21 0 -36 -5q12 -21 16.5 -42t4.5 -36q0 -39 -22 -60.5t-54 -21.5q-33 0 -53.5 20.5t-20.5 52.5q0 21 10.5 41t32.5 35.5t56.5 25t82.5 9.5q61 0 108 -16
t79.5 -44.5t49 -67.5t16.5 -86v-200q0 -19 7 -30t19 -11q11 0 26.5 9.5t31.5 25.5q0 -19 -10 -37t-27 -32t-38.5 -22.5t-44.5 -8.5q-39 0 -68 23t-41 58q-22 -42 -59.5 -66.5t-85.5 -24.5q-94 0 -142 38.5t-48 101.5zM267 22q17 0 31.5 8t26 20t20 25.5t14.5 25.5v145
q-23 0 -44 -1t-28 -2q-36 -5 -57 -41t-21 -90q0 -53 18 -71.5t40 -18.5zM251 646q0 23 16 39.5t40 16.5t40 -16.5t16 -39.5t-16.5 -39.5t-39.5 -16.5t-39.5 16.5t-16.5 39.5zM338 646q0 13 -9 22t-22 9q-14 0 -22.5 -8.5t-8.5 -22.5q0 -13 9 -22t22 -9t22 9t9 22z" />
    <glyph glyph-name="ccedilla" unicode="&#xe7;" horiz-adv-x="543" 
d="M257 -12v-38q17 0 34 -4.5t30.5 -13.5t22 -23.5t8.5 -33.5q0 -22 -10 -36.5t-26.5 -23t-36 -12t-39.5 -3.5q-10 0 -23 1t-26 4v30q8 -6 17.5 -8t17.5 -2q24 0 37.5 13.5t13.5 36.5q0 25 -13.5 37.5t-36.5 12.5v69q-90 20 -137.5 85.5t-47.5 170.5q0 125 69 195t203 70
q49 0 83.5 -9.5t56.5 -25t32 -35.5t10 -41q0 -32 -20.5 -52.5t-53.5 -20.5q-32 0 -54 21.5t-22 60.5q0 15 4.5 35t16.5 41q-12 5 -27 5q-19 0 -41.5 -11t-41.5 -38t-32 -73.5t-13 -118.5t13 -118t33 -72.5t43 -37t44 -10.5q35 0 77 22.5t77 57.5q0 -19 -10.5 -38.5
t-33.5 -35.5t-58.5 -26t-85.5 -10q-28 0 -54 3z" />
    <glyph glyph-name="egrave" unicode="&#xe8;" horiz-adv-x="571" 
d="M319 -15q-67 0 -119.5 20t-88.5 56t-54.5 86t-18.5 110t18 107.5t53.5 81t87 51.5t117.5 18q29 0 66 -7.5t70 -24.5t55.5 -45t22.5 -69q0 -34 -16.5 -58.5t-43.5 -40.5t-61 -25t-69.5 -13.5t-69.5 -5.5t-60 -1q1 -66 6.5 -107.5t17.5 -64t32 -30.5t48 -8q52 0 107.5 20
t95.5 60q0 -19 -12.5 -38.5t-37 -35.5t-61 -26t-85.5 -10zM208 250q30 2 58 6.5t49.5 17.5t34.5 37t13 64q0 21 -4 42t-12.5 37t-21.5 26t-31 10t-33.5 -11.5t-27 -39.5t-18.5 -74t-7 -115zM333 700l25 -100h-30l-115 100h120z" />
    <glyph glyph-name="eacute" unicode="&#xe9;" horiz-adv-x="571" 
d="M319 -15q-67 0 -119.5 20t-88.5 56t-54.5 86t-18.5 110t18 107.5t53.5 81t87 51.5t117.5 18q29 0 66 -7.5t70 -24.5t55.5 -45t22.5 -69q0 -34 -16.5 -58.5t-43.5 -40.5t-61 -25t-69.5 -13.5t-69.5 -5.5t-60 -1q1 -66 6.5 -107.5t17.5 -64t32 -30.5t48 -8q52 0 107.5 20
t95.5 60q0 -19 -12.5 -38.5t-37 -35.5t-61 -26t-85.5 -10zM208 250q30 2 58 6.5t49.5 17.5t34.5 37t13 64q0 21 -4 42t-12.5 37t-21.5 26t-31 10t-33.5 -11.5t-27 -39.5t-18.5 -74t-7 -115zM358 700l-115 -100h-30l25 100h120z" />
    <glyph glyph-name="ecircumflex" unicode="&#xea;" horiz-adv-x="571" 
d="M319 -15q-67 0 -119.5 20t-88.5 56t-54.5 86t-18.5 110t18 107.5t53.5 81t87 51.5t117.5 18q29 0 66 -7.5t70 -24.5t55.5 -45t22.5 -69q0 -34 -16.5 -58.5t-43.5 -40.5t-61 -25t-69.5 -13.5t-69.5 -5.5t-60 -1q1 -66 6.5 -107.5t17.5 -64t32 -30.5t48 -8q52 0 107.5 20
t95.5 60q0 -19 -12.5 -38.5t-37 -35.5t-61 -26t-85.5 -10zM208 250q30 2 58 6.5t49.5 17.5t34.5 37t13 64q0 21 -4 42t-12.5 37t-21.5 26t-31 10t-33.5 -11.5t-27 -39.5t-18.5 -74t-7 -115zM174 600l25 100h173l25 -100h-30l-81 71l-82 -71h-30z" />
    <glyph glyph-name="edieresis" unicode="&#xeb;" horiz-adv-x="571" 
d="M319 -15q-67 0 -119.5 20t-88.5 56t-54.5 86t-18.5 110t18 107.5t53.5 81t87 51.5t117.5 18q29 0 66 -7.5t70 -24.5t55.5 -45t22.5 -69q0 -34 -16.5 -58.5t-43.5 -40.5t-61 -25t-69.5 -13.5t-69.5 -5.5t-60 -1q1 -66 6.5 -107.5t17.5 -64t32 -30.5t48 -8q52 0 107.5 20
t95.5 60q0 -19 -12.5 -38.5t-37 -35.5t-61 -26t-85.5 -10zM208 250q30 2 58 6.5t49.5 17.5t34.5 37t13 64q0 21 -4 42t-12.5 37t-21.5 26t-31 10t-33.5 -11.5t-27 -39.5t-18.5 -74t-7 -115zM150 648q0 23 16 38.5t41 15.5q22 0 38 -15.5t16 -38.5t-16 -39t-38 -16
q-25 0 -41 16t-16 39zM309 647q0 23 17 39t40 16t38.5 -16t15.5 -39t-15.5 -38.5t-38.5 -15.5t-40 15.5t-17 38.5z" />
    <glyph glyph-name="igrave" unicode="&#xec;" horiz-adv-x="354" 
d="M83 439q-13 0 -29 -9.5t-32 -25.5q0 19 10.5 37t28 32.5t41 23t49.5 8.5q21 0 42 -6t37.5 -18.5t26.5 -31.5t10 -44v-305q0 -22 1 -38.5t6.5 -26.5t18 -15t34.5 -5v-15h-280v15q23 0 35 5t17.5 15t6.5 26.5t1 38.5v305q0 19 -7 26.5t-17 7.5zM225 700l25 -100h-30
l-115 100h120z" />
    <glyph glyph-name="iacute" unicode="&#xed;" horiz-adv-x="354" 
d="M83 439q-13 0 -29 -9.5t-32 -25.5q0 19 10.5 37t28 32.5t41 23t49.5 8.5q21 0 42 -6t37.5 -18.5t26.5 -31.5t10 -44v-305q0 -22 1 -38.5t6.5 -26.5t18 -15t34.5 -5v-15h-280v15q23 0 35 5t17.5 15t6.5 26.5t1 38.5v305q0 19 -7 26.5t-17 7.5zM250 700l-115 -100h-30
l25 100h120z" />
    <glyph glyph-name="icircumflex" unicode="&#xee;" horiz-adv-x="354" 
d="M83 439q-13 0 -29 -9.5t-32 -25.5q0 19 10.5 37t28 32.5t41 23t49.5 8.5q21 0 42 -6t37.5 -18.5t26.5 -31.5t10 -44v-305q0 -22 1 -38.5t6.5 -26.5t18 -15t34.5 -5v-15h-280v15q23 0 35 5t17.5 15t6.5 26.5t1 38.5v305q0 19 -7 26.5t-17 7.5zM65 600l25 100h173l25 -100
h-30l-81 71l-82 -71h-30z" />
    <glyph glyph-name="idieresis" unicode="&#xef;" horiz-adv-x="354" 
d="M83 439q-13 0 -29 -9.5t-32 -25.5q0 19 10.5 37t28 32.5t41 23t49.5 8.5q21 0 42 -6t37.5 -18.5t26.5 -31.5t10 -44v-305q0 -22 1 -38.5t6.5 -26.5t18 -15t34.5 -5v-15h-280v15q23 0 35 5t17.5 15t6.5 26.5t1 38.5v305q0 19 -7 26.5t-17 7.5zM42 648q0 23 16 38.5
t41 15.5q22 0 38 -15.5t16 -38.5t-16 -39t-38 -16q-25 0 -41 16t-16 39zM201 647q0 23 17 39t40 16t38.5 -16t15.5 -39t-15.5 -38.5t-38.5 -15.5t-40 15.5t-17 38.5z" />
    <glyph glyph-name="ntilde" unicode="&#xf1;" horiz-adv-x="693" 
d="M87 439q-13 0 -29 -9.5t-32 -25.5q0 19 10.5 37t28 32.5t41 23t49.5 8.5q35 0 66 -16t43 -48q25 38 61 56t81 18q41 0 76 -14t60.5 -37t39.5 -52.5t14 -61.5v-250q0 -19 7.5 -29t18.5 -10t27 9.5t32 25.5q0 -19 -10.5 -37t-27.5 -32.5t-40 -23t-49 -8.5q-22 0 -43.5 7
t-38 20.5t-26.5 33t-10 44.5v250q0 34 -7 58.5t-18 40.5t-25 23.5t-28 7.5q-16 0 -29.5 -7.5t-24.5 -19.5t-19.5 -26t-13.5 -28v-299q0 -22 1 -38.5t6.5 -26.5t18 -15t34.5 -5v-15h-280v15q23 0 35 5t17.5 15t6.5 26.5t1 38.5v305q0 19 -7 26.5t-17 7.5zM432 700h15
q-1 -13 -6 -28.5t-13.5 -28.5t-21 -21.5t-28.5 -8.5q-12 0 -23.5 4t-21.5 9q-11 5 -21.5 9t-19.5 4q-13 0 -19.5 -7t-10.5 -15h-15q2 12 7 27t14 28t21 22t28 9q11 0 22.5 -4.5t22.5 -9.5t21.5 -9t20.5 -4q14 0 20 7.5t8 16.5z" />
    <glyph glyph-name="ograve" unicode="&#xf2;" horiz-adv-x="620" 
d="M307 515q62 0 111.5 -18t84 -52.5t53 -83.5t18.5 -111t-18.5 -111t-53 -83.5t-84 -52.5t-111.5 -18t-111.5 18t-84 52.5t-53 83.5t-18.5 111t18.5 111t53 83.5t84 52.5t111.5 18zM307 10q17 0 34 10t31 37t23 73.5t9 119.5t-9 119.5t-23 73.5t-31 37t-34 10t-34 -10
t-31 -37t-23 -73.5t-9 -119.5t9 -119.5t23 -73.5t31 -37t34 -10zM358 700l25 -100h-30l-115 100h120z" />
    <glyph glyph-name="oacute" unicode="&#xf3;" horiz-adv-x="620" 
d="M307 515q62 0 111.5 -18t84 -52.5t53 -83.5t18.5 -111t-18.5 -111t-53 -83.5t-84 -52.5t-111.5 -18t-111.5 18t-84 52.5t-53 83.5t-18.5 111t18.5 111t53 83.5t84 52.5t111.5 18zM307 10q17 0 34 10t31 37t23 73.5t9 119.5t-9 119.5t-23 73.5t-31 37t-34 10t-34 -10
t-31 -37t-23 -73.5t-9 -119.5t9 -119.5t23 -73.5t31 -37t34 -10zM383 700l-115 -100h-30l25 100h120z" />
    <glyph glyph-name="ocircumflex" unicode="&#xf4;" horiz-adv-x="620" 
d="M307 515q62 0 111.5 -18t84 -52.5t53 -83.5t18.5 -111t-18.5 -111t-53 -83.5t-84 -52.5t-111.5 -18t-111.5 18t-84 52.5t-53 83.5t-18.5 111t18.5 111t53 83.5t84 52.5t111.5 18zM307 10q17 0 34 10t31 37t23 73.5t9 119.5t-9 119.5t-23 73.5t-31 37t-34 10t-34 -10
t-31 -37t-23 -73.5t-9 -119.5t9 -119.5t23 -73.5t31 -37t34 -10zM199 600l25 100h173l25 -100h-30l-81 71l-82 -71h-30z" />
    <glyph glyph-name="otilde" unicode="&#xf5;" horiz-adv-x="620" 
d="M307 515q62 0 111.5 -18t84 -52.5t53 -83.5t18.5 -111t-18.5 -111t-53 -83.5t-84 -52.5t-111.5 -18t-111.5 18t-84 52.5t-53 83.5t-18.5 111t18.5 111t53 83.5t84 52.5t111.5 18zM307 10q17 0 34 10t31 37t23 73.5t9 119.5t-9 119.5t-23 73.5t-31 37t-34 10t-34 -10
t-31 -37t-23 -73.5t-9 -119.5t9 -119.5t23 -73.5t31 -37t34 -10zM396 700h15q-1 -13 -6 -28.5t-13.5 -28.5t-21 -21.5t-28.5 -8.5q-12 0 -23.5 4t-21.5 9q-11 5 -21.5 9t-19.5 4q-13 0 -19.5 -7t-10.5 -15h-15q2 12 7 27t14 28t21 22t28 9q11 0 22.5 -4.5t22.5 -9.5t21.5 -9
t20.5 -4q14 0 20 7.5t8 16.5z" />
    <glyph glyph-name="odieresis" unicode="&#xf6;" horiz-adv-x="620" 
d="M307 515q62 0 111.5 -18t84 -52.5t53 -83.5t18.5 -111t-18.5 -111t-53 -83.5t-84 -52.5t-111.5 -18t-111.5 18t-84 52.5t-53 83.5t-18.5 111t18.5 111t53 83.5t84 52.5t111.5 18zM307 10q17 0 34 10t31 37t23 73.5t9 119.5t-9 119.5t-23 73.5t-31 37t-34 10t-34 -10
t-31 -37t-23 -73.5t-9 -119.5t9 -119.5t23 -73.5t31 -37t34 -10zM175 648q0 23 16 38.5t41 15.5q22 0 38 -15.5t16 -38.5t-16 -39t-38 -16q-25 0 -41 16t-16 39zM334 647q0 23 17 39t40 16t38.5 -16t15.5 -39t-15.5 -38.5t-38.5 -15.5t-40 15.5t-17 38.5z" />
    <glyph glyph-name="ugrave" unicode="&#xf9;" 
d="M81 439q-11 0 -27 -9.5t-32 -25.5q0 19 10.5 37t27.5 32.5t40.5 23t48.5 8.5q22 0 43.5 -7t38 -20.5t26.5 -33t10 -44.5v-250q0 -34 7 -58.5t18 -40.5t25 -23.5t28 -7.5q16 0 29.5 7.5t24.5 19.5t19.5 26.5t13.5 27.5v299q0 19 -7.5 29t-18.5 10t-27 -9.5t-32 -25.5
q0 19 10.5 37t27.5 32.5t40.5 23t48.5 8.5q22 0 43.5 -7t38 -20.5t26.5 -33t10 -44.5v-305q0 -19 7 -26.5t17 -7.5q13 0 29 9.5t32 25.5q0 -19 -10.5 -37t-28 -32.5t-41 -23t-49.5 -8.5q-35 0 -66 16t-43 48q-25 -38 -61 -56t-81 -18q-41 0 -76 14t-60.5 37t-39.5 53t-14 61
v250q0 19 -7.5 29t-18.5 10zM394 700l25 -100h-30l-115 100h120z" />
    <glyph glyph-name="uacute" unicode="&#xfa;" 
d="M81 439q-11 0 -27 -9.5t-32 -25.5q0 19 10.5 37t27.5 32.5t40.5 23t48.5 8.5q22 0 43.5 -7t38 -20.5t26.5 -33t10 -44.5v-250q0 -34 7 -58.5t18 -40.5t25 -23.5t28 -7.5q16 0 29.5 7.5t24.5 19.5t19.5 26.5t13.5 27.5v299q0 19 -7.5 29t-18.5 10t-27 -9.5t-32 -25.5
q0 19 10.5 37t27.5 32.5t40.5 23t48.5 8.5q22 0 43.5 -7t38 -20.5t26.5 -33t10 -44.5v-305q0 -19 7 -26.5t17 -7.5q13 0 29 9.5t32 25.5q0 -19 -10.5 -37t-28 -32.5t-41 -23t-49.5 -8.5q-35 0 -66 16t-43 48q-25 -38 -61 -56t-81 -18q-41 0 -76 14t-60.5 37t-39.5 53t-14 61
v250q0 19 -7.5 29t-18.5 10zM419 700l-115 -100h-30l25 100h120z" />
    <glyph glyph-name="ucircumflex" unicode="&#xfb;" 
d="M81 439q-11 0 -27 -9.5t-32 -25.5q0 19 10.5 37t27.5 32.5t40.5 23t48.5 8.5q22 0 43.5 -7t38 -20.5t26.5 -33t10 -44.5v-250q0 -34 7 -58.5t18 -40.5t25 -23.5t28 -7.5q16 0 29.5 7.5t24.5 19.5t19.5 26.5t13.5 27.5v299q0 19 -7.5 29t-18.5 10t-27 -9.5t-32 -25.5
q0 19 10.5 37t27.5 32.5t40.5 23t48.5 8.5q22 0 43.5 -7t38 -20.5t26.5 -33t10 -44.5v-305q0 -19 7 -26.5t17 -7.5q13 0 29 9.5t32 25.5q0 -19 -10.5 -37t-28 -32.5t-41 -23t-49.5 -8.5q-35 0 -66 16t-43 48q-25 -38 -61 -56t-81 -18q-41 0 -76 14t-60.5 37t-39.5 53t-14 61
v250q0 19 -7.5 29t-18.5 10zM235 600l25 100h173l25 -100h-30l-81 71l-82 -71h-30z" />
    <glyph glyph-name="udieresis" unicode="&#xfc;" 
d="M81 439q-11 0 -27 -9.5t-32 -25.5q0 19 10.5 37t27.5 32.5t40.5 23t48.5 8.5q22 0 43.5 -7t38 -20.5t26.5 -33t10 -44.5v-250q0 -34 7 -58.5t18 -40.5t25 -23.5t28 -7.5q16 0 29.5 7.5t24.5 19.5t19.5 26.5t13.5 27.5v299q0 19 -7.5 29t-18.5 10t-27 -9.5t-32 -25.5
q0 19 10.5 37t27.5 32.5t40.5 23t48.5 8.5q22 0 43.5 -7t38 -20.5t26.5 -33t10 -44.5v-305q0 -19 7 -26.5t17 -7.5q13 0 29 9.5t32 25.5q0 -19 -10.5 -37t-28 -32.5t-41 -23t-49.5 -8.5q-35 0 -66 16t-43 48q-25 -38 -61 -56t-81 -18q-41 0 -76 14t-60.5 37t-39.5 53t-14 61
v250q0 19 -7.5 29t-18.5 10zM211 648q0 23 16 38.5t41 15.5q22 0 38 -15.5t16 -38.5t-16 -39t-38 -16q-25 0 -41 16t-16 39zM370 647q0 23 17 39t40 16t38.5 -16t15.5 -39t-15.5 -38.5t-38.5 -15.5t-40 15.5t-17 38.5z" />
    <glyph glyph-name="yacute" unicode="&#xfd;" horiz-adv-x="561" 
d="M95 398q-10 20 -20.5 29t-22.5 9t-25.5 -8.5t-27.5 -22.5q0 21 11 39.5t30 32t43.5 21t52.5 7.5q43 0 72 -21t51 -69l105 -228l103 264q4 9 4 16q0 6 -6 10t-14.5 5.5t-18.5 2t-18 0.5h-8v15h160v-15q-34 0 -47.5 -6.5t-21.5 -27.5l-199 -511q-17 -45 -34 -74.5
t-35.5 -47.5t-38.5 -25.5t-43 -7.5q-48 0 -76 25t-28 65q0 41 25 60.5t55 19.5q34 0 52.5 -21t18.5 -51q0 -17 -6 -34t-20 -34q28 5 51.5 34t48.5 91l18 45zM353 700l-115 -100h-30l25 100h120z" />
    <glyph glyph-name="ydieresis" unicode="&#xff;" horiz-adv-x="561" 
d="M95 398q-10 20 -20.5 29t-22.5 9t-25.5 -8.5t-27.5 -22.5q0 21 11 39.5t30 32t43.5 21t52.5 7.5q43 0 72 -21t51 -69l105 -228l103 264q4 9 4 16q0 6 -6 10t-14.5 5.5t-18.5 2t-18 0.5h-8v15h160v-15q-34 0 -47.5 -6.5t-21.5 -27.5l-199 -511q-17 -45 -34 -74.5
t-35.5 -47.5t-38.5 -25.5t-43 -7.5q-48 0 -76 25t-28 65q0 41 25 60.5t55 19.5q34 0 52.5 -21t18.5 -51q0 -17 -6 -34t-20 -34q28 5 51.5 34t48.5 91l18 45zM145 648q0 23 16 38.5t41 15.5q22 0 38 -15.5t16 -38.5t-16 -39t-38 -16q-25 0 -41 16t-16 39zM304 647q0 23 17 39
t40 16t38.5 -16t15.5 -39t-15.5 -38.5t-38.5 -15.5t-40 15.5t-17 38.5z" />
    <glyph glyph-name="amacron" unicode="&#x101;" horiz-adv-x="613" 
d="M39 125q0 51 29 80.5t71.5 44t90.5 18t86 3.5h22.5t20.5 1v29q0 59 -7.5 96.5t-21.5 59.5t-34.5 30.5t-46.5 8.5q-21 0 -36 -5q12 -21 16.5 -42t4.5 -36q0 -39 -22 -60.5t-54 -21.5q-33 0 -53.5 20.5t-20.5 52.5q0 21 10.5 41t32.5 35.5t56.5 25t82.5 9.5q61 0 108 -16
t79.5 -44.5t49 -67.5t16.5 -86v-200q0 -19 7 -30t19 -11q11 0 26.5 9.5t31.5 25.5q0 -19 -10 -37t-27 -32t-38.5 -22.5t-44.5 -8.5q-39 0 -68 23t-41 58q-22 -42 -59.5 -66.5t-85.5 -24.5q-94 0 -142 38.5t-48 101.5zM267 22q17 0 31.5 8t26 20t20 25.5t14.5 25.5v145
q-23 0 -44 -1t-28 -2q-36 -5 -57 -41t-21 -90q0 -53 18 -71.5t40 -18.5zM177 660v40h260v-40h-260z" />
    <glyph glyph-name="aogonek" unicode="&#x105;" horiz-adv-x="613" 
d="M316 271h22.5t20.5 1v29q0 59 -7.5 96.5t-21.5 59.5t-34.5 30.5t-46.5 8.5q-21 0 -36 -5q12 -21 16.5 -42t4.5 -36q0 -39 -22 -60.5t-54 -21.5q-33 0 -53.5 20.5t-20.5 52.5q0 21 10.5 41t32.5 35.5t56.5 25t82.5 9.5q61 0 108 -16t79.5 -44.5t49 -67.5t16.5 -86v-200
q0 -19 7 -30t19 -11q11 0 26.5 9.5t31.5 25.5q0 -31 -25.5 -58t-60.5 -37q-19 -9 -36 -21.5t-30 -27.5t-21 -33t-8 -39q0 -44 38 -44q14 0 26 5.5t21 14.5v-30q-17 -8 -31.5 -11.5t-31.5 -3.5q-18 0 -37 3.5t-34.5 12.5t-25.5 23.5t-10 35.5q0 24 12 42.5t31 32t41 22.5
t42 15q-32 6 -55 27.5t-34 51.5q-22 -42 -59.5 -66.5t-85.5 -24.5q-94 0 -142 38.5t-48 101.5q0 51 29 80.5t71.5 44t90.5 18t86 3.5zM209 112q0 -53 18 -71.5t40 -18.5q17 0 31.5 8t26 20t20 25.5t14.5 25.5v145q-23 0 -44 -1t-28 -2q-36 -5 -57 -41t-21 -90z" />
    <glyph glyph-name="abreve" unicode="&#x103;" horiz-adv-x="613" 
d="M39 125q0 51 29 80.5t71.5 44t90.5 18t86 3.5h22.5t20.5 1v29q0 59 -7.5 96.5t-21.5 59.5t-34.5 30.5t-46.5 8.5q-21 0 -36 -5q12 -21 16.5 -42t4.5 -36q0 -39 -22 -60.5t-54 -21.5q-33 0 -53.5 20.5t-20.5 52.5q0 21 10.5 41t32.5 35.5t56.5 25t82.5 9.5q61 0 108 -16
t79.5 -44.5t49 -67.5t16.5 -86v-200q0 -19 7 -30t19 -11q11 0 26.5 9.5t31.5 25.5q0 -19 -10 -37t-27 -32t-38.5 -22.5t-44.5 -8.5q-39 0 -68 23t-41 58q-22 -42 -59.5 -66.5t-85.5 -24.5q-94 0 -142 38.5t-48 101.5zM267 22q17 0 31.5 8t26 20t20 25.5t14.5 25.5v145
q-23 0 -44 -1t-28 -2q-36 -5 -57 -41t-21 -90q0 -53 18 -71.5t40 -18.5zM239 700q8 -22 27 -29t41 -7q20 0 40 6.5t28 29.5h20q-1 -18 -8 -35t-18.5 -30.5t-27 -22t-35.5 -8.5q-19 0 -34.5 8t-27 21.5t-17.5 31t-8 35.5h20z" />
    <glyph glyph-name="cacute" unicode="&#x107;" horiz-adv-x="543" 
d="M314 515q49 0 83.5 -9.5t56.5 -25t32 -35.5t10 -41q0 -32 -20.5 -52.5t-53.5 -20.5q-32 0 -54 21.5t-22 60.5q0 15 4.5 35t16.5 41q-12 5 -27 5q-19 0 -41.5 -11t-41.5 -38t-32 -73.5t-13 -118.5t13 -118t33 -72.5t43 -37t44 -10.5q35 0 77 22.5t77 57.5
q0 -19 -10.5 -38.5t-33.5 -35.5t-58.5 -26t-85.5 -10q-129 0 -199 68.5t-70 196.5q0 125 69 195t203 70zM344 700l-115 -100h-30l25 100h120z" />
    <glyph glyph-name="ccircumflex" unicode="&#x109;" horiz-adv-x="543" 
d="M314 515q49 0 83.5 -9.5t56.5 -25t32 -35.5t10 -41q0 -32 -20.5 -52.5t-53.5 -20.5q-32 0 -54 21.5t-22 60.5q0 15 4.5 35t16.5 41q-12 5 -27 5q-19 0 -41.5 -11t-41.5 -38t-32 -73.5t-13 -118.5t13 -118t33 -72.5t43 -37t44 -10.5q35 0 77 22.5t77 57.5
q0 -19 -10.5 -38.5t-33.5 -35.5t-58.5 -26t-85.5 -10q-129 0 -199 68.5t-70 196.5q0 125 69 195t203 70zM160 600l25 100h173l25 -100h-30l-81 71l-82 -71h-30z" />
    <glyph glyph-name="cdotaccent" unicode="&#x10b;" horiz-adv-x="543" 
d="M314 515q49 0 83.5 -9.5t56.5 -25t32 -35.5t10 -41q0 -32 -20.5 -52.5t-53.5 -20.5q-32 0 -54 21.5t-22 60.5q0 15 4.5 35t16.5 41q-12 5 -27 5q-19 0 -41.5 -11t-41.5 -38t-32 -73.5t-13 -118.5t13 -118t33 -72.5t43 -37t44 -10.5q35 0 77 22.5t77 57.5
q0 -19 -10.5 -38.5t-33.5 -35.5t-58.5 -26t-85.5 -10q-129 0 -199 68.5t-70 196.5q0 125 69 195t203 70zM216 648q0 23 16 38.5t41 15.5q22 0 38 -15.5t16 -38.5t-16 -39t-38 -16q-25 0 -41 16t-16 39z" />
    <glyph glyph-name="ccaron" unicode="&#x10d;" horiz-adv-x="543" 
d="M314 515q49 0 83.5 -9.5t56.5 -25t32 -35.5t10 -41q0 -32 -20.5 -52.5t-53.5 -20.5q-32 0 -54 21.5t-22 60.5q0 15 4.5 35t16.5 41q-12 5 -27 5q-19 0 -41.5 -11t-41.5 -38t-32 -73.5t-13 -118.5t13 -118t33 -72.5t43 -37t44 -10.5q35 0 77 22.5t77 57.5
q0 -19 -10.5 -38.5t-33.5 -35.5t-58.5 -26t-85.5 -10q-129 0 -199 68.5t-70 196.5q0 125 69 195t203 70zM150 700h30l92 -72l92 72h30l-42 -100h-160z" />
    <glyph glyph-name="emacron" unicode="&#x113;" horiz-adv-x="571" 
d="M319 -15q-67 0 -119.5 20t-88.5 56t-54.5 86t-18.5 110t18 107.5t53.5 81t87 51.5t117.5 18q29 0 66 -7.5t70 -24.5t55.5 -45t22.5 -69q0 -34 -16.5 -58.5t-43.5 -40.5t-61 -25t-69.5 -13.5t-69.5 -5.5t-60 -1q1 -66 6.5 -107.5t17.5 -64t32 -30.5t48 -8q52 0 107.5 20
t95.5 60q0 -19 -12.5 -38.5t-37 -35.5t-61 -26t-85.5 -10zM208 250q30 2 58 6.5t49.5 17.5t34.5 37t13 64q0 21 -4 42t-12.5 37t-21.5 26t-31 10t-33.5 -11.5t-27 -39.5t-18.5 -74t-7 -115zM156 660v40h260v-40h-260z" />
    <glyph glyph-name="ebreve" unicode="&#x115;" horiz-adv-x="571" 
d="M319 -15q-67 0 -119.5 20t-88.5 56t-54.5 86t-18.5 110t18 107.5t53.5 81t87 51.5t117.5 18q29 0 66 -7.5t70 -24.5t55.5 -45t22.5 -69q0 -34 -16.5 -58.5t-43.5 -40.5t-61 -25t-69.5 -13.5t-69.5 -5.5t-60 -1q1 -66 6.5 -107.5t17.5 -64t32 -30.5t48 -8q52 0 107.5 20
t95.5 60q0 -19 -12.5 -38.5t-37 -35.5t-61 -26t-85.5 -10zM208 250q30 2 58 6.5t49.5 17.5t34.5 37t13 64q0 21 -4 42t-12.5 37t-21.5 26t-31 10t-33.5 -11.5t-27 -39.5t-18.5 -74t-7 -115zM218 700q8 -22 27 -29t41 -7q20 0 40 6.5t28 29.5h20q-1 -18 -8 -35t-18.5 -30.5
t-27 -22t-35.5 -8.5q-19 0 -34.5 8t-27 21.5t-17.5 31t-8 35.5h20z" />
    <glyph glyph-name="edotaccent" unicode="&#x117;" horiz-adv-x="571" 
d="M319 -15q-67 0 -119.5 20t-88.5 56t-54.5 86t-18.5 110t18 107.5t53.5 81t87 51.5t117.5 18q29 0 66 -7.5t70 -24.5t55.5 -45t22.5 -69q0 -34 -16.5 -58.5t-43.5 -40.5t-61 -25t-69.5 -13.5t-69.5 -5.5t-60 -1q1 -66 6.5 -107.5t17.5 -64t32 -30.5t48 -8q52 0 107.5 20
t95.5 60q0 -19 -12.5 -38.5t-37 -35.5t-61 -26t-85.5 -10zM208 250q30 2 58 6.5t49.5 17.5t34.5 37t13 64q0 21 -4 42t-12.5 37t-21.5 26t-31 10t-33.5 -11.5t-27 -39.5t-18.5 -74t-7 -115zM230 648q0 23 16 38.5t41 15.5q22 0 38 -15.5t16 -38.5t-16 -39t-38 -16
q-25 0 -41 16t-16 39z" />
    <glyph glyph-name="eogonek" unicode="&#x119;" horiz-adv-x="571" 
d="M319 -15q-67 0 -119.5 20t-88.5 56t-54.5 86t-18.5 110t18 107.5t53.5 81t87 51.5t117.5 18q29 0 66 -7.5t70 -24.5t55.5 -45t22.5 -69q0 -34 -16.5 -58.5t-43.5 -40.5t-61 -25t-69.5 -13.5t-69.5 -5.5t-60 -1q1 -66 6.5 -107.5t17.5 -64t32 -30.5t48 -8q52 0 107.5 20
t95.5 60q0 -26 -23 -52.5t-71 -42.5h1q-19 -9 -36 -21.5t-30 -27.5t-21 -33t-8 -39q0 -44 38 -44q14 0 26 5.5t21 14.5v-30q-17 -8 -31.5 -11.5t-31.5 -3.5q-18 0 -37 3.5t-34.5 12.5t-25.5 23.5t-10 35.5t8.5 37t22 28t30 20.5t33.5 14.5h-17zM294 490q-18 0 -33.5 -11.5
t-27 -39.5t-18.5 -74t-7 -115q30 2 58 6.5t49.5 17.5t34.5 37t13 64q0 21 -4 42t-12.5 37t-21.5 26t-31 10z" />
    <glyph glyph-name="ecaron" unicode="&#x11b;" horiz-adv-x="571" 
d="M319 -15q-67 0 -119.5 20t-88.5 56t-54.5 86t-18.5 110t18 107.5t53.5 81t87 51.5t117.5 18q29 0 66 -7.5t70 -24.5t55.5 -45t22.5 -69q0 -34 -16.5 -58.5t-43.5 -40.5t-61 -25t-69.5 -13.5t-69.5 -5.5t-60 -1q1 -66 6.5 -107.5t17.5 -64t32 -30.5t48 -8q52 0 107.5 20
t95.5 60q0 -19 -12.5 -38.5t-37 -35.5t-61 -26t-85.5 -10zM208 250q30 2 58 6.5t49.5 17.5t34.5 37t13 64q0 21 -4 42t-12.5 37t-21.5 26t-31 10t-33.5 -11.5t-27 -39.5t-18.5 -74t-7 -115zM164 700h30l92 -72l92 72h30l-42 -100h-160z" />
    <glyph glyph-name="gcircumflex" unicode="&#x11d;" horiz-adv-x="636" 
d="M40 -100q0 30 18.5 51t50.5 21t52.5 -22t20.5 -57q0 -18 -7 -32.5t-24 -33.5q23 -9 48.5 -12.5t60.5 -3.5q72 0 122.5 11.5t82.5 29t47 38t15 38.5q0 25 -29.5 41t-98.5 16h-192q-39 0 -68.5 9.5t-48.5 25.5t-28.5 36.5t-9.5 42.5t8 39.5t21.5 31t30.5 23.5t35 17
q-38 23 -54 55t-16 70q0 75 54.5 122.5t164.5 47.5q51 0 91.5 -10t63.5 -25q5 18 14.5 37t23.5 34t32.5 24.5t40.5 9.5q23 0 43.5 -13t20.5 -45q0 -17 -8 -29.5t-26 -12.5q-17 0 -27.5 11.5t-10.5 31.5q0 12 3 19.5t6 12.5q-12 -1 -24.5 -5t-24 -14.5t-22.5 -28.5t-20 -47
q26 -23 37.5 -52t11.5 -61q0 -73 -56 -120t-172 -47q-34 0 -63.5 5t-55.5 16q-14 -5 -30.5 -14t-16.5 -23q0 -5 3.5 -11t12.5 -11t24.5 -8.5t39.5 -3.5h192q75 0 121.5 -39t46.5 -110q0 -42 -18 -77t-54 -60.5t-89.5 -39.5t-125.5 -14q-32 0 -73.5 4t-78.5 16.5t-62.5 35
t-25.5 59.5zM227 340q0 -43 5.5 -70.5t15.5 -43t23 -21t28 -5.5t28 5.5t23 21t15.5 43t5.5 70.5t-5.5 70.5t-15.5 43t-23 21t-28 5.5t-28 -5.5t-23 -21t-15.5 -43t-5.5 -70.5zM207 600l25 100h173l25 -100h-30l-81 71l-82 -71h-30z" />
    </font>
</defs>
</svg>
